<svg width="24" height="20" viewBox="0 0 24 20" fill="none" xmlns="http://www.w3.org/2000/svg">
<path d="M4.20008 0H0.600074C0.268726 0 0 0.268726 0 0.600074V4.20008C0 4.53142 0.268726 4.80015 0.600074 4.80015C0.931421 4.80015 1.19993 4.53142 1.19993 4.20008V1.20015H4.20008C4.53142 1.20015 4.79993 0.931422 4.79993 0.600074C4.79993 0.268726 4.53142 0 4.20008 0V0Z" fill="white"/>
<path d="M4.20008 17.9984H1.19993V14.9985C1.19993 14.6672 0.931421 14.3984 0.600074 14.3984C0.268726 14.3984 0 14.6672 0 14.9985V18.5985C0 18.9299 0.268726 19.1986 0.600074 19.1986H4.20008C4.53142 19.1986 4.79993 18.9299 4.79993 18.5985C4.79993 18.2672 4.53142 17.9984 4.20008 17.9984V17.9984Z" fill="white"/>
<path d="M23.3993 0H19.7993C19.4679 0 19.1992 0.268726 19.1992 0.600074C19.1992 0.931422 19.4679 1.20015 19.7993 1.20015H22.7992V4.20008C22.7992 4.53142 23.0679 4.80015 23.3993 4.80015C23.7306 4.80015 23.9994 4.53142 23.9994 4.20008V0.600074C23.9994 0.268726 23.7306 0 23.3993 0V0Z" fill="white"/>
<path d="M23.3993 14.3984C23.0679 14.3984 22.7992 14.6672 22.7992 14.9985V17.9984H19.7993C19.4679 17.9984 19.1992 18.2672 19.1992 18.5985C19.1992 18.9299 19.4679 19.1986 19.7993 19.1986H23.3993C23.7306 19.1986 23.9994 18.9299 23.9994 18.5985V14.9985C23.9994 14.6672 23.7306 14.3984 23.3993 14.3984V14.3984Z" fill="white"/>
<path d="M3.64988 3.60156H4.95012C5.3091 3.60156 5.6 3.87029 5.6 4.20164V15.0016C5.6 15.333 5.3091 15.6017 4.95012 15.6017H3.64988C3.2909 15.6017 3 15.333 3 15.0016V4.20164C3 3.87029 3.2909 3.60156 3.64988 3.60156Z" fill="white"/>
<path d="M7.89909 3.60156C7.51249 3.60156 7.19922 3.87029 7.19922 4.20164V15.0016C7.19922 15.333 7.51249 15.6017 7.89909 15.6017C8.28569 15.6017 8.59922 15.333 8.59922 15.0016V4.20164C8.59922 3.87029 8.28569 3.60156 7.89909 3.60156Z" fill="white"/>
<path d="M11.1501 3.60156H12.4499C12.8089 3.60156 13.1 3.87029 13.1 4.20164V15.0016C13.1 15.333 12.8089 15.6017 12.4499 15.6017H11.1501C10.7911 15.6017 10.5 15.333 10.5 15.0016V4.20164C10.5 3.87029 10.7911 3.60156 11.1501 3.60156Z" fill="white"/>
<path d="M15.5008 3.60156C15.1143 3.60156 14.8008 3.87029 14.8008 4.20164V15.0016C14.8008 15.333 15.1143 15.6017 15.5008 15.6017C15.8873 15.6017 16.2008 15.333 16.2008 15.0016V4.20164C16.2008 3.87029 15.8873 3.60156 15.5008 3.60156Z" fill="white"/>
<path d="M18.6501 3.60156H19.9499C20.3089 3.60156 20.6 3.87029 20.6 4.20164V15.0016C20.6 15.333 20.3089 15.6017 19.9499 15.6017H18.6501C18.2911 15.6017 18 15.333 18 15.0016V4.20164C18 3.87029 18.2911 3.60156 18.6501 3.60156V3.60156Z" fill="white"/>
</svg>
