<svg width="16" height="16" viewBox="0 0 16 16" fill="none" xmlns="http://www.w3.org/2000/svg">
<path d="M4.39392 7.90568C4.47807 8.06168 4.6381 8.15893 4.81216 8.15893H7.52246V13.5105C7.52246 13.7807 7.73668 14 8.00063 14C8.26459 14 8.47881 13.7807 8.47881 13.5105V8.15893H11.1891C11.3638 8.15893 11.5238 8.06168 11.6074 7.90568C11.6921 7.74969 11.6864 7.5591 11.594 7.40832L8.40549 2.22845C8.31751 2.08616 8.16513 2 8.00063 2C7.83614 2 7.68376 2.08616 7.59578 2.22845L4.4073 7.40832C4.35885 7.48795 4.33398 7.57868 4.33398 7.6694C4.33398 7.75034 4.35439 7.83193 4.39392 7.90568Z" fill="white"/>
</svg>
