<svg width="8" height="12" viewBox="0 0 8 12" fill="none" xmlns="http://www.w3.org/2000/svg">
<path d="M7.27405 6.09432C7.18989 5.93832 7.02986 5.84107 6.85581 5.84107H4.14551L4.14551 0.48953C4.14551 0.219309 3.93129 0 3.66733 0C3.40338 0 3.18916 0.219309 3.18916 0.48953L3.18916 5.84107H0.478861C0.304167 5.84107 0.144137 5.93832 0.060616 6.09432C-0.0241804 6.25031 -0.0184422 6.4409 0.0740051 6.59168L3.26248 11.7716C3.35046 11.9138 3.50284 12 3.66733 12C3.83183 12 3.98421 11.9138 4.07219 11.7716L7.26066 6.59168C7.30912 6.51205 7.33398 6.42132 7.33398 6.3306C7.33398 6.24966 7.31358 6.16807 7.27405 6.09432Z" fill="white"/>
</svg>
