<svg width="41" height="42" viewBox="0 0 41 42" fill="none" xmlns="http://www.w3.org/2000/svg">
<g filter="url(#filter0_d_2680_16547)">
<path d="M20.5 32.5C28.5081 32.5 35 26.0081 35 18C35 9.99187 28.5081 3.5 20.5 3.5C12.4919 3.5 6 9.99187 6 18C6 26.0081 12.4919 32.5 20.5 32.5Z" fill="#3772FF"/>
</g>
<path d="M26.3442 21.7188C26.3442 22.0005 26.2324 22.2707 26.0333 22.4701C25.8341 22.6694 25.564 22.7815 25.2823 22.7817H15.7192C15.5797 22.7817 15.4414 22.7543 15.3125 22.7008C15.1835 22.6474 15.0663 22.5691 14.9676 22.4704C14.7682 22.2711 14.6562 22.0007 14.6562 21.7188V15.8748C14.6565 15.593 14.7686 15.3229 14.9679 15.1237C15.1673 14.9246 15.4375 14.8127 15.7192 14.8127H17.8443L18.9062 13.2188H22.0942L23.1562 14.8127H25.2812C25.5632 14.8127 25.8336 14.9247 26.0329 15.1241C26.2323 15.3234 26.3442 15.5938 26.3442 15.8758V21.7188Z" stroke="white" stroke-width="1.2" stroke-linecap="round" stroke-linejoin="round"/>
<path d="M22.625 18.5312C22.625 18.9515 22.5004 19.3624 22.2669 19.7118C22.0334 20.0613 21.7015 20.3337 21.3132 20.4945C20.9249 20.6553 20.4976 20.6974 20.0854 20.6154C19.6732 20.5334 19.2946 20.331 18.9974 20.0339C18.7002 19.7367 18.4978 19.358 18.4158 18.9458C18.3338 18.5336 18.3759 18.1063 18.5368 17.718C18.6976 17.3298 18.97 16.9979 19.3194 16.7644C19.6689 16.5309 20.0797 16.4062 20.5 16.4062C21.0636 16.4062 21.6041 16.6301 22.0026 17.0286C22.4011 17.4272 22.625 17.9677 22.625 18.5312Z" stroke="white" stroke-width="1.2" stroke-linecap="round" stroke-linejoin="round"/>
<defs>
<filter id="filter0_d_2680_16547" x="0" y="0.5" width="41" height="41" filterUnits="userSpaceOnUse" color-interpolation-filters="sRGB">
<feFlood flood-opacity="0" result="BackgroundImageFix"/>
<feColorMatrix in="SourceAlpha" type="matrix" values="0 0 0 0 0 0 0 0 0 0 0 0 0 0 0 0 0 0 127 0" result="hardAlpha"/>
<feOffset dy="3"/>
<feGaussianBlur stdDeviation="3"/>
<feColorMatrix type="matrix" values="0 0 0 0 0.337255 0 0 0 0 0.592157 0 0 0 0 1 0 0 0 0.22 0"/>
<feBlend mode="normal" in2="BackgroundImageFix" result="effect1_dropShadow_2680_16547"/>
<feBlend mode="normal" in="SourceGraphic" in2="effect1_dropShadow_2680_16547" result="shape"/>
</filter>
</defs>
</svg>
