<svg width="40" height="40" viewBox="0 0 40 40" fill="none" xmlns="http://www.w3.org/2000/svg">
<path fill-rule="evenodd" clip-rule="evenodd" d="M16.6216 0.85942C18.7283 -0.286473 21.2721 -0.286474 23.3787 0.85942L35.5915 7.50256C37.8671 8.74033 39.2836 11.1233 39.2836 13.7137V26.2863C39.2836 28.8767 37.8671 31.2597 35.5915 32.4974L23.3787 39.1406C21.2721 40.2865 18.7283 40.2865 16.6216 39.1406L4.40883 32.4974C2.1333 31.2597 0.716797 28.8767 0.716797 26.2863L0.716797 13.7137C0.716797 11.1233 2.1333 8.74033 4.40882 7.50256L16.6216 0.85942Z" fill="#3772FF"/>
<path fill-rule="evenodd" clip-rule="evenodd" d="M23.5759 27.0837C28.1783 27.0837 31.9092 23.3527 31.9092 18.7503C31.9092 14.148 28.1783 10.417 23.5759 10.417C20.0552 10.417 17.0445 12.6003 15.8237 15.6868C15.2333 15.4865 14.6007 15.3779 13.9426 15.3779C10.7102 15.3779 8.08984 17.9983 8.08984 21.2307C8.08984 24.4631 10.7102 27.0835 13.9426 27.0835L13.9425 27.0837H22.7012C22.7954 27.0837 22.8888 27.0766 22.9807 27.0627C23.1773 27.0766 23.3758 27.0837 23.5759 27.0837ZM18.287 25.1905C18.2805 25.1851 18.2739 25.1797 18.2674 25.1743C18.2548 25.1882 18.2421 25.202 18.2293 25.2157L18.287 25.1905Z" fill="white"/>
</svg>
