<svg width="40" height="40" viewBox="0 0 40 40" fill="none" xmlns="http://www.w3.org/2000/svg">
<rect width="40" height="40" rx="20" fill="#58BD7D"/>
<path fill-rule="evenodd" clip-rule="evenodd" d="M25.834 14.1667H14.1673C13.2468 14.1667 12.5007 14.9129 12.5007 15.8333V24.1667C12.5007 25.0871 13.2468 25.8333 14.1673 25.8333H25.834C26.7545 25.8333 27.5006 25.0871 27.5006 24.1667V15.8333C27.5006 14.9129 26.7545 14.1667 25.834 14.1667ZM14.1673 12.5C12.3264 12.5 10.834 13.9924 10.834 15.8333V24.1667C10.834 26.0076 12.3264 27.5 14.1673 27.5H25.834C27.6749 27.5 29.1673 26.0076 29.1673 24.1667V15.8333C29.1673 13.9924 27.6749 12.5 25.834 12.5H14.1673Z" fill="white"/>
<path fill-rule="evenodd" clip-rule="evenodd" d="M20.834 19.9997C20.834 17.6985 22.6995 15.833 25.0007 15.833H28.334C28.7942 15.833 29.1673 16.2061 29.1673 16.6663C29.1673 17.1266 28.7942 17.4997 28.334 17.4997H25.0007C23.6199 17.4997 22.5007 18.619 22.5007 19.9997C22.5007 21.3804 23.6199 22.4997 25.0007 22.4997H28.334C28.7942 22.4997 29.1673 22.8728 29.1673 23.333C29.1673 23.7932 28.7942 24.1663 28.334 24.1663H25.0007C22.6995 24.1663 20.834 22.3009 20.834 19.9997Z" fill="white"/>
<path d="M25.8327 20.0003C25.8327 20.4606 25.4596 20.8337 24.9993 20.8337C24.5391 20.8337 24.166 20.4606 24.166 20.0003C24.166 19.5401 24.5391 19.167 24.9993 19.167C25.4596 19.167 25.8327 19.5401 25.8327 20.0003Z" fill="white"/>
</svg>
