<svg width="170" height="52" viewBox="0 0 170 52" fill="none" xmlns="http://www.w3.org/2000/svg">
<path d="M69.792 37V14.6H78.176C79.968 14.6 81.4507 14.9093 82.624 15.528C83.8187 16.1467 84.704 16.9787 85.28 18.024C85.856 19.048 86.144 20.1893 86.144 21.448C86.144 22.6427 85.856 23.7627 85.28 24.808C84.7253 25.832 83.8507 26.664 82.656 27.304C81.4827 27.9227 79.968 28.232 78.112 28.232H74.112V37H69.792ZM81.408 37L76.8 27.144H81.472L86.336 37H81.408ZM74.112 25.096H77.888C79.2107 25.096 80.1813 24.776 80.8 24.136C81.4187 23.496 81.728 22.6533 81.728 21.608C81.728 20.5627 81.4187 19.7413 80.8 19.144C80.1813 18.5253 79.2107 18.216 77.888 18.216H74.112V25.096ZM95.4928 37.384C93.9568 37.384 92.5701 37.032 91.3328 36.328C90.0954 35.624 89.1141 34.6427 88.3888 33.384C87.6848 32.1253 87.3328 30.6853 87.3328 29.064C87.3328 27.4213 87.6954 25.9813 88.4208 24.744C89.1461 23.4853 90.1274 22.504 91.3648 21.8C92.6021 21.096 93.9781 20.744 95.4928 20.744C97.0288 20.744 98.4154 21.096 99.6528 21.8C100.89 22.504 101.861 23.4853 102.565 24.744C103.29 25.9813 103.653 27.4213 103.653 29.064C103.653 30.7067 103.29 32.1573 102.565 33.416C101.839 34.6533 100.858 35.624 99.6208 36.328C98.4048 37.032 97.0288 37.384 95.4928 37.384ZM95.4928 33.704C96.1754 33.704 96.7941 33.5333 97.3488 33.192C97.9248 32.8507 98.3834 32.3387 98.7248 31.656C99.0874 30.952 99.2688 30.088 99.2688 29.064C99.2688 28.04 99.0874 27.1867 98.7248 26.504C98.3834 25.8 97.9354 25.2773 97.3808 24.936C96.8261 24.5947 96.2074 24.424 95.5248 24.424C94.8421 24.424 94.2128 24.5947 93.6368 24.936C93.0608 25.2773 92.6021 25.8 92.2608 26.504C91.9194 27.1867 91.7488 28.04 91.7488 29.064C91.7488 30.088 91.9194 30.952 92.2608 31.656C92.6021 32.3387 93.0501 32.8507 93.6048 33.192C94.1808 33.5333 94.8101 33.704 95.4928 33.704ZM114.052 37.384C112.388 37.384 110.927 37.032 109.668 36.328C108.431 35.6027 107.46 34.6213 106.756 33.384C106.052 32.1253 105.7 30.6853 105.7 29.064C105.7 27.4427 106.052 26.0133 106.756 24.776C107.482 23.5173 108.474 22.536 109.732 21.832C110.991 21.1067 112.431 20.744 114.052 20.744C116.1 20.744 117.828 21.2773 119.236 22.344C120.644 23.4107 121.53 24.8827 121.892 26.76H117.316C117.146 26.0133 116.762 25.4373 116.164 25.032C115.567 24.6053 114.852 24.392 114.02 24.392C113.274 24.392 112.602 24.584 112.004 24.968C111.428 25.3307 110.97 25.864 110.628 26.568C110.287 27.2507 110.116 28.0827 110.116 29.064C110.116 29.7893 110.212 30.44 110.404 31.016C110.596 31.5707 110.863 32.0507 111.204 32.456C111.567 32.8613 111.983 33.1707 112.452 33.384C112.922 33.5973 113.444 33.704 114.02 33.704C114.575 33.704 115.076 33.6187 115.524 33.448C115.972 33.256 116.356 32.9893 116.676 32.648C116.996 32.2853 117.21 31.8587 117.316 31.368H121.892C121.53 33.2027 120.644 34.664 119.236 35.752C117.828 36.84 116.1 37.384 114.052 37.384ZM135.111 37L128.199 28.264L134.311 21.128H139.431L131.527 30.056L131.495 26.632L140.487 37H135.111ZM124.519 37V14.28H128.839V37H124.519ZM148.63 37.384C147.008 37.384 145.568 37.0427 144.31 36.36C143.072 35.6773 142.102 34.7173 141.398 33.48C140.694 32.2427 140.342 30.824 140.342 29.224C140.342 27.56 140.683 26.0987 141.366 24.84C142.07 23.56 143.04 22.5573 144.278 21.832C145.536 21.1067 146.998 20.744 148.662 20.744C150.24 20.744 151.627 21.0853 152.822 21.768C154.038 22.4507 154.976 23.3893 155.638 24.584C156.32 25.7573 156.662 27.0907 156.662 28.584C156.662 28.7973 156.662 29.0427 156.662 29.32C156.662 29.576 156.64 29.8427 156.598 30.12H143.414V27.464H152.278C152.214 26.4827 151.84 25.6933 151.158 25.096C150.496 24.4987 149.664 24.2 148.662 24.2C147.915 24.2 147.232 24.3707 146.614 24.712C145.995 25.032 145.504 25.5227 145.142 26.184C144.779 26.8453 144.598 27.688 144.598 28.712V29.64C144.598 30.5147 144.768 31.272 145.11 31.912C145.451 32.5307 145.92 33.0107 146.518 33.352C147.136 33.6933 147.83 33.864 148.598 33.864C149.387 33.864 150.048 33.6933 150.582 33.352C151.115 32.9893 151.52 32.5307 151.798 31.976H156.214C155.894 32.9787 155.382 33.896 154.678 34.728C153.974 35.5387 153.11 36.1893 152.086 36.68C151.062 37.1493 149.91 37.384 148.63 37.384ZM166.046 37C164.915 37 163.923 36.8293 163.07 36.488C162.238 36.1253 161.587 35.5387 161.118 34.728C160.649 33.896 160.414 32.7653 160.414 31.336V24.648H157.694V21.128H160.414L160.894 16.808H164.734V21.128H168.958V24.648H164.734V31.4C164.734 32.1467 164.894 32.6693 165.214 32.968C165.534 33.2453 166.078 33.384 166.846 33.384H168.862V37H166.046Z" fill="#23262F"/>
<path d="M27.5592 3.39793C31.1141 3.39793 34.669 3.40702 38.2229 3.39066C38.9827 3.38703 39.5121 3.65696 39.8977 4.34407C41.8198 7.77143 43.765 11.1852 45.704 14.6025C47.361 17.5227 49.0259 20.4384 50.6676 23.3668C50.7917 23.5877 50.8685 23.9503 50.7721 24.1493C50.6962 24.3048 50.3195 24.3647 50.0749 24.3693C48.8706 24.3893 47.6645 24.3475 46.4611 24.3866C45.6541 24.4129 45.1131 24.0975 44.7158 23.3886C43.0009 20.3275 41.2672 17.2773 39.5388 14.2244C38.6488 12.6521 37.756 11.0825 36.8633 9.51193C36.508 8.88571 35.9643 8.63668 35.2653 8.63668C30.1196 8.64214 24.973 8.62214 19.8273 8.65304C18.8971 8.6585 18.2838 8.34948 17.8526 7.50423C17.3187 6.45902 16.6938 5.46199 16.1358 4.4286C16.0198 4.2141 15.8993 3.84782 15.9966 3.70513C16.1224 3.52154 16.4653 3.4152 16.717 3.41066C18.1588 3.3843 19.6023 3.39793 21.045 3.39793C23.2161 3.39793 25.3872 3.39793 27.5592 3.39793Z" fill="#3772FF"/>
<path d="M44.8394 28.4298C45.1653 27.8608 45.6777 27.5873 46.3205 27.5836C47.5846 27.5782 48.8496 27.5754 50.1146 27.5818C50.8448 27.5854 51.0555 27.9572 50.6975 28.5925C49.9289 29.9567 49.1478 31.3145 48.3925 32.686L43.8878 40.6196C42.5585 42.9627 41.2194 45.3003 39.9044 47.6516C39.5446 48.2959 39.0643 48.6095 38.3233 48.6086C31.0931 48.5986 23.8628 48.605 16.6326 48.6059C15.9461 48.6059 15.7398 48.2505 16.0764 47.6561C16.7147 46.5291 17.353 45.4021 17.9869 44.2724C18.335 43.6516 18.8376 43.358 19.5563 43.3589C24.7332 43.3717 29.9111 43.3571 35.0881 43.3753C35.9844 43.378 36.5968 43.0581 37.0316 42.2319C37.8109 40.7532 38.6278 39.2917 39.508 37.8739L44.8394 28.4298Z" fill="#3772FF"/>
<path d="M3.44587 30.5014C2.75668 29.3007 2.08891 28.0865 1.3899 26.8922C1.03102 26.2787 1.05066 25.7061 1.39705 25.0981C3.0977 22.117 4.78587 19.1286 6.48206 16.1439C8.41662 12.7392 10.3521 9.33549 12.2902 5.93357C12.6018 5.38552 13.0151 5.38733 13.3284 5.93539C13.9926 7.09875 14.6533 8.26392 15.3121 9.43092C15.6281 9.99169 15.6201 10.5561 15.3041 11.1142C13.8043 13.7599 12.3018 16.4047 10.802 19.0495C9.65841 21.0663 8.51839 23.0849 7.37301 25.0999C7.01145 25.737 7.03377 26.3378 7.40604 26.9786L13.8052 38.2368C14.2801 39.0748 14.7416 39.9218 15.2335 40.7498C15.6371 41.4306 15.6308 42.0704 15.2228 42.753C14.5747 43.8391 13.9703 44.9515 13.3392 46.0476C12.9972 46.643 12.625 46.6584 12.2902 46.074C11.0618 43.9309 9.84678 41.7805 8.62641 39.6337L3.44587 30.5014Z" fill="#3772FF"/>
<path d="M10.7859 26.8243C10.4637 26.259 10.4672 25.7364 10.7966 25.1611C12.874 21.5274 14.9345 17.8837 16.9994 14.2427C17.3547 13.6174 17.6404 13.6111 18.0028 14.2282L24.2769 25.2638C24.5742 25.7809 24.5421 26.2708 24.2609 26.7652C22.1879 30.4198 20.1159 34.0753 18.0296 37.7217C17.91 37.9316 17.668 38.2007 17.4814 38.2025C17.2895 38.2043 17.1779 37.9825 16.9994 37.6617L10.7859 26.8243Z" fill="#3772FF"/>
<path d="M34.9699 39.6452C34.6994 40.1124 34.2566 40.3133 33.7273 40.3133C29.5618 40.3142 25.3963 40.316 21.2299 40.3124C20.5978 40.3114 20.4157 39.9942 20.7264 39.4471C22.8136 35.7653 24.9088 32.088 26.9934 28.4043C27.3165 27.8335 27.7736 27.5772 28.4155 27.5781C32.4917 27.5854 36.5688 27.5809 40.645 27.5836C40.7923 27.5836 40.945 27.589 41.0869 27.6254C41.4396 27.7154 41.5815 27.9962 41.403 28.3152C40.6754 29.6149 35.7904 38.2301 34.9699 39.6452Z" fill="#3772FF"/>
<path d="M20.651 12.4324C20.4617 12.0434 20.6117 11.7817 21.0366 11.7462C21.1107 11.7399 21.1857 11.7426 21.2598 11.7426C25.3949 11.7426 29.5292 11.7535 33.6643 11.7344C34.3401 11.7308 34.7722 11.9816 35.1052 12.5742C37.113 16.1443 39.1448 19.6998 41.1535 23.2689C41.3026 23.5343 41.4677 23.9106 41.3901 24.1605C41.2669 24.5586 40.8258 24.3696 40.5179 24.3696C36.4131 24.3787 32.3074 24.3759 28.2026 24.3832C27.6723 24.3841 27.3 24.1569 27.0385 23.6952C26.1618 22.1483 20.8911 12.9259 20.651 12.4324Z" fill="#3772FF"/>
</svg>
