<svg width="25" height="24" viewBox="0 0 25 24" fill="none" xmlns="http://www.w3.org/2000/svg">
<path d="M17.9023 12.1415C17.7761 11.9075 17.536 11.7616 17.2749 11.7616L13.2095 11.7616L13.2095 3.73429C13.2095 3.32896 12.8881 3 12.4922 3C12.0963 3 11.775 3.32896 11.775 3.73429L11.775 11.7616L7.7095 11.7616C7.44746 11.7616 7.20742 11.9075 7.08214 12.1415C6.95494 12.3755 6.96355 12.6614 7.10222 12.8875L11.8849 20.6573C12.0169 20.8708 12.2455 21 12.4922 21C12.739 21 12.9675 20.8708 13.0995 20.6573L17.8822 12.8875C17.9549 12.7681 17.9922 12.632 17.9922 12.4959C17.9922 12.3745 17.9616 12.2521 17.9023 12.1415Z" fill="#777E90"/>
</svg>
