<svg width="25" height="24" viewBox="0 0 25 24" fill="none" xmlns="http://www.w3.org/2000/svg">
<path d="M7.57427 11.8585C7.70051 12.0925 7.94055 12.2384 8.20164 12.2384H12.2671V20.2657C12.2671 20.671 12.5884 21 12.9843 21C13.3803 21 13.7016 20.671 13.7016 20.2657V12.2384H17.7671C18.0291 12.2384 18.2691 12.0925 18.3944 11.8585C18.5216 11.6245 18.513 11.3386 18.3743 11.1125L13.5916 3.34267C13.4597 3.12924 13.2311 3 12.9843 3C12.7376 3 12.509 3.12924 12.3771 3.34267L7.59436 11.1125C7.52167 11.2319 7.48438 11.368 7.48438 11.5041C7.48438 11.6255 7.51498 11.7479 7.57427 11.8585Z" fill="#777E90"/>
</svg>
