<svg width="25" height="24" viewBox="0 0 25 24" fill="none" xmlns="http://www.w3.org/2000/svg">
<path fill-rule="evenodd" clip-rule="evenodd" d="M12.4805 2C17.9945 2 22.4805 6.486 22.4805 12C22.4805 17.514 17.9945 22 12.4805 22C6.96647 22 2.48047 17.514 2.48047 12C2.48047 6.486 6.96647 2 12.4805 2ZM12.4805 3.5C7.79347 3.5 3.98047 7.313 3.98047 12C3.98047 16.687 7.79347 20.5 12.4805 20.5C17.1675 20.5 20.9805 16.687 20.9805 12C20.9805 7.313 17.1675 3.5 12.4805 3.5ZM12.1417 7.0954C12.5567 7.0954 12.8917 7.4314 12.8917 7.8454V12.2674L16.2967 14.2974C16.6517 14.5104 16.7687 14.9704 16.5567 15.3264C16.4157 15.5614 16.1667 15.6924 15.9117 15.6924C15.7807 15.6924 15.6487 15.6584 15.5277 15.5874L11.7577 13.3384C11.5317 13.2024 11.3917 12.9574 11.3917 12.6934V7.8454C11.3917 7.4314 11.7277 7.0954 12.1417 7.0954Z" fill="#777E90"/>
</svg>
