<svg width="16" height="16" viewBox="0 0 16 16" fill="none" xmlns="http://www.w3.org/2000/svg">
<path d="M14.0089 9.97241C13.7855 10.6462 13.4491 11.2807 13.0107 11.8477C12.277 12.7966 11.2883 13.5169 10.1602 13.9244C9.03209 14.3319 7.81126 14.4097 6.64056 14.1486C5.46987 13.8876 4.39772 13.2986 3.54959 12.4504C2.70145 11.6023 2.1124 10.5301 1.85136 9.35944C1.59033 8.18874 1.6681 6.96791 2.07558 5.8398C2.48306 4.71169 3.2034 3.72296 4.1523 2.9893C4.71928 2.55094 5.35384 2.21447 6.02759 1.99109C5.69163 2.84583 5.54862 3.77147 5.61793 4.7009C5.72758 6.17128 6.36134 7.55346 7.40394 8.59606C8.44654 9.63866 9.82873 10.2724 11.2991 10.3821C12.2285 10.4514 13.1542 10.3084 14.0089 9.97241Z" stroke="white" stroke-width="1.4" stroke-linecap="round" stroke-linejoin="round"/>
</svg>
