<svg width="24" height="24" viewBox="0 0 24 24" fill="none" xmlns="http://www.w3.org/2000/svg">
<g clip-path="url(#clip0_2680_55077)">
<path d="M24 12C24 17.8761 19.7765 22.7657 14.1992 23.7987C13.4865 23.931 12.7514 24 12 24C11.1742 24 10.368 23.9167 9.58922 23.7576C4.11722 22.6418 0 17.8016 0 12C0 8.80116 1.25194 5.89373 3.29288 3.74302C3.41091 3.61814 3.53189 3.49617 3.65531 3.37664C5.81484 1.2862 8.75705 0 12 0C15.243 0 18.1852 1.2862 20.3446 3.37664C20.3956 3.42563 20.446 3.47559 20.496 3.52552C22.6614 5.69583 24 8.69194 24 12Z" fill="#1BA27A"/>
<path d="M14.1975 10.2111V7.53683H20.4944V3.37695H3.29123V7.53678H9.58758V10.2214C4.50155 10.4814 0.691406 11.5472 0.691406 12.8227C0.691406 14.0981 4.50155 15.1639 9.58758 15.424V23.7579C10.3664 23.9171 11.1726 24.0003 11.9984 24.0003C12.7497 24.0003 13.4849 23.9313 14.1975 23.799V15.4343C19.3894 15.1933 23.3053 14.1157 23.3053 12.8227C23.3053 11.5296 19.3894 10.4521 14.1975 10.2111ZM11.9984 14.4665C6.32503 14.4665 1.72589 13.6118 1.72589 12.5572C1.72589 11.657 5.07755 10.9022 9.58762 10.7009V13.7587C10.3522 13.8689 11.1226 13.9242 11.8926 13.9242C12.663 13.9242 13.4335 13.8689 14.1976 13.7587V10.6916C18.8139 10.8792 22.2704 11.6427 22.2704 12.5572C22.2704 13.6117 17.6712 14.4665 11.9984 14.4665Z" fill="#F0EFEB"/>
</g>
<defs>
<clipPath id="clip0_2680_55077">
<rect width="24" height="24" fill="white"/>
</clipPath>
</defs>
</svg>
