<svg width="174" height="52" viewBox="0 0 174 52" fill="none" xmlns="http://www.w3.org/2000/svg">
<path d="M70.176 37V14.6H78.4C80.192 14.6 81.664 14.9093 82.816 15.528C83.9893 16.1253 84.864 16.9467 85.44 17.992C86.016 19.016 86.304 20.1573 86.304 21.416C86.304 22.7813 85.9413 24.0293 85.216 25.16C84.512 26.2907 83.4027 27.112 81.888 27.624L86.528 37H81.824L77.664 28.168H74.272V37H70.176ZM74.272 25.16H78.144C79.5093 25.16 80.512 24.8293 81.152 24.168C81.792 23.5067 82.112 22.632 82.112 21.544C82.112 20.4773 81.792 19.624 81.152 18.984C80.5333 18.344 79.52 18.024 78.112 18.024H74.272V25.16ZM96.3448 37.384C94.8088 37.384 93.4221 37.032 92.1848 36.328C90.9688 35.624 89.9981 34.6533 89.2728 33.416C88.5688 32.1573 88.2168 30.7067 88.2168 29.064C88.2168 27.4213 88.5794 25.9813 89.3048 24.744C90.0301 23.4853 91.0008 22.504 92.2168 21.8C93.4541 21.096 94.8408 20.744 96.3768 20.744C97.8914 20.744 99.2568 21.096 100.473 21.8C101.71 22.504 102.681 23.4853 103.385 24.744C104.11 25.9813 104.473 27.4213 104.473 29.064C104.473 30.7067 104.11 32.1573 103.385 33.416C102.681 34.6533 101.71 35.624 100.473 36.328C99.2354 37.032 97.8594 37.384 96.3448 37.384ZM96.3448 33.832C97.4114 33.832 98.3394 33.4373 99.1288 32.648C99.9181 31.8373 100.313 30.6427 100.313 29.064C100.313 27.4853 99.9181 26.3013 99.1288 25.512C98.3394 24.7013 97.4221 24.296 96.3768 24.296C95.2888 24.296 94.3501 24.7013 93.5608 25.512C92.7928 26.3013 92.4088 27.4853 92.4088 29.064C92.4088 30.6427 92.7928 31.8373 93.5608 32.648C94.3501 33.4373 95.2781 33.832 96.3448 33.832ZM115.591 37.384C113.97 37.384 112.54 37.032 111.303 36.328C110.066 35.624 109.084 34.6427 108.359 33.384C107.655 32.1253 107.303 30.6853 107.303 29.064C107.303 27.4427 107.655 26.0027 108.359 24.744C109.084 23.4853 110.066 22.504 111.303 21.8C112.54 21.096 113.97 20.744 115.591 20.744C117.618 20.744 119.324 21.2773 120.711 22.344C122.098 23.3893 122.983 24.84 123.367 26.696H119.047C118.834 25.928 118.407 25.3307 117.767 24.904C117.148 24.456 116.412 24.232 115.559 24.232C114.428 24.232 113.468 24.6587 112.679 25.512C111.89 26.3653 111.495 27.5493 111.495 29.064C111.495 30.5787 111.89 31.7627 112.679 32.616C113.468 33.4693 114.428 33.896 115.559 33.896C116.412 33.896 117.148 33.6827 117.767 33.256C118.407 32.8293 118.834 32.2213 119.047 31.432H123.367C122.983 33.224 122.098 34.664 120.711 35.752C119.324 36.84 117.618 37.384 115.591 37.384ZM126.683 37V13.96H130.779V27.56L136.411 21.128H141.275L134.779 28.36L142.331 37H137.211L130.779 29.032V37H126.683ZM150.95 37.384C149.35 37.384 147.931 37.0427 146.694 36.36C145.456 35.6773 144.486 34.7173 143.782 33.48C143.078 32.2427 142.726 30.8133 142.726 29.192C142.726 27.5493 143.067 26.088 143.75 24.808C144.454 23.528 145.414 22.536 146.63 21.832C147.867 21.1067 149.318 20.744 150.982 20.744C152.539 20.744 153.915 21.0853 155.11 21.768C156.304 22.4507 157.232 23.3893 157.894 24.584C158.576 25.7573 158.918 27.0693 158.918 28.52C158.918 28.7547 158.907 29 158.886 29.256C158.886 29.512 158.875 29.7787 158.854 30.056H146.79C146.875 31.2933 147.302 32.264 148.07 32.968C148.859 33.672 149.808 34.024 150.918 34.024C151.75 34.024 152.443 33.8427 152.998 33.48C153.574 33.096 154 32.6053 154.278 32.008H158.438C158.139 33.0107 157.638 33.928 156.934 34.76C156.251 35.5707 155.398 36.2107 154.374 36.68C153.371 37.1493 152.23 37.384 150.95 37.384ZM150.982 24.072C149.979 24.072 149.094 24.36 148.326 24.936C147.558 25.4907 147.067 26.344 146.854 27.496H154.758C154.694 26.4507 154.31 25.6187 153.606 25C152.902 24.3813 152.027 24.072 150.982 24.072ZM168.833 37C167.169 37 165.836 36.5947 164.833 35.784C163.831 34.9733 163.329 33.5333 163.329 31.464V24.552H160.609V21.128H163.329L163.809 16.872H167.425V21.128H171.713V24.552H167.425V31.496C167.425 32.264 167.585 32.7973 167.905 33.096C168.247 33.3733 168.823 33.512 169.633 33.512H171.617V37H168.833Z" fill="#23262F"/>
<path d="M27.5612 3.3986C31.1161 3.3986 34.6709 3.40769 38.2249 3.39133C38.9846 3.3877 39.514 3.65763 39.8997 4.34474C41.8217 7.77211 43.767 11.1858 45.706 14.6032C47.3629 17.5234 49.0279 20.4391 50.6696 23.3675C50.7937 23.5883 50.8705 23.951 50.774 24.15C50.6982 24.3054 50.3214 24.3654 50.0768 24.37C48.8725 24.39 47.6664 24.3482 46.463 24.3872C45.656 24.4136 45.115 24.0982 44.7177 23.3893C43.0028 20.3282 41.2691 17.278 39.5408 14.2251C38.6507 12.6528 37.758 11.0831 36.8653 9.5126C36.51 8.88639 35.9663 8.63735 35.2673 8.63735C30.1216 8.64281 24.975 8.62281 19.8292 8.65371C18.899 8.65917 18.2857 8.35015 17.8545 7.5049C17.3207 6.45969 16.6958 5.46266 16.1378 4.42927C16.0217 4.21477 15.9012 3.8485 15.9985 3.7058C16.1244 3.52221 16.4672 3.41587 16.719 3.41133C18.1607 3.38497 19.6043 3.3986 21.0469 3.3986C23.2181 3.3986 25.3892 3.3986 27.5612 3.3986Z" fill="#3772FF"/>
<path d="M44.8409 28.429C45.1667 27.86 45.6792 27.5865 46.3219 27.5828C47.586 27.5774 48.851 27.5746 50.1161 27.581C50.8463 27.5846 51.057 27.9564 50.699 28.5917C49.9304 29.9559 49.1492 31.3138 48.394 32.6852L43.8892 40.6188C42.5599 42.9619 41.2208 45.2995 39.9058 47.6508C39.5461 48.2951 39.0658 48.6087 38.3248 48.6078C31.0946 48.5978 23.8643 48.6042 16.634 48.6051C15.9475 48.6051 15.7413 48.2497 16.0779 47.6553C16.7162 46.5283 17.3545 45.4013 17.9883 44.2716C18.3365 43.6508 18.8391 43.3572 19.5577 43.3581C24.7347 43.3709 29.9126 43.3563 35.0895 43.3745C35.9858 43.3772 36.5983 43.0573 37.033 42.2311C37.8124 40.7524 38.6292 39.2909 39.5095 37.8731L44.8409 28.429Z" fill="#3772FF"/>
<path d="M3.44734 30.5021C2.75814 29.3015 2.09038 28.0873 1.39137 26.893C1.03249 26.2795 1.05213 25.7069 1.39851 25.0989C3.09917 22.1178 4.78733 19.1294 6.48353 16.1447C8.41808 12.74 10.3535 9.33628 12.2917 5.93436C12.6032 5.38631 13.0166 5.38813 13.3299 5.93618C13.9941 7.09954 14.6547 8.26472 15.3136 9.43171C15.6296 9.99249 15.6216 10.5569 15.3055 11.1149C13.8057 13.7607 12.3033 16.4055 10.8035 19.0503C9.65987 21.0671 8.51985 23.0857 7.37448 25.1007C7.01292 25.7378 7.03524 26.3386 7.40751 26.9793L13.8066 38.2376C14.2816 39.0756 14.7431 39.9226 15.235 40.7506C15.6385 41.4314 15.6323 42.0712 15.2243 42.7538C14.5762 43.8399 13.9718 44.9523 13.3406 46.0484C12.9987 46.6438 12.6264 46.6592 12.2917 46.0748C11.0633 43.9317 9.84824 41.7813 8.62787 39.6345L3.44734 30.5021Z" fill="#3772FF"/>
<path d="M10.7894 26.8239C10.4671 26.2586 10.4706 25.736 10.8001 25.1607C12.8775 21.527 14.9379 17.8833 17.0028 14.2424C17.3581 13.6171 17.6438 13.6107 18.0062 14.2278L24.2804 25.2634C24.5776 25.7805 24.5455 26.2704 24.2643 26.7648C22.1914 30.4194 20.1193 34.0749 18.033 37.7213C17.9134 37.9313 17.6714 38.2003 17.4849 38.2021C17.2929 38.2039 17.1813 37.9822 17.0028 37.6613L10.7894 26.8239Z" fill="#3772FF"/>
<path d="M34.9724 39.6445C34.7019 40.1116 34.2591 40.3125 33.7297 40.3125C29.5642 40.3134 25.3987 40.3152 21.2323 40.3116C20.6003 40.3107 20.4182 39.9935 20.7288 39.4463C22.816 35.7645 24.9113 32.0872 26.9958 28.4035C27.319 27.8328 27.7761 27.5765 28.4179 27.5774C32.4942 27.5846 36.5713 27.5801 40.6475 27.5828C40.7948 27.5828 40.9474 27.5883 41.0894 27.6246C41.442 27.7146 41.584 27.9954 41.4054 28.3145C40.6778 29.6142 35.7928 38.2294 34.9724 39.6445Z" fill="#3772FF"/>
<path d="M20.6519 12.4337C20.4627 12.0447 20.6127 11.783 21.0376 11.7475C21.1117 11.7411 21.1867 11.7439 21.2608 11.7439C25.3959 11.7439 29.5302 11.7548 33.6653 11.7357C34.3411 11.7321 34.7732 11.9829 35.1062 12.5755C37.1139 16.1456 39.1458 19.7011 41.1545 23.2702C41.3035 23.5356 41.4687 23.9119 41.391 24.1618C41.2678 24.5599 40.8268 24.3709 40.5188 24.3709C36.414 24.3799 32.3084 24.3772 28.2036 24.3845C27.6733 24.3854 27.301 24.1582 27.0394 23.6965C26.1628 22.1496 20.8921 12.9272 20.6519 12.4337Z" fill="#3772FF"/>
</svg>
