<svg width="12" height="18" viewBox="0 0 12 18" fill="none" xmlns="http://www.w3.org/2000/svg">
<path d="M0.574272 8.85853C0.70051 9.09252 0.940554 9.2384 1.20164 9.2384H5.26709V17.2657C5.26709 17.671 5.58842 18 5.98435 18C6.38028 18 6.70161 17.671 6.70161 17.2657V9.2384H10.7671C11.0291 9.2384 11.2691 9.09252 11.3944 8.85853C11.5216 8.62453 11.513 8.33865 11.3743 8.11248L6.59163 0.342671C6.45966 0.129236 6.23109 0 5.98435 0C5.73761 0 5.50904 0.129236 5.37707 0.342671L0.594355 8.11248C0.521673 8.23193 0.484375 8.36802 0.484375 8.50411C0.484375 8.62551 0.514978 8.74789 0.574272 8.85853Z" fill="#777E90"/>
</svg>
