<svg width="24" height="24" viewBox="0 0 24 24" fill="none" xmlns="http://www.w3.org/2000/svg">
<path d="M12 22.9999C18.0655 22.9999 23 18.0654 23 11.9999C22.396 -2.59311 1.602 -2.58911 1 11.9999C1 18.0654 5.9345 22.9999 12 22.9999Z" fill="#EED671"/>
<path d="M11.6448 10.1466C9.45075 12.4166 9.45275 11.5851 11.6448 13.8531C11.8403 14.0486 12.1563 14.0486 12.3518 13.8531L13.8518 12.3536C14.0453 12.1676 14.0458 11.8326 13.8518 11.6466L12.3518 10.1466C12.1563 9.95113 11.8403 9.95113 11.6448 10.1466Z" fill="#F7F7F7"/>
<path d="M8.64663 11.3536C8.83413 11.5411 9.16613 11.5411 9.35363 11.3536L12.0001 8.70713L14.6466 11.3536C14.8326 11.5471 15.1676 11.5476 15.3536 11.3536L16.8536 9.85363C17.0491 9.65813 17.0491 9.34213 16.8536 9.14663L12.3536 4.64663C12.1581 4.45112 11.8421 4.45112 11.6466 4.64663L7.14663 9.14663C6.95112 9.34213 6.95112 9.65813 7.14663 9.85363L8.64663 11.3536Z" fill="#F7F7F7"/>
<path d="M19.3523 11.6461C17.0823 9.45314 17.9143 9.45464 15.6453 11.6461C15.4518 11.8321 15.4513 12.1671 15.6453 12.3531L17.1453 13.8531C17.3408 14.0486 17.6568 14.0486 17.8523 13.8531L19.3523 12.3531C19.5458 12.1671 19.5463 11.8321 19.3523 11.6461Z" fill="#F7F7F7"/>
<path d="M4.64531 11.6461C6.91531 9.45314 6.08331 9.45464 8.35231 11.6461C8.54581 11.8321 8.54631 12.1671 8.35231 12.3531L6.85231 13.8531C6.65681 14.0486 6.34081 14.0486 6.14531 13.8531L4.64531 12.3531C4.45181 12.1671 4.45131 11.8321 4.64531 11.6461Z" fill="#F7F7F7"/>
<path d="M15.3536 12.6463C15.1661 12.4588 14.8341 12.4588 14.6466 12.6463L12.0001 15.2928L9.35363 12.6463C9.16763 12.4528 8.83263 12.4523 8.64663 12.6463L7.14663 14.1463C6.95112 14.3418 6.95112 14.6578 7.14663 14.8533L11.6466 19.3533C11.8421 19.5488 12.1581 19.5488 12.3536 19.3533L16.8536 14.8533C17.0491 14.6578 17.0491 14.3418 16.8536 14.1463L15.3536 12.6463Z" fill="#F7F7F7"/>
</svg>
