<svg width="24" height="24" viewBox="0 0 24 24" fill="none" xmlns="http://www.w3.org/2000/svg">
<g clip-path="url(#clip0_2680_55060)">
<path d="M12.0008 23.1998C18.1864 23.1998 23.2008 18.1854 23.2008 11.9998C23.2008 5.81422 18.1864 0.799805 12.0008 0.799805C5.81519 0.799805 0.800781 5.81422 0.800781 11.9998C0.800781 18.1854 5.81519 23.1998 12.0008 23.1998Z" fill="#262964"/>
<path d="M12.0024 21.5994C17.3043 21.5994 21.6024 17.3014 21.6024 11.9994C21.6024 6.69748 17.3043 2.39941 12.0024 2.39941C6.70041 2.39941 2.40234 6.69748 2.40234 11.9994C2.40234 17.3014 6.70041 21.5994 12.0024 21.5994Z" fill="#555ABE"/>
<path d="M15.9174 12.8828C15.9004 12.8817 12.0521 15.1622 12.0017 15.1817C11.9904 15.1752 8.10831 12.8776 8.08984 12.8799C8.09924 12.8937 11.9991 18.4 12.0017 18.4C12.0044 18.4 15.9174 12.8828 15.9174 12.8828Z" fill="white"/>
<path d="M12.0026 5.59961L8.10156 12.1241L12.0026 14.4349L15.9038 12.1241L12.0026 5.59961Z" fill="white"/>
</g>
<defs>
<clipPath id="clip0_2680_55060">
<rect width="24" height="24" fill="white"/>
</clipPath>
</defs>
</svg>
