<svg width="79" height="19" viewBox="0 0 79 19" fill="none" xmlns="http://www.w3.org/2000/svg">
<path d="M0.608 18V1.2H6.896C8.24 1.2 9.352 1.432 10.232 1.896C11.128 2.36 11.792 2.984 12.224 3.768C12.656 4.536 12.872 5.392 12.872 6.336C12.872 7.232 12.656 8.072 12.224 8.856C11.808 9.624 11.152 10.248 10.256 10.728C9.376 11.192 8.24 11.424 6.848 11.424H3.848V18H0.608ZM9.32 18L5.864 10.608H9.368L13.016 18H9.32ZM3.848 9.072H6.68C7.672 9.072 8.4 8.832 8.864 8.352C9.328 7.872 9.56 7.24 9.56 6.456C9.56 5.672 9.328 5.056 8.864 4.608C8.4 4.144 7.672 3.912 6.68 3.912H3.848V9.072ZM20.6158 18.288C19.4798 18.288 18.4478 18.024 17.5198 17.496C16.6078 16.968 15.8798 16.232 15.3358 15.288C14.7918 14.344 14.5198 13.264 14.5198 12.048C14.5198 10.816 14.7918 9.736 15.3358 8.808C15.8798 7.864 16.6158 7.128 17.5438 6.6C18.4718 6.072 19.5038 5.808 20.6398 5.808C21.7918 5.808 22.8318 6.072 23.7598 6.6C24.6878 7.128 25.4158 7.864 25.9438 8.808C26.4878 9.736 26.7598 10.816 26.7598 12.048C26.7598 13.28 26.4878 14.368 25.9438 15.312C25.3998 16.24 24.6638 16.968 23.7358 17.496C22.8238 18.024 21.7838 18.288 20.6158 18.288ZM20.6398 15.48C21.1518 15.48 21.6158 15.352 22.0318 15.096C22.4638 14.84 22.8078 14.456 23.0638 13.944C23.3358 13.432 23.4718 12.8 23.4718 12.048C23.4718 11.28 23.3438 10.648 23.0878 10.152C22.8318 9.64 22.4878 9.256 22.0558 9C21.6398 8.744 21.1758 8.616 20.6638 8.616C20.1518 8.616 19.6798 8.744 19.2478 9C18.8158 9.256 18.4718 9.64 18.2158 10.152C17.9598 10.648 17.8318 11.28 17.8318 12.048C17.8318 12.8 17.9598 13.432 18.2158 13.944C18.4718 14.456 18.8078 14.84 19.2238 15.096C19.6558 15.352 20.1278 15.48 20.6398 15.48ZM35.3853 18.288C34.1693 18.288 33.0893 18.024 32.1453 17.496C31.2013 16.952 30.4573 16.216 29.9133 15.288C29.3853 14.344 29.1213 13.264 29.1213 12.048C29.1213 10.832 29.3853 9.76 29.9133 8.832C30.4573 7.888 31.2013 7.152 32.1453 6.624C33.0893 6.08 34.1693 5.808 35.3853 5.808C36.9213 5.808 38.2173 6.208 39.2733 7.008C40.3293 7.808 40.9933 8.912 41.2653 10.32H37.8573C37.7133 9.776 37.4173 9.352 36.9693 9.048C36.5213 8.728 35.9853 8.568 35.3613 8.568C34.8173 8.568 34.3213 8.712 33.8733 9C33.4253 9.272 33.0733 9.672 32.8173 10.2C32.5613 10.712 32.4333 11.328 32.4333 12.048C32.4333 12.592 32.5053 13.08 32.6493 13.512C32.8093 13.928 33.0173 14.288 33.2733 14.592C33.5453 14.896 33.8573 15.128 34.2093 15.288C34.5613 15.448 34.9453 15.528 35.3613 15.528C35.7773 15.528 36.1533 15.464 36.4893 15.336C36.8253 15.192 37.1133 14.992 37.3533 14.736C37.5933 14.464 37.7613 14.144 37.8573 13.776H41.2653C40.9933 15.152 40.3293 16.248 39.2733 17.064C38.2173 17.88 36.9213 18.288 35.3853 18.288ZM51.9806 18L46.7966 11.448L51.3806 6.096H55.2206L49.2686 12.792V10.224L56.0126 18H51.9806ZM44.0366 18V0.719999H47.2766V18H44.0366ZM62.7358 18.288C61.5198 18.288 60.4398 18.032 59.4958 17.52C58.5678 17.008 57.8398 16.288 57.3118 15.36C56.7838 14.432 56.5198 13.368 56.5198 12.168C56.5198 10.92 56.7758 9.824 57.2878 8.88C57.8158 7.92 58.5438 7.168 59.4718 6.624C60.4158 6.08 61.5118 5.808 62.7598 5.808C63.9438 5.808 64.9838 6.064 65.8798 6.576C66.7918 7.088 67.4958 7.792 67.9918 8.688C68.5038 9.568 68.7598 10.568 68.7598 11.688C68.7598 11.848 68.7598 12.032 68.7598 12.24C68.7598 12.432 68.7438 12.632 68.7118 12.84H58.8478V10.848H65.4718C65.4238 10.128 65.1438 9.544 64.6318 9.096C64.1358 8.648 63.5118 8.424 62.7598 8.424C62.1998 8.424 61.6878 8.552 61.2238 8.808C60.7598 9.048 60.3918 9.416 60.1198 9.912C59.8478 10.408 59.7118 11.032 59.7118 11.784V12.48C59.7118 13.12 59.8398 13.68 60.0958 14.16C60.3518 14.64 60.7038 15.008 61.1518 15.264C61.6158 15.52 62.1358 15.648 62.7118 15.648C63.3038 15.648 63.7998 15.52 64.1998 15.264C64.5998 14.992 64.9038 14.648 65.1118 14.232H68.4238C68.1838 14.984 67.7998 15.672 67.2718 16.296C66.7438 16.904 66.0958 17.392 65.3278 17.76C64.5598 18.112 63.6958 18.288 62.7358 18.288ZM76.5772 18C75.7292 18 74.9852 17.872 74.3452 17.616C73.7212 17.344 73.2332 16.904 72.8812 16.296C72.5292 15.672 72.3532 14.824 72.3532 13.752V8.808H70.3132V6.096H72.3532L72.7132 2.856H75.5932V6.096H78.7612V8.808H75.5932V13.8C75.5932 14.344 75.7132 14.72 75.9532 14.928C76.1932 15.136 76.6012 15.24 77.1772 15.24H78.6892V18H76.5772Z" fill="#23262F"/>
</svg>
