<svg width="132" height="28" viewBox="0 0 132 28" fill="none" xmlns="http://www.w3.org/2000/svg">
<g clip-path="url(#clip0_2680_55022)">
<path fill-rule="evenodd" clip-rule="evenodd" d="M16.6701 0.192354C16.5425 0.342069 16.5353 0.538261 16.5172 4.51219C16.5054 7.03634 16.4716 8.67561 16.4321 8.67561C16.3958 8.67561 16.3095 8.61259 16.2404 8.53572C16.0967 8.37484 15.3489 7.88234 14.8071 7.59095C13.37 6.81869 10.9118 6.41335 9.17859 6.66317C7.92354 6.84372 5.73616 7.66961 5.23145 8.15272C5.15434 8.22691 4.86997 8.4383 4.5995 8.62287C4.12891 8.94375 2.52797 10.5888 2.52797 10.7511C2.52797 10.7931 2.34934 11.1041 2.13068 11.4424C1.47852 12.4529 1.18867 13.2158 0.790961 14.9699C0.479621 16.3433 0.614858 18.5899 1.12505 20.5187C1.31927 21.2539 2.24486 23.0889 2.47152 23.1881C2.50269 23.2015 2.52797 23.2476 2.52797 23.29C2.52797 23.5515 3.79734 24.9083 4.70482 25.6166C7.15805 27.5321 10.9005 28.1037 13.7354 26.9958C14.4954 26.6991 15.8675 25.9558 16.2109 25.6551L16.4662 25.4312L16.5012 26.2839C16.5332 27.0566 16.5522 27.1545 16.7064 27.3283L16.8765 27.5205H18.4366C19.8678 27.5205 20.0102 27.5089 20.1622 27.3779L20.3278 27.2358V14.6066C20.3278 3.47804 20.3156 1.9648 20.2225 1.86961C20.1648 1.81017 19.896 1.63766 19.6259 1.48571C19.3554 1.33376 19.071 1.15098 18.994 1.07902C18.0932 0.242407 16.9873 -0.179475 16.6701 0.192354ZM75.6691 0.171796C75.5701 0.287993 75.5533 0.505192 75.5533 1.64481C75.5533 3.16833 75.5482 3.1518 76.1305 3.54463C76.3344 3.68228 76.561 3.85255 76.6339 3.92316C76.7072 3.99377 76.9444 4.14796 77.1605 4.2655C77.3771 4.38303 77.7698 4.63598 78.0327 4.82726C78.6616 5.28445 79.0344 5.29786 79.2421 4.87151C79.3963 4.55509 79.3926 0.573122 79.2375 0.255368L79.1305 0.0354881H77.458C75.9269 0.0354881 75.7757 0.0471079 75.6691 0.171796ZM117.157 0.0859885C116.159 0.220062 114.473 0.757695 113.626 1.21176C113.405 1.33019 113.138 1.44996 113.032 1.47722C112.806 1.53666 111.465 2.48366 110.774 3.07269C109.869 3.84495 108.401 5.56422 108.064 6.24888C107.828 6.72618 107.486 7.33622 107.436 7.36929C107.347 7.42739 106.682 9.13012 106.518 9.7187C105.886 11.9877 105.887 11.9769 105.887 18.9049V24.9069L106.056 25.4021C106.149 25.6747 106.302 25.9862 106.394 26.0944C106.487 26.203 106.614 26.3786 106.676 26.4854C106.838 26.7616 107.52 27.2211 108.009 27.3828C108.583 27.5719 119.045 27.5929 120.281 27.407C122.26 27.1098 124.708 26.1011 126.073 25.0191C126.305 24.8354 126.559 24.6567 126.637 24.6218C126.715 24.5865 127.074 24.2607 127.435 23.8978C127.797 23.5345 128.12 23.2261 128.154 23.2123C128.189 23.1984 128.462 22.8646 128.76 22.4704C129.06 22.0762 129.371 21.6758 129.455 21.581C129.536 21.4863 129.721 21.1668 129.864 20.8709C130.008 20.5746 130.167 20.2823 130.219 20.2206C130.271 20.1585 130.467 19.7559 130.658 19.3255C132.078 16.0992 132.127 11.6923 130.779 8.41417C130.561 7.88189 130.339 7.39655 130.288 7.33488C130.236 7.27365 130.08 6.98316 129.942 6.68998C129.422 5.58746 127.653 3.50888 126.565 2.72365C126.372 2.58377 126.056 2.34602 125.863 2.19407C123.882 0.638818 120.013 -0.297908 117.157 0.0859885ZM119.825 5.21607C121.355 5.63885 122.581 6.95098 122.983 8.59695C123.169 9.3567 123.136 14.1154 122.941 14.8126C122.784 15.377 122.598 15.8065 122.402 16.063C121.503 17.242 120.924 17.6969 119.908 18.0218C117.848 18.6806 115.401 17.2791 114.748 15.0664C114.539 14.3585 114.423 9.80406 114.59 8.89191C115.084 6.20419 117.433 4.55509 119.825 5.21607ZM31.9135 6.56306C30.4061 6.69535 28.0177 7.59364 27.1958 8.3373C27.0488 8.47048 26.8197 8.63896 26.6865 8.71136C26.2168 8.96789 24.8071 10.6063 24.4102 11.3571C23.2437 13.5635 22.891 14.8819 22.891 17.0324C22.891 26.0618 32.971 30.8821 39.3191 24.8886C41.4854 22.8431 41.5723 22.3891 39.8723 21.9819C39.3958 21.868 38.7133 21.6928 38.3564 21.5936C37.3908 21.3245 37.2244 21.3419 36.7812 21.7598C34.6857 23.7343 31.7227 23.9725 29.4569 22.3488C28.3536 21.5582 27.4246 20.3583 27.1403 19.3568L27.0475 19.0292H34.6166H42.1856L42.4122 18.8044L42.6394 18.5796L42.5997 17.0726C42.577 16.1931 42.5185 15.3641 42.459 15.0816C42.4034 14.8153 42.3057 14.346 42.2416 14.0385C42.1128 13.4196 41.5199 12.0458 41.1332 11.4688C40.9959 11.2641 40.864 11.0295 40.8404 10.9473C40.757 10.6568 39.2833 9.04475 38.795 8.70957C38.6016 8.57729 38.3257 8.36858 38.1811 8.24568C36.9215 7.17622 33.9674 6.3834 31.9135 6.56306ZM52.3465 6.6654C51.7415 6.72171 50.7317 6.97556 50.4102 7.15164C50.301 7.21153 50.1621 7.26069 50.1009 7.26069C49.2159 7.26069 46.9787 9.5015 46.132 11.2369C45.0994 13.3516 45.0703 13.6309 45.0947 21.1399L45.1145 27.1612L45.3113 27.3408C45.5648 27.5719 48.3749 27.6246 48.6922 27.4043C48.9752 27.2072 48.9752 27.2067 49.0115 20.668L49.0465 14.2995L49.2618 13.7364C49.3806 13.4267 49.6544 12.9239 49.8705 12.6191C50.5847 11.6114 50.5235 11.6668 51.5393 11.1064C52.6207 10.5093 53.7835 10.5598 54.8376 11.2494C55.1161 11.4317 55.3663 11.5805 55.3934 11.5805C55.6524 11.5805 56.6825 13.2131 56.9151 13.9916C57.204 14.9601 57.2255 15.4807 57.226 21.4917C57.2268 27.1272 57.2285 27.1965 57.3696 27.3574C57.6035 27.6237 60.4918 27.6094 60.7864 27.3408L60.9831 27.1612L61.0214 20.9165L61.0602 14.6718L61.2768 13.9643C62.6207 9.57703 67.5347 9.65702 69.0038 14.0904L69.1968 14.6718L69.2325 20.9732C69.2625 26.1623 69.2856 27.2961 69.3653 27.3976C69.5413 27.6228 72.6682 27.5786 72.8725 27.348L73.0255 27.1759V20.9183C73.0255 13.8656 73.0339 14.0077 72.5009 12.3657C72.0418 10.9504 70.9624 9.22218 70.2171 8.70823C70.0818 8.61527 69.8342 8.40701 69.6665 8.24613C68.3411 6.97154 65.365 6.28732 63.4532 6.8178C61.8008 7.27633 60.732 7.91899 59.5992 9.13458L59.0578 9.71557L58.7566 9.34061C57.274 7.49398 54.7508 6.44061 52.3465 6.6654ZM75.9935 6.64261C75.5187 6.73959 75.5533 5.92443 75.5533 17.1343V27.2117L75.7382 27.3663C75.924 27.5214 78.6869 27.6121 79.0256 27.474C79.3543 27.3404 79.345 27.6528 79.345 17.0927C79.345 6.25916 79.3665 6.82897 78.9506 6.66138C78.7804 6.59256 76.3133 6.57692 75.9935 6.64261ZM90.0527 6.73512C89.1933 6.8978 87.9546 7.30895 87.3463 7.63431C86.8753 7.88592 86.1464 8.3583 86.0858 8.45126C86.0664 8.48031 85.9083 8.59784 85.7344 8.71136C85.5608 8.82532 85.1218 9.24095 84.7595 9.63512C82.3732 12.2294 81.4801 15.3131 82.0172 19.1038C82.3909 21.7397 84.5235 24.8971 86.7876 26.1668C87.7276 26.6937 87.9289 26.7902 88.5988 27.0347C92.0863 28.3075 96.1208 27.2867 98.7943 24.456C101.022 22.0981 102.144 18.0701 101.438 14.9699C101.041 13.2198 100.788 12.5324 100.207 11.6181C100.025 11.3311 99.793 10.9459 99.6912 10.7613C99.4306 10.2872 98.2027 9.02107 97.5151 8.51651C95.3294 6.91389 92.5796 6.25738 90.0527 6.73512ZM118.021 6.66987C117.221 6.87054 116.442 7.62269 116.146 8.47986L115.962 9.01079V11.6181C115.962 14.1529 115.967 14.2383 116.125 14.7089C116.941 17.1414 120.27 17.3546 121.359 15.0441C121.677 14.3692 121.696 14.1579 121.672 11.4304L121.65 8.86197L121.433 8.37796C120.821 7.01131 119.432 6.31637 118.021 6.66987ZM119.269 9.82283L119.509 10.0762V12.0037C119.509 13.698 119.495 13.9532 119.389 14.1154C119.089 14.5771 118.708 14.62 118.343 14.2325L118.104 13.9791V12.0274V10.0762L118.343 9.82283C118.515 9.64049 118.644 9.56943 118.806 9.56943C118.969 9.56943 119.098 9.64049 119.269 9.82283ZM11.8867 10.8311C16.1659 11.9979 17.9142 17.2156 15.2706 20.9286C14.7709 21.6302 14.5864 21.8125 13.6958 22.4856C11.4177 24.2066 7.86877 23.6185 5.87308 21.1891C2.11552 16.6154 6.35041 9.32094 11.8867 10.8311ZM34.301 10.8355C36.1172 11.4295 37.5585 12.7394 38.2321 14.4081L38.4736 15.007H32.7565H27.0399L27.1351 14.7205C27.3331 14.1248 27.8046 13.2846 28.1226 12.9588C28.2027 12.8766 28.338 12.7134 28.4231 12.5955C29.5113 11.0862 32.4111 10.2179 34.301 10.8355ZM93.2824 10.8749C94.4843 11.2444 95.1537 11.6619 96.001 12.5704C100.28 17.1615 96.2635 24.7367 90.3194 23.2847C89.3289 23.0429 88.9703 22.8485 87.8307 21.935C86.1295 20.571 85.3438 17.8404 85.9454 15.3846C86.7729 12.0096 90.1736 9.91936 93.2824 10.8749ZM126.011 15.8561C126.142 15.9956 126.249 16.1819 126.249 16.2709C126.249 16.6909 125.5 18.6918 125.273 18.8804C125.248 18.9005 125.03 19.1856 124.788 19.5132C124.546 19.8412 124.243 20.1929 124.115 20.2953C123.986 20.3981 123.648 20.6702 123.363 20.9008C122.582 21.5319 121.863 21.8702 120.456 22.2697C118.734 22.7591 115.993 22.2371 114.496 21.1346C113.465 20.3757 112.263 19.056 112.102 18.5076C112.071 18.4053 111.943 18.1018 111.817 17.8328C111.209 16.5453 111.307 15.8637 112.101 15.8637C112.5 15.8637 112.655 16.0246 112.845 16.6355C112.928 16.9072 113.103 17.3242 113.234 17.562C113.363 17.7997 113.471 18.021 113.471 18.0536C113.471 18.3418 114.91 19.776 115.52 20.096C119.227 22.04 123.511 20.4763 124.669 16.7575C125.032 15.5898 125.478 15.2908 126.011 15.8561Z" fill="#B1B5C3"/>
<path fill-rule="evenodd" clip-rule="evenodd" d="M16.6701 0.192354C16.5425 0.342069 16.5353 0.538261 16.5172 4.51219C16.5054 7.03634 16.4716 8.67561 16.4321 8.67561C16.3958 8.67561 16.3095 8.61259 16.2404 8.53572C16.0967 8.37484 15.3489 7.88234 14.8071 7.59095C13.37 6.81869 10.9118 6.41335 9.17859 6.66317C7.92354 6.84372 5.73616 7.66961 5.23145 8.15272C5.15434 8.22691 4.86997 8.4383 4.5995 8.62287C4.12891 8.94375 2.52797 10.5888 2.52797 10.7511C2.52797 10.7931 2.34934 11.1041 2.13068 11.4424C1.47852 12.4529 1.18867 13.2158 0.790961 14.9699C0.479621 16.3433 0.614858 18.5899 1.12505 20.5187C1.31927 21.2539 2.24486 23.0889 2.47152 23.1881C2.50269 23.2015 2.52797 23.2476 2.52797 23.29C2.52797 23.5515 3.79734 24.9083 4.70482 25.6166C7.15805 27.5321 10.9005 28.1037 13.7354 26.9958C14.4954 26.6991 15.8675 25.9558 16.2109 25.6551L16.4662 25.4312L16.5012 26.2839C16.5332 27.0566 16.5522 27.1545 16.7064 27.3283L16.8765 27.5205H18.4366C19.8678 27.5205 20.0102 27.5089 20.1622 27.3779L20.3278 27.2358V14.6066C20.3278 3.47804 20.3156 1.9648 20.2225 1.86961C20.1648 1.81017 19.896 1.63766 19.6259 1.48571C19.3554 1.33376 19.071 1.15098 18.994 1.07902C18.0932 0.242407 16.9873 -0.179475 16.6701 0.192354ZM75.6691 0.171796C75.5701 0.287993 75.5533 0.505192 75.5533 1.64481C75.5533 3.16833 75.5482 3.1518 76.1305 3.54463C76.3344 3.68228 76.561 3.85255 76.6339 3.92316C76.7072 3.99377 76.9444 4.14796 77.1605 4.2655C77.3771 4.38303 77.7698 4.63598 78.0327 4.82726C78.6616 5.28445 79.0344 5.29786 79.2421 4.87151C79.3963 4.55509 79.3926 0.573122 79.2375 0.255368L79.1305 0.0354881H77.458C75.9269 0.0354881 75.7757 0.0471079 75.6691 0.171796ZM117.157 0.0859885C116.159 0.220062 114.473 0.757695 113.626 1.21176C113.405 1.33019 113.138 1.44996 113.032 1.47722C112.806 1.53666 111.465 2.48366 110.774 3.07269C109.869 3.84495 108.401 5.56422 108.064 6.24888C107.828 6.72618 107.486 7.33622 107.436 7.36929C107.347 7.42739 106.682 9.13012 106.518 9.7187C105.886 11.9877 105.887 11.9769 105.887 18.9049V24.9069L106.056 25.4021C106.149 25.6747 106.302 25.9862 106.394 26.0944C106.487 26.203 106.614 26.3786 106.676 26.4854C106.838 26.7616 107.52 27.2211 108.009 27.3828C108.583 27.5719 119.045 27.5929 120.281 27.407C122.26 27.1098 124.708 26.1011 126.073 25.0191C126.305 24.8354 126.559 24.6567 126.637 24.6218C126.715 24.5865 127.074 24.2607 127.435 23.8978C127.797 23.5345 128.12 23.2261 128.154 23.2123C128.189 23.1984 128.462 22.8646 128.76 22.4704C129.06 22.0762 129.371 21.6758 129.455 21.581C129.536 21.4863 129.721 21.1668 129.864 20.8709C130.008 20.5746 130.167 20.2823 130.219 20.2206C130.271 20.1585 130.467 19.7559 130.658 19.3255C132.078 16.0992 132.127 11.6923 130.779 8.41417C130.561 7.88189 130.339 7.39655 130.288 7.33488C130.236 7.27365 130.08 6.98316 129.942 6.68998C129.422 5.58746 127.653 3.50888 126.565 2.72365C126.372 2.58377 126.056 2.34602 125.863 2.19407C123.882 0.638818 120.013 -0.297908 117.157 0.0859885ZM119.825 5.21607C121.355 5.63885 122.581 6.95098 122.983 8.59695C123.169 9.3567 123.136 14.1154 122.941 14.8126C122.784 15.377 122.598 15.8065 122.402 16.063C121.503 17.242 120.924 17.6969 119.908 18.0218C117.848 18.6806 115.401 17.2791 114.748 15.0664C114.539 14.3585 114.423 9.80406 114.59 8.89191C115.084 6.20419 117.433 4.55509 119.825 5.21607ZM31.9135 6.56306C30.4061 6.69535 28.0177 7.59364 27.1958 8.3373C27.0488 8.47048 26.8197 8.63896 26.6865 8.71136C26.2168 8.96789 24.8071 10.6063 24.4102 11.3571C23.2437 13.5635 22.891 14.8819 22.891 17.0324C22.891 26.0618 32.971 30.8821 39.3191 24.8886C41.4854 22.8431 41.5723 22.3891 39.8723 21.9819C39.3958 21.868 38.7133 21.6928 38.3564 21.5936C37.3908 21.3245 37.2244 21.3419 36.7812 21.7598C34.6857 23.7343 31.7227 23.9725 29.4569 22.3488C28.3536 21.5582 27.4246 20.3583 27.1403 19.3568L27.0475 19.0292H34.6166H42.1856L42.4122 18.8044L42.6394 18.5796L42.5997 17.0726C42.577 16.1931 42.5185 15.3641 42.459 15.0816C42.4034 14.8153 42.3057 14.346 42.2416 14.0385C42.1128 13.4196 41.5199 12.0458 41.1332 11.4688C40.9959 11.2641 40.864 11.0295 40.8404 10.9473C40.757 10.6568 39.2833 9.04475 38.795 8.70957C38.6016 8.57729 38.3257 8.36858 38.1811 8.24568C36.9215 7.17622 33.9674 6.3834 31.9135 6.56306ZM52.3465 6.6654C51.7415 6.72171 50.7317 6.97556 50.4102 7.15164C50.301 7.21153 50.1621 7.26069 50.1009 7.26069C49.2159 7.26069 46.9787 9.5015 46.132 11.2369C45.0994 13.3516 45.0703 13.6309 45.0947 21.1399L45.1145 27.1612L45.3113 27.3408C45.5648 27.5719 48.3749 27.6246 48.6922 27.4043C48.9752 27.2072 48.9752 27.2067 49.0115 20.668L49.0465 14.2995L49.2618 13.7364C49.3806 13.4267 49.6544 12.9239 49.8705 12.6191C50.5847 11.6114 50.5235 11.6668 51.5393 11.1064C52.6207 10.5093 53.7835 10.5598 54.8376 11.2494C55.1161 11.4317 55.3663 11.5805 55.3934 11.5805C55.6524 11.5805 56.6825 13.2131 56.9151 13.9916C57.204 14.9601 57.2255 15.4807 57.226 21.4917C57.2268 27.1272 57.2285 27.1965 57.3696 27.3574C57.6035 27.6237 60.4918 27.6094 60.7864 27.3408L60.9831 27.1612L61.0214 20.9165L61.0602 14.6718L61.2768 13.9643C62.6207 9.57703 67.5347 9.65702 69.0038 14.0904L69.1968 14.6718L69.2325 20.9732C69.2625 26.1623 69.2856 27.2961 69.3653 27.3976C69.5413 27.6228 72.6682 27.5786 72.8725 27.348L73.0255 27.1759V20.9183C73.0255 13.8656 73.0339 14.0077 72.5009 12.3657C72.0418 10.9504 70.9624 9.22218 70.2171 8.70823C70.0818 8.61527 69.8342 8.40701 69.6665 8.24613C68.3411 6.97154 65.365 6.28732 63.4532 6.8178C61.8008 7.27633 60.732 7.91899 59.5992 9.13458L59.0578 9.71557L58.7566 9.34061C57.274 7.49398 54.7508 6.44061 52.3465 6.6654ZM75.9935 6.64261C75.5187 6.73959 75.5533 5.92443 75.5533 17.1343V27.2117L75.7382 27.3663C75.924 27.5214 78.6869 27.6121 79.0256 27.474C79.3543 27.3404 79.345 27.6528 79.345 17.0927C79.345 6.25916 79.3665 6.82897 78.9506 6.66138C78.7804 6.59256 76.3133 6.57692 75.9935 6.64261ZM90.0527 6.73512C89.1933 6.8978 87.9546 7.30895 87.3463 7.63431C86.8753 7.88592 86.1464 8.3583 86.0858 8.45126C86.0664 8.48031 85.9083 8.59784 85.7344 8.71136C85.5608 8.82532 85.1218 9.24095 84.7595 9.63512C82.3732 12.2294 81.4801 15.3131 82.0172 19.1038C82.3909 21.7397 84.5235 24.8971 86.7876 26.1668C87.7276 26.6937 87.9289 26.7902 88.5988 27.0347C92.0863 28.3075 96.1208 27.2867 98.7943 24.456C101.022 22.0981 102.144 18.0701 101.438 14.9699C101.041 13.2198 100.788 12.5324 100.207 11.6181C100.025 11.3311 99.793 10.9459 99.6912 10.7613C99.4306 10.2872 98.2027 9.02107 97.5151 8.51651C95.3294 6.91389 92.5796 6.25738 90.0527 6.73512ZM118.021 6.66987C117.221 6.87054 116.442 7.62269 116.146 8.47986L115.962 9.01079V11.6181C115.962 14.1529 115.967 14.2383 116.125 14.7089C116.941 17.1414 120.27 17.3546 121.359 15.0441C121.677 14.3692 121.696 14.1579 121.672 11.4304L121.65 8.86197L121.433 8.37796C120.821 7.01131 119.432 6.31637 118.021 6.66987ZM119.269 9.82283L119.509 10.0762V12.0037C119.509 13.698 119.495 13.9532 119.389 14.1154C119.089 14.5771 118.708 14.62 118.343 14.2325L118.104 13.9791V12.0274V10.0762L118.343 9.82283C118.515 9.64049 118.644 9.56943 118.806 9.56943C118.969 9.56943 119.098 9.64049 119.269 9.82283ZM11.8867 10.8311C16.1659 11.9979 17.9142 17.2156 15.2706 20.9286C14.7709 21.6302 14.5864 21.8125 13.6958 22.4856C11.4177 24.2066 7.86877 23.6185 5.87308 21.1891C2.11552 16.6154 6.35041 9.32094 11.8867 10.8311ZM34.301 10.8355C36.1172 11.4295 37.5585 12.7394 38.2321 14.4081L38.4736 15.007H32.7565H27.0399L27.1351 14.7205C27.3331 14.1248 27.8046 13.2846 28.1226 12.9588C28.2027 12.8766 28.338 12.7134 28.4231 12.5955C29.5113 11.0862 32.4111 10.2179 34.301 10.8355ZM93.2824 10.8749C94.4843 11.2444 95.1537 11.6619 96.001 12.5704C100.28 17.1615 96.2635 24.7367 90.3194 23.2847C89.3289 23.0429 88.9703 22.8485 87.8307 21.935C86.1295 20.571 85.3438 17.8404 85.9454 15.3846C86.7729 12.0096 90.1736 9.91936 93.2824 10.8749ZM126.011 15.8561C126.142 15.9956 126.249 16.1819 126.249 16.2709C126.249 16.6909 125.5 18.6918 125.273 18.8804C125.248 18.9005 125.03 19.1856 124.788 19.5132C124.546 19.8412 124.243 20.1929 124.115 20.2953C123.986 20.3981 123.648 20.6702 123.363 20.9008C122.582 21.5319 121.863 21.8702 120.456 22.2697C118.734 22.7591 115.993 22.2371 114.496 21.1346C113.465 20.3757 112.263 19.056 112.102 18.5076C112.071 18.4053 111.943 18.1018 111.817 17.8328C111.209 16.5453 111.307 15.8637 112.101 15.8637C112.5 15.8637 112.655 16.0246 112.845 16.6355C112.928 16.9072 113.103 17.3242 113.234 17.562C113.363 17.7997 113.471 18.021 113.471 18.0536C113.471 18.3418 114.91 19.776 115.52 20.096C119.227 22.04 123.511 20.4763 124.669 16.7575C125.032 15.5898 125.478 15.2908 126.011 15.8561Z" fill="#B1B5C3"/>
<path fill-rule="evenodd" clip-rule="evenodd" d="M16.6701 0.192354C16.5425 0.342069 16.5353 0.538261 16.5172 4.51219C16.5054 7.03634 16.4716 8.67561 16.4321 8.67561C16.3958 8.67561 16.3095 8.61259 16.2404 8.53572C16.0967 8.37484 15.3489 7.88234 14.8071 7.59095C13.37 6.81869 10.9118 6.41335 9.17859 6.66317C7.92354 6.84372 5.73616 7.66961 5.23145 8.15272C5.15434 8.22691 4.86997 8.4383 4.5995 8.62287C4.12891 8.94375 2.52797 10.5888 2.52797 10.7511C2.52797 10.7931 2.34934 11.1041 2.13068 11.4424C1.47852 12.4529 1.18867 13.2158 0.790961 14.9699C0.479621 16.3433 0.614858 18.5899 1.12505 20.5187C1.31927 21.2539 2.24486 23.0889 2.47152 23.1881C2.50269 23.2015 2.52797 23.2476 2.52797 23.29C2.52797 23.5515 3.79734 24.9083 4.70482 25.6166C7.15805 27.5321 10.9005 28.1037 13.7354 26.9958C14.4954 26.6991 15.8675 25.9558 16.2109 25.6551L16.4662 25.4312L16.5012 26.2839C16.5332 27.0566 16.5522 27.1545 16.7064 27.3283L16.8765 27.5205H18.4366C19.8678 27.5205 20.0102 27.5089 20.1622 27.3779L20.3278 27.2358V14.6066C20.3278 3.47804 20.3156 1.9648 20.2225 1.86961C20.1648 1.81017 19.896 1.63766 19.6259 1.48571C19.3554 1.33376 19.071 1.15098 18.994 1.07902C18.0932 0.242407 16.9873 -0.179475 16.6701 0.192354ZM75.6691 0.171796C75.5701 0.287993 75.5533 0.505192 75.5533 1.64481C75.5533 3.16833 75.5482 3.1518 76.1305 3.54463C76.3344 3.68228 76.561 3.85255 76.6339 3.92316C76.7072 3.99377 76.9444 4.14796 77.1605 4.2655C77.3771 4.38303 77.7698 4.63598 78.0327 4.82726C78.6616 5.28445 79.0344 5.29786 79.2421 4.87151C79.3963 4.55509 79.3926 0.573122 79.2375 0.255368L79.1305 0.0354881H77.458C75.9269 0.0354881 75.7757 0.0471079 75.6691 0.171796ZM117.157 0.0859885C116.159 0.220062 114.473 0.757695 113.626 1.21176C113.405 1.33019 113.138 1.44996 113.032 1.47722C112.806 1.53666 111.465 2.48366 110.774 3.07269C109.869 3.84495 108.401 5.56422 108.064 6.24888C107.828 6.72618 107.486 7.33622 107.436 7.36929C107.347 7.42739 106.682 9.13012 106.518 9.7187C105.886 11.9877 105.887 11.9769 105.887 18.9049V24.9069L106.056 25.4021C106.149 25.6747 106.302 25.9862 106.394 26.0944C106.487 26.203 106.614 26.3786 106.676 26.4854C106.838 26.7616 107.52 27.2211 108.009 27.3828C108.583 27.5719 119.045 27.5929 120.281 27.407C122.26 27.1098 124.708 26.1011 126.073 25.0191C126.305 24.8354 126.559 24.6567 126.637 24.6218C126.715 24.5865 127.074 24.2607 127.435 23.8978C127.797 23.5345 128.12 23.2261 128.154 23.2123C128.189 23.1984 128.462 22.8646 128.76 22.4704C129.06 22.0762 129.371 21.6758 129.455 21.581C129.536 21.4863 129.721 21.1668 129.864 20.8709C130.008 20.5746 130.167 20.2823 130.219 20.2206C130.271 20.1585 130.467 19.7559 130.658 19.3255C132.078 16.0992 132.127 11.6923 130.779 8.41417C130.561 7.88189 130.339 7.39655 130.288 7.33488C130.236 7.27365 130.08 6.98316 129.942 6.68998C129.422 5.58746 127.653 3.50888 126.565 2.72365C126.372 2.58377 126.056 2.34602 125.863 2.19407C123.882 0.638818 120.013 -0.297908 117.157 0.0859885ZM119.825 5.21607C121.355 5.63885 122.581 6.95098 122.983 8.59695C123.169 9.3567 123.136 14.1154 122.941 14.8126C122.784 15.377 122.598 15.8065 122.402 16.063C121.503 17.242 120.924 17.6969 119.908 18.0218C117.848 18.6806 115.401 17.2791 114.748 15.0664C114.539 14.3585 114.423 9.80406 114.59 8.89191C115.084 6.20419 117.433 4.55509 119.825 5.21607ZM31.9135 6.56306C30.4061 6.69535 28.0177 7.59364 27.1958 8.3373C27.0488 8.47048 26.8197 8.63896 26.6865 8.71136C26.2168 8.96789 24.8071 10.6063 24.4102 11.3571C23.2437 13.5635 22.891 14.8819 22.891 17.0324C22.891 26.0618 32.971 30.8821 39.3191 24.8886C41.4854 22.8431 41.5723 22.3891 39.8723 21.9819C39.3958 21.868 38.7133 21.6928 38.3564 21.5936C37.3908 21.3245 37.2244 21.3419 36.7812 21.7598C34.6857 23.7343 31.7227 23.9725 29.4569 22.3488C28.3536 21.5582 27.4246 20.3583 27.1403 19.3568L27.0475 19.0292H34.6166H42.1856L42.4122 18.8044L42.6394 18.5796L42.5997 17.0726C42.577 16.1931 42.5185 15.3641 42.459 15.0816C42.4034 14.8153 42.3057 14.346 42.2416 14.0385C42.1128 13.4196 41.5199 12.0458 41.1332 11.4688C40.9959 11.2641 40.864 11.0295 40.8404 10.9473C40.757 10.6568 39.2833 9.04475 38.795 8.70957C38.6016 8.57729 38.3257 8.36858 38.1811 8.24568C36.9215 7.17622 33.9674 6.3834 31.9135 6.56306ZM52.3465 6.6654C51.7415 6.72171 50.7317 6.97556 50.4102 7.15164C50.301 7.21153 50.1621 7.26069 50.1009 7.26069C49.2159 7.26069 46.9787 9.5015 46.132 11.2369C45.0994 13.3516 45.0703 13.6309 45.0947 21.1399L45.1145 27.1612L45.3113 27.3408C45.5648 27.5719 48.3749 27.6246 48.6922 27.4043C48.9752 27.2072 48.9752 27.2067 49.0115 20.668L49.0465 14.2995L49.2618 13.7364C49.3806 13.4267 49.6544 12.9239 49.8705 12.6191C50.5847 11.6114 50.5235 11.6668 51.5393 11.1064C52.6207 10.5093 53.7835 10.5598 54.8376 11.2494C55.1161 11.4317 55.3663 11.5805 55.3934 11.5805C55.6524 11.5805 56.6825 13.2131 56.9151 13.9916C57.204 14.9601 57.2255 15.4807 57.226 21.4917C57.2268 27.1272 57.2285 27.1965 57.3696 27.3574C57.6035 27.6237 60.4918 27.6094 60.7864 27.3408L60.9831 27.1612L61.0214 20.9165L61.0602 14.6718L61.2768 13.9643C62.6207 9.57703 67.5347 9.65702 69.0038 14.0904L69.1968 14.6718L69.2325 20.9732C69.2625 26.1623 69.2856 27.2961 69.3653 27.3976C69.5413 27.6228 72.6682 27.5786 72.8725 27.348L73.0255 27.1759V20.9183C73.0255 13.8656 73.0339 14.0077 72.5009 12.3657C72.0418 10.9504 70.9624 9.22218 70.2171 8.70823C70.0818 8.61527 69.8342 8.40701 69.6665 8.24613C68.3411 6.97154 65.365 6.28732 63.4532 6.8178C61.8008 7.27633 60.732 7.91899 59.5992 9.13458L59.0578 9.71557L58.7566 9.34061C57.274 7.49398 54.7508 6.44061 52.3465 6.6654ZM75.9935 6.64261C75.5187 6.73959 75.5533 5.92443 75.5533 17.1343V27.2117L75.7382 27.3663C75.924 27.5214 78.6869 27.6121 79.0256 27.474C79.3543 27.3404 79.345 27.6528 79.345 17.0927C79.345 6.25916 79.3665 6.82897 78.9506 6.66138C78.7804 6.59256 76.3133 6.57692 75.9935 6.64261ZM90.0527 6.73512C89.1933 6.8978 87.9546 7.30895 87.3463 7.63431C86.8753 7.88592 86.1464 8.3583 86.0858 8.45126C86.0664 8.48031 85.9083 8.59784 85.7344 8.71136C85.5608 8.82532 85.1218 9.24095 84.7595 9.63512C82.3732 12.2294 81.4801 15.3131 82.0172 19.1038C82.3909 21.7397 84.5235 24.8971 86.7876 26.1668C87.7276 26.6937 87.9289 26.7902 88.5988 27.0347C92.0863 28.3075 96.1208 27.2867 98.7943 24.456C101.022 22.0981 102.144 18.0701 101.438 14.9699C101.041 13.2198 100.788 12.5324 100.207 11.6181C100.025 11.3311 99.793 10.9459 99.6912 10.7613C99.4306 10.2872 98.2027 9.02107 97.5151 8.51651C95.3294 6.91389 92.5796 6.25738 90.0527 6.73512ZM118.021 6.66987C117.221 6.87054 116.442 7.62269 116.146 8.47986L115.962 9.01079V11.6181C115.962 14.1529 115.967 14.2383 116.125 14.7089C116.941 17.1414 120.27 17.3546 121.359 15.0441C121.677 14.3692 121.696 14.1579 121.672 11.4304L121.65 8.86197L121.433 8.37796C120.821 7.01131 119.432 6.31637 118.021 6.66987ZM119.269 9.82283L119.509 10.0762V12.0037C119.509 13.698 119.495 13.9532 119.389 14.1154C119.089 14.5771 118.708 14.62 118.343 14.2325L118.104 13.9791V12.0274V10.0762L118.343 9.82283C118.515 9.64049 118.644 9.56943 118.806 9.56943C118.969 9.56943 119.098 9.64049 119.269 9.82283ZM11.8867 10.8311C16.1659 11.9979 17.9142 17.2156 15.2706 20.9286C14.7709 21.6302 14.5864 21.8125 13.6958 22.4856C11.4177 24.2066 7.86877 23.6185 5.87308 21.1891C2.11552 16.6154 6.35041 9.32094 11.8867 10.8311ZM34.301 10.8355C36.1172 11.4295 37.5585 12.7394 38.2321 14.4081L38.4736 15.007H32.7565H27.0399L27.1351 14.7205C27.3331 14.1248 27.8046 13.2846 28.1226 12.9588C28.2027 12.8766 28.338 12.7134 28.4231 12.5955C29.5113 11.0862 32.4111 10.2179 34.301 10.8355ZM93.2824 10.8749C94.4843 11.2444 95.1537 11.6619 96.001 12.5704C100.28 17.1615 96.2635 24.7367 90.3194 23.2847C89.3289 23.0429 88.9703 22.8485 87.8307 21.935C86.1295 20.571 85.3438 17.8404 85.9454 15.3846C86.7729 12.0096 90.1736 9.91936 93.2824 10.8749ZM126.011 15.8561C126.142 15.9956 126.249 16.1819 126.249 16.2709C126.249 16.6909 125.5 18.6918 125.273 18.8804C125.248 18.9005 125.03 19.1856 124.788 19.5132C124.546 19.8412 124.243 20.1929 124.115 20.2953C123.986 20.3981 123.648 20.6702 123.363 20.9008C122.582 21.5319 121.863 21.8702 120.456 22.2697C118.734 22.7591 115.993 22.2371 114.496 21.1346C113.465 20.3757 112.263 19.056 112.102 18.5076C112.071 18.4053 111.943 18.1018 111.817 17.8328C111.209 16.5453 111.307 15.8637 112.101 15.8637C112.5 15.8637 112.655 16.0246 112.845 16.6355C112.928 16.9072 113.103 17.3242 113.234 17.562C113.363 17.7997 113.471 18.021 113.471 18.0536C113.471 18.3418 114.91 19.776 115.52 20.096C119.227 22.04 123.511 20.4763 124.669 16.7575C125.032 15.5898 125.478 15.2908 126.011 15.8561Z" fill="#B1B5C3"/>
<path fill-rule="evenodd" clip-rule="evenodd" d="M16.6701 0.192354C16.5425 0.342069 16.5353 0.538261 16.5172 4.51219C16.5054 7.03634 16.4716 8.67561 16.4321 8.67561C16.3958 8.67561 16.3095 8.61259 16.2404 8.53572C16.0967 8.37484 15.3489 7.88234 14.8071 7.59095C13.37 6.81869 10.9118 6.41335 9.17859 6.66317C7.92354 6.84372 5.73616 7.66961 5.23145 8.15272C5.15434 8.22691 4.86997 8.4383 4.5995 8.62287C4.12891 8.94375 2.52797 10.5888 2.52797 10.7511C2.52797 10.7931 2.34934 11.1041 2.13068 11.4424C1.47852 12.4529 1.18867 13.2158 0.790961 14.9699C0.479621 16.3433 0.614858 18.5899 1.12505 20.5187C1.31927 21.2539 2.24486 23.0889 2.47152 23.1881C2.50269 23.2015 2.52797 23.2476 2.52797 23.29C2.52797 23.5515 3.79734 24.9083 4.70482 25.6166C7.15805 27.5321 10.9005 28.1037 13.7354 26.9958C14.4954 26.6991 15.8675 25.9558 16.2109 25.6551L16.4662 25.4312L16.5012 26.2839C16.5332 27.0566 16.5522 27.1545 16.7064 27.3283L16.8765 27.5205H18.4366C19.8678 27.5205 20.0102 27.5089 20.1622 27.3779L20.3278 27.2358V14.6066C20.3278 3.47804 20.3156 1.9648 20.2225 1.86961C20.1648 1.81017 19.896 1.63766 19.6259 1.48571C19.3554 1.33376 19.071 1.15098 18.994 1.07902C18.0932 0.242407 16.9873 -0.179475 16.6701 0.192354ZM75.6691 0.171796C75.5701 0.287993 75.5533 0.505192 75.5533 1.64481C75.5533 3.16833 75.5482 3.1518 76.1305 3.54463C76.3344 3.68228 76.561 3.85255 76.6339 3.92316C76.7072 3.99377 76.9444 4.14796 77.1605 4.2655C77.3771 4.38303 77.7698 4.63598 78.0327 4.82726C78.6616 5.28445 79.0344 5.29786 79.2421 4.87151C79.3963 4.55509 79.3926 0.573122 79.2375 0.255368L79.1305 0.0354881H77.458C75.9269 0.0354881 75.7757 0.0471079 75.6691 0.171796ZM117.157 0.0859885C116.159 0.220062 114.473 0.757695 113.626 1.21176C113.405 1.33019 113.138 1.44996 113.032 1.47722C112.806 1.53666 111.465 2.48366 110.774 3.07269C109.869 3.84495 108.401 5.56422 108.064 6.24888C107.828 6.72618 107.486 7.33622 107.436 7.36929C107.347 7.42739 106.682 9.13012 106.518 9.7187C105.886 11.9877 105.887 11.9769 105.887 18.9049V24.9069L106.056 25.4021C106.149 25.6747 106.302 25.9862 106.394 26.0944C106.487 26.203 106.614 26.3786 106.676 26.4854C106.838 26.7616 107.52 27.2211 108.009 27.3828C108.583 27.5719 119.045 27.5929 120.281 27.407C122.26 27.1098 124.708 26.1011 126.073 25.0191C126.305 24.8354 126.559 24.6567 126.637 24.6218C126.715 24.5865 127.074 24.2607 127.435 23.8978C127.797 23.5345 128.12 23.2261 128.154 23.2123C128.189 23.1984 128.462 22.8646 128.76 22.4704C129.06 22.0762 129.371 21.6758 129.455 21.581C129.536 21.4863 129.721 21.1668 129.864 20.8709C130.008 20.5746 130.167 20.2823 130.219 20.2206C130.271 20.1585 130.467 19.7559 130.658 19.3255C132.078 16.0992 132.127 11.6923 130.779 8.41417C130.561 7.88189 130.339 7.39655 130.288 7.33488C130.236 7.27365 130.08 6.98316 129.942 6.68998C129.422 5.58746 127.653 3.50888 126.565 2.72365C126.372 2.58377 126.056 2.34602 125.863 2.19407C123.882 0.638818 120.013 -0.297908 117.157 0.0859885ZM119.825 5.21607C121.355 5.63885 122.581 6.95098 122.983 8.59695C123.169 9.3567 123.136 14.1154 122.941 14.8126C122.784 15.377 122.598 15.8065 122.402 16.063C121.503 17.242 120.924 17.6969 119.908 18.0218C117.848 18.6806 115.401 17.2791 114.748 15.0664C114.539 14.3585 114.423 9.80406 114.59 8.89191C115.084 6.20419 117.433 4.55509 119.825 5.21607ZM31.9135 6.56306C30.4061 6.69535 28.0177 7.59364 27.1958 8.3373C27.0488 8.47048 26.8197 8.63896 26.6865 8.71136C26.2168 8.96789 24.8071 10.6063 24.4102 11.3571C23.2437 13.5635 22.891 14.8819 22.891 17.0324C22.891 26.0618 32.971 30.8821 39.3191 24.8886C41.4854 22.8431 41.5723 22.3891 39.8723 21.9819C39.3958 21.868 38.7133 21.6928 38.3564 21.5936C37.3908 21.3245 37.2244 21.3419 36.7812 21.7598C34.6857 23.7343 31.7227 23.9725 29.4569 22.3488C28.3536 21.5582 27.4246 20.3583 27.1403 19.3568L27.0475 19.0292H34.6166H42.1856L42.4122 18.8044L42.6394 18.5796L42.5997 17.0726C42.577 16.1931 42.5185 15.3641 42.459 15.0816C42.4034 14.8153 42.3057 14.346 42.2416 14.0385C42.1128 13.4196 41.5199 12.0458 41.1332 11.4688C40.9959 11.2641 40.864 11.0295 40.8404 10.9473C40.757 10.6568 39.2833 9.04475 38.795 8.70957C38.6016 8.57729 38.3257 8.36858 38.1811 8.24568C36.9215 7.17622 33.9674 6.3834 31.9135 6.56306ZM52.3465 6.6654C51.7415 6.72171 50.7317 6.97556 50.4102 7.15164C50.301 7.21153 50.1621 7.26069 50.1009 7.26069C49.2159 7.26069 46.9787 9.5015 46.132 11.2369C45.0994 13.3516 45.0703 13.6309 45.0947 21.1399L45.1145 27.1612L45.3113 27.3408C45.5648 27.5719 48.3749 27.6246 48.6922 27.4043C48.9752 27.2072 48.9752 27.2067 49.0115 20.668L49.0465 14.2995L49.2618 13.7364C49.3806 13.4267 49.6544 12.9239 49.8705 12.6191C50.5847 11.6114 50.5235 11.6668 51.5393 11.1064C52.6207 10.5093 53.7835 10.5598 54.8376 11.2494C55.1161 11.4317 55.3663 11.5805 55.3934 11.5805C55.6524 11.5805 56.6825 13.2131 56.9151 13.9916C57.204 14.9601 57.2255 15.4807 57.226 21.4917C57.2268 27.1272 57.2285 27.1965 57.3696 27.3574C57.6035 27.6237 60.4918 27.6094 60.7864 27.3408L60.9831 27.1612L61.0214 20.9165L61.0602 14.6718L61.2768 13.9643C62.6207 9.57703 67.5347 9.65702 69.0038 14.0904L69.1968 14.6718L69.2325 20.9732C69.2625 26.1623 69.2856 27.2961 69.3653 27.3976C69.5413 27.6228 72.6682 27.5786 72.8725 27.348L73.0255 27.1759V20.9183C73.0255 13.8656 73.0339 14.0077 72.5009 12.3657C72.0418 10.9504 70.9624 9.22218 70.2171 8.70823C70.0818 8.61527 69.8342 8.40701 69.6665 8.24613C68.3411 6.97154 65.365 6.28732 63.4532 6.8178C61.8008 7.27633 60.732 7.91899 59.5992 9.13458L59.0578 9.71557L58.7566 9.34061C57.274 7.49398 54.7508 6.44061 52.3465 6.6654ZM75.9935 6.64261C75.5187 6.73959 75.5533 5.92443 75.5533 17.1343V27.2117L75.7382 27.3663C75.924 27.5214 78.6869 27.6121 79.0256 27.474C79.3543 27.3404 79.345 27.6528 79.345 17.0927C79.345 6.25916 79.3665 6.82897 78.9506 6.66138C78.7804 6.59256 76.3133 6.57692 75.9935 6.64261ZM90.0527 6.73512C89.1933 6.8978 87.9546 7.30895 87.3463 7.63431C86.8753 7.88592 86.1464 8.3583 86.0858 8.45126C86.0664 8.48031 85.9083 8.59784 85.7344 8.71136C85.5608 8.82532 85.1218 9.24095 84.7595 9.63512C82.3732 12.2294 81.4801 15.3131 82.0172 19.1038C82.3909 21.7397 84.5235 24.8971 86.7876 26.1668C87.7276 26.6937 87.9289 26.7902 88.5988 27.0347C92.0863 28.3075 96.1208 27.2867 98.7943 24.456C101.022 22.0981 102.144 18.0701 101.438 14.9699C101.041 13.2198 100.788 12.5324 100.207 11.6181C100.025 11.3311 99.793 10.9459 99.6912 10.7613C99.4306 10.2872 98.2027 9.02107 97.5151 8.51651C95.3294 6.91389 92.5796 6.25738 90.0527 6.73512ZM118.021 6.66987C117.221 6.87054 116.442 7.62269 116.146 8.47986L115.962 9.01079V11.6181C115.962 14.1529 115.967 14.2383 116.125 14.7089C116.941 17.1414 120.27 17.3546 121.359 15.0441C121.677 14.3692 121.696 14.1579 121.672 11.4304L121.65 8.86197L121.433 8.37796C120.821 7.01131 119.432 6.31637 118.021 6.66987ZM119.269 9.82283L119.509 10.0762V12.0037C119.509 13.698 119.495 13.9532 119.389 14.1154C119.089 14.5771 118.708 14.62 118.343 14.2325L118.104 13.9791V12.0274V10.0762L118.343 9.82283C118.515 9.64049 118.644 9.56943 118.806 9.56943C118.969 9.56943 119.098 9.64049 119.269 9.82283ZM11.8867 10.8311C16.1659 11.9979 17.9142 17.2156 15.2706 20.9286C14.7709 21.6302 14.5864 21.8125 13.6958 22.4856C11.4177 24.2066 7.86877 23.6185 5.87308 21.1891C2.11552 16.6154 6.35041 9.32094 11.8867 10.8311ZM34.301 10.8355C36.1172 11.4295 37.5585 12.7394 38.2321 14.4081L38.4736 15.007H32.7565H27.0399L27.1351 14.7205C27.3331 14.1248 27.8046 13.2846 28.1226 12.9588C28.2027 12.8766 28.338 12.7134 28.4231 12.5955C29.5113 11.0862 32.4111 10.2179 34.301 10.8355ZM93.2824 10.8749C94.4843 11.2444 95.1537 11.6619 96.001 12.5704C100.28 17.1615 96.2635 24.7367 90.3194 23.2847C89.3289 23.0429 88.9703 22.8485 87.8307 21.935C86.1295 20.571 85.3438 17.8404 85.9454 15.3846C86.7729 12.0096 90.1736 9.91936 93.2824 10.8749ZM126.011 15.8561C126.142 15.9956 126.249 16.1819 126.249 16.2709C126.249 16.6909 125.5 18.6918 125.273 18.8804C125.248 18.9005 125.03 19.1856 124.788 19.5132C124.546 19.8412 124.243 20.1929 124.115 20.2953C123.986 20.3981 123.648 20.6702 123.363 20.9008C122.582 21.5319 121.863 21.8702 120.456 22.2697C118.734 22.7591 115.993 22.2371 114.496 21.1346C113.465 20.3757 112.263 19.056 112.102 18.5076C112.071 18.4053 111.943 18.1018 111.817 17.8328C111.209 16.5453 111.307 15.8637 112.101 15.8637C112.5 15.8637 112.655 16.0246 112.845 16.6355C112.928 16.9072 113.103 17.3242 113.234 17.562C113.363 17.7997 113.471 18.021 113.471 18.0536C113.471 18.3418 114.91 19.776 115.52 20.096C119.227 22.04 123.511 20.4763 124.669 16.7575C125.032 15.5898 125.478 15.2908 126.011 15.8561Z" fill="#B1B5C3"/>
<path fill-rule="evenodd" clip-rule="evenodd" d="M16.6701 0.192354C16.5425 0.342069 16.5353 0.538261 16.5172 4.51219C16.5054 7.03634 16.4716 8.67561 16.4321 8.67561C16.3958 8.67561 16.3095 8.61259 16.2404 8.53572C16.0967 8.37484 15.3489 7.88234 14.8071 7.59095C13.37 6.81869 10.9118 6.41335 9.17859 6.66317C7.92354 6.84372 5.73616 7.66961 5.23145 8.15272C5.15434 8.22691 4.86997 8.4383 4.5995 8.62287C4.12891 8.94375 2.52797 10.5888 2.52797 10.7511C2.52797 10.7931 2.34934 11.1041 2.13068 11.4424C1.47852 12.4529 1.18867 13.2158 0.790961 14.9699C0.479621 16.3433 0.614858 18.5899 1.12505 20.5187C1.31927 21.2539 2.24486 23.0889 2.47152 23.1881C2.50269 23.2015 2.52797 23.2476 2.52797 23.29C2.52797 23.5515 3.79734 24.9083 4.70482 25.6166C7.15805 27.5321 10.9005 28.1037 13.7354 26.9958C14.4954 26.6991 15.8675 25.9558 16.2109 25.6551L16.4662 25.4312L16.5012 26.2839C16.5332 27.0566 16.5522 27.1545 16.7064 27.3283L16.8765 27.5205H18.4366C19.8678 27.5205 20.0102 27.5089 20.1622 27.3779L20.3278 27.2358V14.6066C20.3278 3.47804 20.3156 1.9648 20.2225 1.86961C20.1648 1.81017 19.896 1.63766 19.6259 1.48571C19.3554 1.33376 19.071 1.15098 18.994 1.07902C18.0932 0.242407 16.9873 -0.179475 16.6701 0.192354ZM75.6691 0.171796C75.5701 0.287993 75.5533 0.505192 75.5533 1.64481C75.5533 3.16833 75.5482 3.1518 76.1305 3.54463C76.3344 3.68228 76.561 3.85255 76.6339 3.92316C76.7072 3.99377 76.9444 4.14796 77.1605 4.2655C77.3771 4.38303 77.7698 4.63598 78.0327 4.82726C78.6616 5.28445 79.0344 5.29786 79.2421 4.87151C79.3963 4.55509 79.3926 0.573122 79.2375 0.255368L79.1305 0.0354881H77.458C75.9269 0.0354881 75.7757 0.0471079 75.6691 0.171796ZM117.157 0.0859885C116.159 0.220062 114.473 0.757695 113.626 1.21176C113.405 1.33019 113.138 1.44996 113.032 1.47722C112.806 1.53666 111.465 2.48366 110.774 3.07269C109.869 3.84495 108.401 5.56422 108.064 6.24888C107.828 6.72618 107.486 7.33622 107.436 7.36929C107.347 7.42739 106.682 9.13012 106.518 9.7187C105.886 11.9877 105.887 11.9769 105.887 18.9049V24.9069L106.056 25.4021C106.149 25.6747 106.302 25.9862 106.394 26.0944C106.487 26.203 106.614 26.3786 106.676 26.4854C106.838 26.7616 107.52 27.2211 108.009 27.3828C108.583 27.5719 119.045 27.5929 120.281 27.407C122.26 27.1098 124.708 26.1011 126.073 25.0191C126.305 24.8354 126.559 24.6567 126.637 24.6218C126.715 24.5865 127.074 24.2607 127.435 23.8978C127.797 23.5345 128.12 23.2261 128.154 23.2123C128.189 23.1984 128.462 22.8646 128.76 22.4704C129.06 22.0762 129.371 21.6758 129.455 21.581C129.536 21.4863 129.721 21.1668 129.864 20.8709C130.008 20.5746 130.167 20.2823 130.219 20.2206C130.271 20.1585 130.467 19.7559 130.658 19.3255C132.078 16.0992 132.127 11.6923 130.779 8.41417C130.561 7.88189 130.339 7.39655 130.288 7.33488C130.236 7.27365 130.08 6.98316 129.942 6.68998C129.422 5.58746 127.653 3.50888 126.565 2.72365C126.372 2.58377 126.056 2.34602 125.863 2.19407C123.882 0.638818 120.013 -0.297908 117.157 0.0859885ZM119.825 5.21607C121.355 5.63885 122.581 6.95098 122.983 8.59695C123.169 9.3567 123.136 14.1154 122.941 14.8126C122.784 15.377 122.598 15.8065 122.402 16.063C121.503 17.242 120.924 17.6969 119.908 18.0218C117.848 18.6806 115.401 17.2791 114.748 15.0664C114.539 14.3585 114.423 9.80406 114.59 8.89191C115.084 6.20419 117.433 4.55509 119.825 5.21607ZM31.9135 6.56306C30.4061 6.69535 28.0177 7.59364 27.1958 8.3373C27.0488 8.47048 26.8197 8.63896 26.6865 8.71136C26.2168 8.96789 24.8071 10.6063 24.4102 11.3571C23.2437 13.5635 22.891 14.8819 22.891 17.0324C22.891 26.0618 32.971 30.8821 39.3191 24.8886C41.4854 22.8431 41.5723 22.3891 39.8723 21.9819C39.3958 21.868 38.7133 21.6928 38.3564 21.5936C37.3908 21.3245 37.2244 21.3419 36.7812 21.7598C34.6857 23.7343 31.7227 23.9725 29.4569 22.3488C28.3536 21.5582 27.4246 20.3583 27.1403 19.3568L27.0475 19.0292H34.6166H42.1856L42.4122 18.8044L42.6394 18.5796L42.5997 17.0726C42.577 16.1931 42.5185 15.3641 42.459 15.0816C42.4034 14.8153 42.3057 14.346 42.2416 14.0385C42.1128 13.4196 41.5199 12.0458 41.1332 11.4688C40.9959 11.2641 40.864 11.0295 40.8404 10.9473C40.757 10.6568 39.2833 9.04475 38.795 8.70957C38.6016 8.57729 38.3257 8.36858 38.1811 8.24568C36.9215 7.17622 33.9674 6.3834 31.9135 6.56306ZM52.3465 6.6654C51.7415 6.72171 50.7317 6.97556 50.4102 7.15164C50.301 7.21153 50.1621 7.26069 50.1009 7.26069C49.2159 7.26069 46.9787 9.5015 46.132 11.2369C45.0994 13.3516 45.0703 13.6309 45.0947 21.1399L45.1145 27.1612L45.3113 27.3408C45.5648 27.5719 48.3749 27.6246 48.6922 27.4043C48.9752 27.2072 48.9752 27.2067 49.0115 20.668L49.0465 14.2995L49.2618 13.7364C49.3806 13.4267 49.6544 12.9239 49.8705 12.6191C50.5847 11.6114 50.5235 11.6668 51.5393 11.1064C52.6207 10.5093 53.7835 10.5598 54.8376 11.2494C55.1161 11.4317 55.3663 11.5805 55.3934 11.5805C55.6524 11.5805 56.6825 13.2131 56.9151 13.9916C57.204 14.9601 57.2255 15.4807 57.226 21.4917C57.2268 27.1272 57.2285 27.1965 57.3696 27.3574C57.6035 27.6237 60.4918 27.6094 60.7864 27.3408L60.9831 27.1612L61.0214 20.9165L61.0602 14.6718L61.2768 13.9643C62.6207 9.57703 67.5347 9.65702 69.0038 14.0904L69.1968 14.6718L69.2325 20.9732C69.2625 26.1623 69.2856 27.2961 69.3653 27.3976C69.5413 27.6228 72.6682 27.5786 72.8725 27.348L73.0255 27.1759V20.9183C73.0255 13.8656 73.0339 14.0077 72.5009 12.3657C72.0418 10.9504 70.9624 9.22218 70.2171 8.70823C70.0818 8.61527 69.8342 8.40701 69.6665 8.24613C68.3411 6.97154 65.365 6.28732 63.4532 6.8178C61.8008 7.27633 60.732 7.91899 59.5992 9.13458L59.0578 9.71557L58.7566 9.34061C57.274 7.49398 54.7508 6.44061 52.3465 6.6654ZM75.9935 6.64261C75.5187 6.73959 75.5533 5.92443 75.5533 17.1343V27.2117L75.7382 27.3663C75.924 27.5214 78.6869 27.6121 79.0256 27.474C79.3543 27.3404 79.345 27.6528 79.345 17.0927C79.345 6.25916 79.3665 6.82897 78.9506 6.66138C78.7804 6.59256 76.3133 6.57692 75.9935 6.64261ZM90.0527 6.73512C89.1933 6.8978 87.9546 7.30895 87.3463 7.63431C86.8753 7.88592 86.1464 8.3583 86.0858 8.45126C86.0664 8.48031 85.9083 8.59784 85.7344 8.71136C85.5608 8.82532 85.1218 9.24095 84.7595 9.63512C82.3732 12.2294 81.4801 15.3131 82.0172 19.1038C82.3909 21.7397 84.5235 24.8971 86.7876 26.1668C87.7276 26.6937 87.9289 26.7902 88.5988 27.0347C92.0863 28.3075 96.1208 27.2867 98.7943 24.456C101.022 22.0981 102.144 18.0701 101.438 14.9699C101.041 13.2198 100.788 12.5324 100.207 11.6181C100.025 11.3311 99.793 10.9459 99.6912 10.7613C99.4306 10.2872 98.2027 9.02107 97.5151 8.51651C95.3294 6.91389 92.5796 6.25738 90.0527 6.73512ZM118.021 6.66987C117.221 6.87054 116.442 7.62269 116.146 8.47986L115.962 9.01079V11.6181C115.962 14.1529 115.967 14.2383 116.125 14.7089C116.941 17.1414 120.27 17.3546 121.359 15.0441C121.677 14.3692 121.696 14.1579 121.672 11.4304L121.65 8.86197L121.433 8.37796C120.821 7.01131 119.432 6.31637 118.021 6.66987ZM119.269 9.82283L119.509 10.0762V12.0037C119.509 13.698 119.495 13.9532 119.389 14.1154C119.089 14.5771 118.708 14.62 118.343 14.2325L118.104 13.9791V12.0274V10.0762L118.343 9.82283C118.515 9.64049 118.644 9.56943 118.806 9.56943C118.969 9.56943 119.098 9.64049 119.269 9.82283ZM11.8867 10.8311C16.1659 11.9979 17.9142 17.2156 15.2706 20.9286C14.7709 21.6302 14.5864 21.8125 13.6958 22.4856C11.4177 24.2066 7.86877 23.6185 5.87308 21.1891C2.11552 16.6154 6.35041 9.32094 11.8867 10.8311ZM34.301 10.8355C36.1172 11.4295 37.5585 12.7394 38.2321 14.4081L38.4736 15.007H32.7565H27.0399L27.1351 14.7205C27.3331 14.1248 27.8046 13.2846 28.1226 12.9588C28.2027 12.8766 28.338 12.7134 28.4231 12.5955C29.5113 11.0862 32.4111 10.2179 34.301 10.8355ZM93.2824 10.8749C94.4843 11.2444 95.1537 11.6619 96.001 12.5704C100.28 17.1615 96.2635 24.7367 90.3194 23.2847C89.3289 23.0429 88.9703 22.8485 87.8307 21.935C86.1295 20.571 85.3438 17.8404 85.9454 15.3846C86.7729 12.0096 90.1736 9.91936 93.2824 10.8749ZM126.011 15.8561C126.142 15.9956 126.249 16.1819 126.249 16.2709C126.249 16.6909 125.5 18.6918 125.273 18.8804C125.248 18.9005 125.03 19.1856 124.788 19.5132C124.546 19.8412 124.243 20.1929 124.115 20.2953C123.986 20.3981 123.648 20.6702 123.363 20.9008C122.582 21.5319 121.863 21.8702 120.456 22.2697C118.734 22.7591 115.993 22.2371 114.496 21.1346C113.465 20.3757 112.263 19.056 112.102 18.5076C112.071 18.4053 111.943 18.1018 111.817 17.8328C111.209 16.5453 111.307 15.8637 112.101 15.8637C112.5 15.8637 112.655 16.0246 112.845 16.6355C112.928 16.9072 113.103 17.3242 113.234 17.562C113.363 17.7997 113.471 18.021 113.471 18.0536C113.471 18.3418 114.91 19.776 115.52 20.096C119.227 22.04 123.511 20.4763 124.669 16.7575C125.032 15.5898 125.478 15.2908 126.011 15.8561Z" fill="#B1B5C3"/>
</g>
<defs>
<clipPath id="clip0_2680_55022">
<rect width="131.25" height="28" fill="white" transform="translate(0.625)"/>
</clipPath>
</defs>
</svg>
