<svg xmlns="http://www.w3.org/2000/svg" width="106" height="24" viewBox="0 0 106 24"><g fill="none" fill-rule="evenodd"><g fill="#FFC516"><path d="M103.635 12.37l1.37-5.413h-20.97l-1.332 5.412z"></path><path d="M94.518 19.327h-5.865L93.712 0h5.865z"></path></g><path fill="#FFF" d="M12.56 19.327H2.816a2.815 2.815 0 01-2.73-3.5l3.44-13.698A2.815 2.815 0 016.256 0h17.021l-1.37 5.447H8.975c-.117 0-.222.076-.316.228a2.73 2.73 0 00-.21.404l-1.793 7.168a.647.647 0 000 .422c.047.141.128.211.246.211h6.642c.093 0 .193-.07.298-.21.105-.141.182-.282.229-.423l.21-.878h-5.13l1.37-5.411h11.034l-3.092 12.369C18.416 19.443 11.611 24 11.4 24l1.16-4.673zM34.052 5.929l-7.908 13.398h-6.501L31.977 0h6.29l2.67 19.327H35zm18.614 13.398l-2.038-9.699-2.424 9.699H42.3L47.114 0h7.415l2.108 9.769L63.63 0h8.363l-4.814 19.327h-5.903L63.7 9.628l-6.887 9.699zM91.566 0H73.68l-4.814 19.327H86.75l1.37-5.447H76.175l2.074-8.433h11.947z"></path><path fill="#FFF" d="M80.906 12.37h-4.582l1.35-5.412h4.58z"></path></g></svg>