<svg width="63" height="28" viewBox="0 0 63 28" fill="none" xmlns="http://www.w3.org/2000/svg">
<g clip-path="url(#clip0_2680_55011)">
<path fill-rule="evenodd" clip-rule="evenodd" d="M11.3498 12.1493C11.1491 11.9705 10.8688 11.9107 10.6123 11.9917L3.63278 14.194L13.6057 4.65437C13.9129 4.35998 13.9232 3.87206 13.6291 3.56468C13.6148 3.54996 13.6006 3.53567 13.585 3.52225L9.86189 0.195607C9.54401 -0.0879627 9.05699 -0.0598223 8.77366 0.257949C8.7412 0.294749 8.71223 0.334146 8.68717 0.37614L0.583536 13.9845C0.43821 14.2286 0.48622 14.5421 0.698585 14.7313L2.2777 16.1444C2.4719 16.3176 2.7405 16.3804 2.99136 16.3106L8.64564 14.7347L2.13757 24.961C1.82356 25.455 2.47493 25.9901 2.8975 25.5849L13.7697 15.1625C14.0054 14.9352 14.0123 14.5594 13.7848 14.3235C13.7749 14.3131 13.7645 14.3031 13.7536 14.2932L11.3498 12.1493Z" fill="#B1B5C3"/>
<path fill-rule="evenodd" clip-rule="evenodd" d="M62.1081 10.6909L61.0284 9.72811C60.8818 9.59728 60.657 9.60995 60.5261 9.75646C60.4968 9.78964 60.4733 9.828 60.458 9.86993L58.2376 15.8598C57.174 18.7293 55.9132 19.7117 55.1225 19.7117C54.8698 19.7117 54.5102 19.528 54.5102 18.916C54.5102 18.7079 54.5468 18.2682 54.8043 17.5733L56.9195 11.8709C57.0741 11.4547 56.9575 10.9866 56.6263 10.6913L55.5462 9.72811C55.3996 9.59728 55.1748 9.60995 55.0439 9.75646C55.0146 9.78964 54.9911 9.828 54.9758 9.86993L52.7558 15.8598C51.6927 18.7293 50.4314 19.7117 49.6415 19.7117C49.3884 19.7117 49.0288 19.528 49.0288 18.916C49.0288 18.7079 49.0659 18.2682 49.3225 17.5733L53.9419 5.10413C54.0964 4.6884 53.9799 4.22033 53.6491 3.92457L52.5686 2.96137C52.4223 2.83051 52.1976 2.84359 52.0667 2.98973C52.037 3.02288 52.0138 3.06171 51.9981 3.10315L47.2705 15.8598C46.9345 16.7658 46.7773 17.6871 46.7773 18.2237C46.7773 20.0384 48.0024 21.0801 49.3221 21.0801C50.3114 21.0801 51.4038 20.4471 52.3931 19.1441C52.7318 20.3799 53.7316 21.0801 54.8039 21.0801C55.4013 21.0801 56.0376 20.8467 56.6664 20.3786L55.1115 24.5708C53.5038 23.8091 51.6687 23.6783 49.9693 24.2052C49.762 24.2685 49.8048 24.5708 50.0186 24.5917C52.2308 24.7998 54.0511 25.756 55.3948 27.5528C55.6361 27.873 56.0913 27.9371 56.4112 27.6959C56.522 27.6126 56.6067 27.4996 56.6546 27.3697L62.4001 11.8726C62.5554 11.4561 62.4397 10.9871 62.1081 10.6909Z" fill="#B1B5C3"/>
<path fill-rule="evenodd" clip-rule="evenodd" d="M38.9328 19.7026C38.4996 19.7026 38.1766 19.2767 38.1766 18.6424C38.1766 18.4304 38.2427 17.9254 38.5022 17.2178C39.9869 13.3448 42.0069 11.2427 42.9129 11.2427C43.5113 11.2427 43.6025 11.8655 43.6025 12.6074C43.6025 15.6305 40.9061 19.7003 38.9328 19.7003V19.7026ZM43.7391 9.43539C42.6705 9.43539 41.6768 10.0492 40.7884 10.9862L43.0565 4.81652C43.2126 4.39247 43.0949 3.91551 42.7609 3.61458L41.6676 2.63267C41.52 2.49932 41.2925 2.51222 41.1608 2.66157C41.1308 2.69535 41.1075 2.73447 41.0916 2.77714L36.3179 15.7754C35.9786 16.699 35.8203 17.6374 35.8203 18.1841C35.8203 19.9443 37.0529 21.0947 38.7283 21.0947C42.6816 21.0947 46.2488 16.4075 46.2488 12.6269C46.2465 10.7755 45.3551 9.43539 43.7391 9.43539Z" fill="#B1B5C3"/>
<path fill-rule="evenodd" clip-rule="evenodd" d="M28.8345 19.7026C28.4008 19.7026 28.0774 19.2767 28.0774 18.6424C28.0774 18.4304 28.1435 17.9254 28.4034 17.2178C29.8899 13.3448 31.9126 11.2427 32.8197 11.2427C33.4194 11.2427 33.5107 11.8655 33.5107 12.6074C33.5099 15.6305 30.8125 19.7003 28.834 19.7003L28.8345 19.7026ZM30.693 10.9862L32.9636 4.81652C33.1198 4.39247 33.0024 3.91551 32.6676 3.61458L31.5733 2.63267C31.425 2.49932 31.1978 2.51222 31.0654 2.66157C31.0354 2.69535 31.012 2.73447 30.9965 2.77714L26.2162 15.7754C25.1396 18.6988 23.8657 19.7003 23.0662 19.7003C22.8103 19.7003 22.4472 19.5136 22.4472 18.8895C22.4472 18.6775 22.4842 18.2295 22.7445 17.5214L24.8815 11.7108C25.0381 11.2872 24.9203 10.8098 24.5859 10.5084L23.4933 9.52695C23.3455 9.39402 23.1178 9.4069 22.9859 9.55586C22.9559 9.59009 22.9325 9.62873 22.9167 9.67185L20.6716 15.7754C19.5967 18.6993 18.3216 19.7003 17.5225 19.7003C17.2666 19.7003 16.903 19.5136 16.903 18.8895C16.903 18.6775 16.9401 18.2295 17.2 17.5214L19.3369 11.7108C19.4931 11.2872 19.3753 10.8103 19.0399 10.5088L17.9483 9.52737C17.8005 9.39451 17.5733 9.40739 17.4409 9.55628C17.4109 9.59009 17.3875 9.62964 17.3716 9.67227L15.1275 15.7754C14.7882 16.699 14.6289 17.6374 14.6289 18.1841C14.6289 20.0337 15.867 21.0947 17.2013 21.0947C18.2016 21.0947 19.306 20.4497 20.3063 19.1225C20.6487 20.3818 21.6596 21.0947 22.7432 21.0947C23.7466 21.0947 24.8563 20.4462 25.8562 19.1109C26.2145 20.3319 27.269 21.0947 28.6258 21.0947C32.585 21.0947 36.1586 16.4075 36.1586 12.6269C36.1577 10.7755 35.2651 9.43539 33.6475 9.43539C32.5771 9.43539 31.5821 10.0492 30.693 10.9862Z" fill="#B1B5C3"/>
</g>
<defs>
<clipPath id="clip0_2680_55011">
<rect width="62.125" height="28" fill="white" transform="translate(0.5)"/>
</clipPath>
</defs>
</svg>
