<svg xmlns="http://www.w3.org/2000/svg"  viewBox="0 0 30 30" width="30px" height="30px"><path fill="#f78f8f" d="M15,28.5C7.556,28.5,1.5,22.444,1.5,15S7.556,1.5,15,1.5S28.5,7.556,28.5,15S22.444,28.5,15,28.5z"/><path fill="#c74343" d="M15,2c7.168,0,13,5.832,13,13s-5.832,13-13,13S2,22.168,2,15S7.832,2,15,2 M15,1C7.23,1,1,7.23,1,15 s6.23,14,14,14s14-6.23,14-14S22.77,1,15,1L15,1z"/><path fill="#fff" d="M15,26C8.95,26,4,21.05,4,15S8.95,4,15,4s11,4.95,11,11S21.05,26,15,26z"/><path fill="#f78f8f" d="M15,23.5c-4.767,0-8.5-3.733-8.5-8.5s3.733-8.5,8.5-8.5s8.5,3.733,8.5,8.5S19.767,23.5,15,23.5z"/><path fill="#c74343" d="M15,7c4.486,0,8,3.514,8,8s-3.514,8-8,8s-8-3.514-8-8S10.514,7,15,7 M15,6c-5.025,0-9,3.975-9,9 s3.975,9,9,9s9-3.975,9-9S20.025,6,15,6L15,6z"/><g><path fill="#8bb7f0" d="M15,20.5c-3.032,0-5.5-2.467-5.5-5.5s2.468-5.5,5.5-5.5s5.5,2.467,5.5,5.5S18.032,20.5,15,20.5z"/><path fill="#4e7ab5" d="M15,10c2.757,0,5,2.243,5,5s-2.243,5-5,5s-5-2.243-5-5S12.243,10,15,10 M15,9c-3.3,0-6,2.7-6,6 s2.7,6,6,6s6-2.7,6-6S18.3,9,15,9L15,9z"/></g><path fill="#fff" d="M12.13 19L13.239 15.478 10.37 13.196 13.957 13.196 15 10 16.109 13.196 19.761 13.196 16.891 15.478 17.935 18.935 15 16.848z"/></svg>