<svg width="10" height="10" viewBox="0 0 10 10" fill="none" xmlns="http://www.w3.org/2000/svg">
<path d="M7.7593 3.20154C7.6927 3.13681 7.59924 3.10739 7.50779 3.12243C7.41617 3.13741 7.33705 3.19493 7.29455 3.27747C7.14838 3.56144 6.96271 3.82239 6.74428 4.05308C6.76605 3.88644 6.77701 3.7188 6.77701 3.55072C6.77701 3.2282 6.73379 2.8963 6.6485 2.56413C6.36807 1.4731 5.63271 0.550422 4.63105 0.0327073C4.54385 -0.0123512 4.43994 -0.0107692 4.35414 0.0369261C4.26834 0.0846409 4.21215 0.172121 4.20445 0.269973C4.12637 1.26146 3.61566 2.16349 2.80252 2.74536C2.79176 2.75312 2.78107 2.76097 2.77039 2.76878C2.74826 2.78497 2.7274 2.80029 2.70791 2.81314C2.70486 2.81517 2.70184 2.81724 2.69887 2.81937C2.18746 3.18552 1.76549 3.67361 1.47852 4.23101C1.18691 4.79798 1.03906 5.4064 1.03906 6.03931C1.03906 6.36173 1.08229 6.69362 1.16754 7.02585C1.61744 8.77697 3.1933 9.99997 4.99975 9.99997C7.18356 9.99997 8.9602 8.22322 8.9602 6.03931C8.9602 4.96236 8.53371 3.95454 7.7593 3.20154Z" fill="#3772FF"/>
</svg>
