<svg width="14" height="14" viewBox="0 0 14 14" fill="none" xmlns="http://www.w3.org/2000/svg">
<path d="M9.75073 13.25C9.75073 13.4489 9.67171 13.6397 9.53106 13.7803C9.39041 13.921 9.19964 14 9.00073 14H5.00073C4.80182 14 4.61105 13.921 4.4704 13.7803C4.32975 13.6397 4.25073 13.4489 4.25073 13.25C4.25073 13.0511 4.32975 12.8603 4.4704 12.7197C4.61105 12.579 4.80182 12.5 5.00073 12.5H9.00073C9.19964 12.5 9.39041 12.579 9.53106 12.7197C9.67171 12.8603 9.75073 13.0511 9.75073 13.25ZM13.0207 10.8745C12.9124 11.0655 12.755 11.2241 12.5649 11.3341C12.3749 11.444 12.1589 11.5013 11.9393 11.5H2.06217C1.84256 11.5013 1.62658 11.444 1.43648 11.3341C1.24638 11.2241 1.08904 11.0654 0.980668 10.8744C0.871238 10.6835 0.813919 10.4671 0.814457 10.247C0.814994 10.0269 0.873369 9.81081 0.983731 9.62037C1.33936 9.0085 1.76342 7.84037 1.76342 5.75V5.5C1.76176 4.10932 2.31259 2.77494 3.29475 1.79039C4.2769 0.80583 5.60993 0.251739 7.00061 0.25L7.04061 0.250125C9.90673 0.271438 12.2385 2.65188 12.2385 5.5565V5.75C12.2385 7.8405 12.6623 9.00875 13.0178 9.62062C13.1281 9.81104 13.1865 10.0271 13.187 10.2472C13.1875 10.4672 13.1302 10.6836 13.0207 10.8745ZM11.5237 10C10.8807 8.65312 10.7385 6.97206 10.7385 5.75V5.5565C10.7385 3.47287 9.07467 1.76525 7.02948 1.75012C7.01996 1.75005 7.01044 1.75001 7.00092 1.75C6.50928 1.75082 6.02262 1.84847 5.56872 2.03737C5.11482 2.22627 4.70258 2.50272 4.35552 2.85094C4.00846 3.19916 3.73338 3.61233 3.546 4.06685C3.35862 4.52138 3.2626 5.00836 3.26342 5.5V5.75C3.26342 6.97206 3.12117 8.65319 2.47779 10H11.5237Z" fill="white"/>
</svg>
