<svg width="14" height="14" viewBox="0 0 14 14" fill="none" xmlns="http://www.w3.org/2000/svg">
<path d="M13.0089 8.97241C12.7855 9.64616 12.4491 10.2807 12.0107 10.8477C11.277 11.7966 10.2883 12.5169 9.1602 12.9244C8.03209 13.3319 6.81126 13.4097 5.64056 13.1486C4.46987 12.8876 3.39772 12.2986 2.54959 11.4504C1.70145 10.6023 1.1124 9.53013 0.851363 8.35944C0.590325 7.18874 0.668097 5.96791 1.07558 4.8398C1.48306 3.71169 2.2034 2.72296 3.1523 1.9893C3.71928 1.55094 4.35384 1.21447 5.02759 0.991088C4.69163 1.84583 4.54862 2.77147 4.61793 3.7009C4.72758 5.17128 5.36134 6.55346 6.40394 7.59606C7.44654 8.63866 8.82873 9.27242 10.2991 9.38207C11.2285 9.45138 12.1542 9.30837 13.0089 8.97241Z" stroke="white" stroke-width="1.4" stroke-linecap="round" stroke-linejoin="round"/>
</svg>
