<svg width="17" height="16" viewBox="0 0 17 16" fill="none" xmlns="http://www.w3.org/2000/svg">
<path d="M8.33203 1.44062C10.4695 1.44062 10.7227 1.45 11.5633 1.4875C12.3445 1.52187 12.7664 1.65313 13.0477 1.7625C13.4195 1.90625 13.6883 2.08125 13.9664 2.35938C14.2477 2.64062 14.4195 2.90625 14.5633 3.27813C14.6727 3.55938 14.8039 3.98438 14.8383 4.7625C14.8758 5.60625 14.8852 5.85938 14.8852 7.99375C14.8852 10.1313 14.8758 10.3844 14.8383 11.225C14.8039 12.0063 14.6727 12.4281 14.5633 12.7094C14.4195 13.0813 14.2445 13.35 13.9664 13.6281C13.6852 13.9094 13.4195 14.0813 13.0477 14.225C12.7664 14.3344 12.3414 14.4656 11.5633 14.5C10.7195 14.5375 10.4664 14.5469 8.33203 14.5469C6.19453 14.5469 5.94141 14.5375 5.10078 14.5C4.31953 14.4656 3.89766 14.3344 3.61641 14.225C3.24453 14.0813 2.97578 13.9063 2.69766 13.6281C2.41641 13.3469 2.24453 13.0813 2.10078 12.7094C1.99141 12.4281 1.86016 12.0031 1.82578 11.225C1.78828 10.3813 1.77891 10.1281 1.77891 7.99375C1.77891 5.85625 1.78828 5.60313 1.82578 4.7625C1.86016 3.98125 1.99141 3.55938 2.10078 3.27813C2.24453 2.90625 2.41953 2.6375 2.69766 2.35938C2.97891 2.07812 3.24453 1.90625 3.61641 1.7625C3.89766 1.65313 4.32266 1.52187 5.10078 1.4875C5.94141 1.45 6.19453 1.44062 8.33203 1.44062ZM8.33203 0C6.16016 0 5.88828 0.009375 5.03516 0.046875C4.18516 0.084375 3.60078 0.221875 3.09453 0.41875C2.56641 0.625 2.11953 0.896875 1.67578 1.34375C1.22891 1.7875 0.957031 2.23438 0.750781 2.75938C0.553906 3.26875 0.416406 3.85 0.378906 4.7C0.341406 5.55625 0.332031 5.82812 0.332031 8C0.332031 10.1719 0.341406 10.4438 0.378906 11.2969C0.416406 12.1469 0.553906 12.7313 0.750781 13.2375C0.957031 13.7656 1.22891 14.2125 1.67578 14.6562C2.11953 15.1 2.56641 15.375 3.09141 15.5781C3.60078 15.775 4.18203 15.9125 5.03203 15.95C5.88516 15.9875 6.15703 15.9969 8.32891 15.9969C10.5008 15.9969 10.7727 15.9875 11.6258 15.95C12.4758 15.9125 13.0602 15.775 13.5664 15.5781C14.0914 15.375 14.5383 15.1 14.982 14.6562C15.4258 14.2125 15.7008 13.7656 15.9039 13.2406C16.1008 12.7313 16.2383 12.15 16.2758 11.3C16.3133 10.4469 16.3227 10.175 16.3227 8.00313C16.3227 5.83125 16.3133 5.55938 16.2758 4.70625C16.2383 3.85625 16.1008 3.27188 15.9039 2.76562C15.707 2.23438 15.4352 1.7875 14.9883 1.34375C14.5445 0.9 14.0977 0.625 13.5727 0.421875C13.0633 0.225 12.482 0.0875 11.632 0.05C10.7758 0.009375 10.5039 0 8.33203 0Z" fill="#777E90"/>
<path d="M8.33203 3.89062C6.06328 3.89062 4.22266 5.73125 4.22266 8C4.22266 10.2688 6.06328 12.1094 8.33203 12.1094C10.6008 12.1094 12.4414 10.2688 12.4414 8C12.4414 5.73125 10.6008 3.89062 8.33203 3.89062ZM8.33203 10.6656C6.86016 10.6656 5.66641 9.47188 5.66641 8C5.66641 6.52813 6.86016 5.33437 8.33203 5.33437C9.80391 5.33437 10.9977 6.52813 10.9977 8C10.9977 9.47188 9.80391 10.6656 8.33203 10.6656Z" fill="#777E90"/>
<path d="M13.5633 3.72793C13.5633 4.25918 13.132 4.68731 12.6039 4.68731C12.0727 4.68731 11.6445 4.25606 11.6445 3.72793C11.6445 3.19668 12.0758 2.76855 12.6039 2.76855C13.132 2.76855 13.5633 3.19981 13.5633 3.72793Z" fill="#777E90"/>
</svg>
