<svg width="32" height="28" viewBox="0 0 32 28" fill="none" xmlns="http://www.w3.org/2000/svg">
<path d="M16.9597 0.0914108C19.1473 0.0914108 21.3349 0.0970039 23.522 0.0869363C23.9895 0.0846991 24.3153 0.250813 24.5526 0.67365C25.7354 2.7828 26.9325 4.88355 28.1257 6.98655C29.1454 8.7836 30.1699 10.5779 31.1802 12.3799C31.2566 12.5159 31.3038 12.739 31.2445 12.8615C31.1978 12.9572 30.966 12.9941 30.8155 12.9969C30.0743 13.0092 29.3321 12.9834 28.5916 13.0075C28.095 13.0237 27.762 12.8296 27.5176 12.3934C26.4622 10.5096 25.3953 8.63259 24.3317 6.75388C23.784 5.78628 23.2346 4.82035 22.6853 3.85387C22.4666 3.46851 22.132 3.31526 21.7019 3.31526C18.5353 3.31861 15.3682 3.30631 12.2016 3.32532C11.6291 3.32868 11.2517 3.13852 10.9863 2.61836C10.6578 1.97516 10.2733 1.3616 9.9299 0.725665C9.85848 0.593669 9.78431 0.368268 9.8442 0.280457C9.92166 0.167477 10.1326 0.102038 10.2875 0.0992411C11.1748 0.0830212 12.0631 0.0914108 12.9509 0.0914108C14.287 0.0914108 15.6231 0.0914108 16.9597 0.0914108Z" fill="#3772FF"/>
<path d="M27.5947 15.4948C27.7952 15.1447 28.1105 14.9763 28.5061 14.9741C29.284 14.9707 30.0625 14.9691 30.8409 14.973C31.2903 14.9752 31.42 15.204 31.1997 15.5949C30.7267 16.4344 30.246 17.27 29.7812 18.114L27.0091 22.9962C26.191 24.4381 25.367 25.8767 24.5577 27.3236C24.3363 27.7201 24.0408 27.9131 23.5848 27.9125C19.1354 27.9064 14.686 27.9103 10.2366 27.9109C9.81416 27.9109 9.68726 27.6922 9.89437 27.3264C10.2872 26.6328 10.68 25.9393 11.07 25.2441C11.2843 24.8621 11.5936 24.6814 12.0358 24.682C15.2217 24.6898 18.408 24.6809 21.5939 24.692C22.1454 24.6937 22.5223 24.4968 22.7899 23.9884C23.2695 23.0784 23.7721 22.1791 24.3138 21.3066L27.5947 15.4948Z" fill="#3772FF"/>
<path d="M2.12114 16.7704C1.69702 16.0316 1.28609 15.2844 0.855926 14.5494C0.635077 14.1719 0.647163 13.8195 0.860321 13.4454C1.90688 11.6108 2.94575 9.77183 3.98956 7.93506C5.18006 5.8399 6.3711 3.74529 7.5638 1.6518C7.75553 1.31454 8.00989 1.31566 8.20272 1.65292C8.61145 2.36883 9.01799 3.08587 9.42343 3.80402C9.61791 4.14911 9.61297 4.49644 9.41849 4.83985C8.49554 6.468 7.57094 8.09558 6.64799 9.72317C5.94424 10.9643 5.24269 12.2065 4.53784 13.4465C4.31534 13.8385 4.32908 14.2083 4.55817 14.6026L8.49609 21.5307C8.78835 22.0464 9.07238 22.5677 9.37509 23.0772C9.6234 23.4961 9.61956 23.8899 9.36849 24.3099C8.96965 24.9783 8.59772 25.6629 8.20931 26.3374C7.9989 26.7037 7.76981 26.7132 7.5638 26.3536C6.80786 25.0348 6.06016 23.7114 5.30916 22.3904L2.12114 16.7704Z" fill="#3772FF"/>
<path d="M6.6393 14.5068C6.44098 14.159 6.44317 13.8374 6.64589 13.4833C7.92429 11.2472 9.19225 9.00494 10.463 6.76435C10.6816 6.37955 10.8574 6.37564 11.0805 6.75541L14.9415 13.5465C15.1244 13.8648 15.1046 14.1662 14.9316 14.4705C13.6559 16.7195 12.3808 18.969 11.0969 21.2129C11.0233 21.3421 10.8744 21.5077 10.7596 21.5088C10.6415 21.5099 10.5728 21.3735 10.463 21.176L6.6393 14.5068Z" fill="#3772FF"/>
<path d="M21.5206 22.3966C21.3541 22.6841 21.0816 22.8077 20.7558 22.8077C18.1925 22.8083 15.6291 22.8094 13.0651 22.8072C12.6762 22.8066 12.5641 22.6114 12.7553 22.2747C14.0397 20.0089 15.3291 17.746 16.6119 15.4791C16.8108 15.1279 17.0921 14.9701 17.4871 14.9707C19.9955 14.9752 22.5045 14.9724 25.0129 14.9741C25.1036 14.9741 25.1975 14.9774 25.2849 14.9998C25.5019 15.0552 25.5892 15.228 25.4794 15.4243C25.0316 16.2241 22.0254 21.5258 21.5206 22.3966Z" fill="#3772FF"/>
<path d="M12.7078 5.65125C12.5914 5.41187 12.6837 5.25079 12.9452 5.22897C12.9908 5.22506 13.0369 5.22674 13.0825 5.22674C15.6272 5.22674 18.1714 5.23345 20.7161 5.2217C21.1319 5.21947 21.3978 5.37384 21.6028 5.7385C22.8383 7.93546 24.0887 10.1235 25.3248 12.3199C25.4165 12.4832 25.5181 12.7147 25.4704 12.8685C25.3945 13.1135 25.1231 12.9972 24.9336 12.9972C22.4076 13.0028 19.881 13.0011 17.355 13.0056C17.0287 13.0061 16.7996 12.8663 16.6386 12.5822C16.0991 11.6302 12.8556 5.95495 12.7078 5.65125Z" fill="#3772FF"/>
</svg>
