<svg width="104" height="28" viewBox="0 0 104 28" fill="none" xmlns="http://www.w3.org/2000/svg">
<g clip-path="url(#clip0_2680_55008)">
<path d="M25.2502 7.00154C25.25 7.00105 25.2495 7.00014 25.2491 6.99921C25.2479 6.99759 25.2465 6.99551 25.2454 6.9939C25.2166 6.94589 25.1861 6.89949 25.1532 6.85425C25.1447 6.84248 25.1356 6.8314 25.1266 6.81962C25.1007 6.7857 25.074 6.75269 25.0458 6.7206C25.0299 6.70237 25.0129 6.68459 24.9965 6.66705C24.9736 6.64351 24.9505 6.62019 24.9263 6.59735C24.9041 6.57657 24.8812 6.55603 24.8583 6.53664C24.837 6.51886 24.816 6.50155 24.7942 6.48447C24.7678 6.4637 24.7405 6.44407 24.7129 6.42468C24.6921 6.41038 24.6715 6.3963 24.65 6.38245C24.6206 6.36398 24.5909 6.34644 24.5606 6.32959C24.5391 6.31735 24.5173 6.30558 24.4951 6.29427C24.4636 6.27834 24.4317 6.26311 24.3993 6.24926C24.3773 6.23957 24.3553 6.22987 24.3326 6.22087C24.2979 6.20725 24.2625 6.19502 24.227 6.18325C24.2066 6.17679 24.1866 6.17009 24.1659 6.16432C24.1247 6.15231 24.0828 6.1417 24.0407 6.13269C24.0259 6.1297 24.0113 6.126 23.9965 6.12323C23.9444 6.11307 23.8914 6.10546 23.8389 6.09969C23.8333 6.09923 23.8284 6.0983 23.8231 6.09784C23.4469 6.06022 23.056 6.13177 22.7034 6.33098L12.874 11.8908L5.84442 7.91441L12.8798 3.93456L17.5704 6.58603C18.4618 7.08946 19.6017 6.79077 20.1166 5.91757C20.6313 5.04413 20.3258 3.92694 19.4343 3.42283L13.8122 0.244615C13.2356 -0.0815385 12.5249 -0.0815385 11.9483 0.244615L1.22926 6.30766C0.935502 6.463 0.679477 6.69544 0.500307 6.99921C-0.0147525 7.8729 0.290579 8.98961 1.18203 9.49347L11.9425 15.5807C11.9441 15.5817 11.9455 15.5819 11.9469 15.5828C12.0033 15.6145 12.0619 15.6415 12.1212 15.6668C12.1376 15.6741 12.1534 15.6832 12.1698 15.6897C12.2054 15.704 12.2425 15.7139 12.2788 15.7257C12.4735 15.7901 12.6735 15.8257 12.8726 15.8257C12.8731 15.8257 12.8738 15.8257 12.8745 15.8257C12.8747 15.8257 12.8754 15.8257 12.8761 15.8257C13.0796 15.8257 13.2842 15.789 13.4825 15.7216C13.5143 15.7107 13.5469 15.7026 13.5782 15.6899C13.5969 15.6826 13.6149 15.6719 13.6337 15.6638C13.6907 15.6392 13.7471 15.6133 13.8014 15.5828C13.803 15.5819 13.8046 15.5817 13.8062 15.5807L21.7742 11.0741V19.0336L12.8768 24.0659L3.98049 19.0336V14.001C3.98049 12.9926 3.14574 12.1752 2.11678 12.1752C1.08736 12.1752 0.252847 12.9926 0.252847 14.001V20.0878C0.252847 20.7402 0.607716 21.3426 1.18458 21.6687L11.945 27.7558C12.233 27.9185 12.555 28 12.8768 28C13.1985 28 13.5206 27.9185 13.8087 27.7558L24.5696 21.6687C25.1465 21.3426 25.5014 20.7402 25.5014 20.0878V7.91441C25.5014 7.58156 25.4092 7.27041 25.2502 7.00154Z" fill="#B1B5C3"/>
<path fill-rule="evenodd" clip-rule="evenodd" d="M35.1664 17.2185C35.7883 17.6216 36.4199 17.9206 37.0613 18.1156C37.7026 18.3106 38.3342 18.4081 38.9561 18.4081C39.578 18.4081 40.0801 18.2651 40.4623 17.9791C40.8445 17.6931 41.0356 17.3226 41.0356 16.8676C41.0356 16.4905 40.8834 16.1948 40.5789 15.9803C40.2744 15.7658 39.8922 15.574 39.4322 15.4051C38.9723 15.2361 38.4768 15.0638 37.9455 14.8883C37.4143 14.7128 36.9187 14.4788 36.4588 14.1863C35.9989 13.8938 35.6167 13.507 35.3122 13.026C35.0077 12.545 34.8555 11.9145 34.8555 11.1345C34.8555 10.5365 34.9785 9.99049 35.2247 9.4965C35.4709 9.00251 35.8142 8.5767 36.2547 8.21921C36.6953 7.86172 37.2232 7.58543 37.8386 7.39048C38.4541 7.19546 39.131 7.09795 39.8695 7.09795C40.4915 7.09795 41.1101 7.15647 41.7255 7.27344C42.341 7.39048 42.9596 7.57248 43.5815 7.81944V10.6665C42.9985 10.3285 42.4155 10.0783 41.8324 9.91573C41.2494 9.75326 40.6728 9.67199 40.1027 9.67199C39.5067 9.67199 39.0241 9.80198 38.6549 10.062C38.2857 10.322 38.101 10.6665 38.101 11.0955C38.101 11.4595 38.2532 11.7455 38.5577 11.9535C38.8622 12.1615 39.2412 12.3468 39.6946 12.5093C40.1481 12.6718 40.6437 12.8407 41.1813 13.0163C41.719 13.1918 42.2146 13.429 42.6681 13.7281C43.1215 14.027 43.5005 14.4203 43.805 14.9078C44.1095 15.3953 44.2617 16.0355 44.2617 16.8286C44.2617 17.4396 44.1354 18.0018 43.8827 18.5154C43.6301 19.0289 43.2802 19.4676 42.8333 19.8316C42.3863 20.1956 41.8518 20.4784 41.23 20.6799C40.608 20.8814 39.9278 20.9821 39.1893 20.9821C37.8289 20.9821 36.4879 20.6896 35.1664 20.1046V17.2185ZM45.2062 6.72745H48.374V11.6805C49.2161 11.0695 50.1037 10.764 51.0365 10.764C51.5418 10.764 52.0082 10.8518 52.4358 11.0273C52.8633 11.2027 53.2326 11.4498 53.5435 11.7683C53.8545 12.0868 54.0974 12.467 54.2723 12.909C54.4472 13.351 54.5347 13.832 54.5347 14.352V20.7482H51.3669V14.937C51.3669 14.534 51.2405 14.2025 50.9879 13.9425C50.7353 13.6826 50.4146 13.5525 50.0259 13.5525C49.4429 13.5525 48.8922 13.8126 48.374 14.3325V20.7482H45.2062V6.72745ZM55.829 10.998H58.9968V20.7482H55.829V10.998ZM55.6735 8.4045C55.6735 7.88447 55.8355 7.46524 56.1594 7.14674C56.4833 6.8282 56.9044 6.66895 57.4226 6.66895C57.915 6.66895 58.3264 6.8282 58.6567 7.14674C58.9871 7.46524 59.1523 7.88447 59.1523 8.4045C59.1523 8.89849 58.9871 9.30799 58.6567 9.633C58.3264 9.95801 57.915 10.1205 57.4226 10.1205C56.9044 10.1205 56.4833 9.95801 56.1594 9.633C55.8355 9.30799 55.6735 8.89849 55.6735 8.4045ZM66.996 15.8731C66.996 15.158 66.8178 14.5828 66.4616 14.1473C66.1053 13.7118 65.642 13.4941 65.072 13.4941C64.5019 13.4941 63.9902 13.7216 63.5367 14.1766V17.5696C63.9902 18.0246 64.5019 18.2521 65.072 18.2521C65.642 18.2521 66.1053 18.0311 66.4616 17.5891C66.8178 17.1471 66.996 16.5751 66.996 15.8731ZM60.3689 10.998H63.5367V11.5245C64.2752 11.0175 65.0331 10.764 65.8105 10.764C66.4583 10.764 67.0543 10.8908 67.5985 11.1442C68.1426 11.3978 68.609 11.7487 68.9977 12.1972C69.3864 12.6458 69.6876 13.182 69.9015 13.806C70.1156 14.43 70.2223 15.119 70.2223 15.8731C70.2223 16.627 70.1156 17.3161 69.9015 17.9401C69.6876 18.5641 69.3864 19.1004 68.9977 19.5488C68.609 19.9973 68.1426 20.3484 67.5985 20.6019C67.0543 20.8554 66.4583 20.9821 65.8105 20.9821C65.0331 20.9821 64.2752 20.7286 63.5367 20.2216V25.0186H60.3689V10.998ZM74.4514 18.2521H76.5303C77.0228 18.2521 77.4275 18.1059 77.7449 17.8133C78.0623 17.5208 78.2214 17.1471 78.2214 16.6921C78.2214 16.2371 78.0623 15.8633 77.7449 15.5708C77.4275 15.2783 77.0228 15.1321 76.5303 15.1321H74.4514V18.2521ZM74.4514 12.714H76.2582C76.7117 12.714 77.0877 12.5775 77.3856 12.3045C77.6835 12.0315 77.8328 11.687 77.8328 11.271C77.8328 10.842 77.6835 10.4943 77.3856 10.2277C77.0877 9.96123 76.7117 9.82802 76.2582 9.82802H74.4514V12.714ZM71.3608 7.33196H76.861C77.4568 7.33196 78.0009 7.42296 78.4935 7.60496C78.986 7.78696 79.4129 8.0405 79.7757 8.36544C80.1385 8.69045 80.4203 9.07398 80.6213 9.51596C80.8222 9.95801 80.9226 10.439 80.9226 10.959C80.9226 11.622 80.7671 12.2135 80.4559 12.7335C80.1455 13.2535 79.7178 13.6371 79.1737 13.884C79.8734 14.1441 80.414 14.5503 80.7963 15.1028C81.1787 15.6553 81.3698 16.2891 81.3698 17.0041C81.3698 17.5501 81.2659 18.0539 81.0587 18.5154C80.8515 18.9769 80.5633 19.3734 80.1936 19.7049C79.8245 20.0364 79.3843 20.2931 78.8723 20.4751C78.3602 20.6572 77.8 20.7482 77.191 20.7482H71.3608V7.33196ZM81.7507 15.8731C81.7507 15.119 81.8798 14.43 82.1393 13.806C82.3981 13.182 82.7609 12.6458 83.2276 12.1972C83.6943 11.7487 84.2476 11.3978 84.8894 11.1442C85.5305 10.8908 86.2337 10.764 86.9976 10.764C87.7622 10.764 88.4655 10.8908 89.1066 11.1442C89.7477 11.3978 90.2982 11.7487 90.7586 12.1972C91.2183 12.6458 91.5776 13.182 91.8371 13.806C92.096 14.43 92.2257 15.119 92.2257 15.8731C92.2257 16.6141 92.096 17.2998 91.8371 17.9303C91.5776 18.5609 91.2183 19.1004 90.7586 19.5488C90.2982 19.9973 89.7477 20.3484 89.1066 20.6019C88.4655 20.8554 87.7622 20.9821 86.9976 20.9821C86.2337 20.9821 85.5305 20.8554 84.8894 20.6019C84.2476 20.3484 83.6943 19.9973 83.2276 19.5488C82.7609 19.1004 82.3981 18.5609 82.1393 17.9303C81.8798 17.2998 81.7507 16.6141 81.7507 15.8731ZM84.9961 15.8731C84.9961 16.6141 85.181 17.2088 85.55 17.6573C85.9191 18.1059 86.4019 18.3301 86.9976 18.3301C87.5809 18.3301 88.0601 18.1059 88.4362 17.6573C88.8115 17.2088 88.9998 16.6141 88.9998 15.8731C88.9998 15.1321 88.8115 14.5373 88.4362 14.0888C88.0601 13.6403 87.5809 13.416 86.9976 13.416C86.4019 13.416 85.9191 13.6403 85.55 14.0888C85.181 14.5373 84.9961 15.1321 84.9961 15.8731ZM99.622 15.8731C99.622 15.158 99.4441 14.5828 99.0877 14.1473C98.7319 13.7118 98.2686 13.4941 97.6987 13.4941C97.128 13.4941 96.6166 13.7216 96.1632 14.1766V17.5696C96.6166 18.0246 97.128 18.2521 97.6987 18.2521C98.2686 18.2521 98.7319 18.0311 99.0877 17.5891C99.4441 17.1471 99.622 16.5751 99.622 15.8731ZM92.9952 6.72745H96.1632V11.5245C96.9013 11.0175 97.6596 10.764 98.4368 10.764C99.0849 10.764 99.6806 10.8908 100.225 11.1442C100.769 11.3978 101.236 11.7487 101.624 12.1972C102.013 12.6458 102.314 13.182 102.528 13.806C102.742 14.43 102.849 15.119 102.849 15.8731C102.849 16.627 102.742 17.3161 102.528 17.9401C102.314 18.5641 102.013 19.1004 101.624 19.5488C101.236 19.9973 100.769 20.3484 100.225 20.6019C99.6806 20.8554 99.0849 20.9821 98.4368 20.9821C97.6596 20.9821 96.9013 20.7286 96.1632 20.2216V20.7482H92.9952V6.72745Z" fill="#B1B5C3"/>
</g>
<defs>
<clipPath id="clip0_2680_55008">
<rect width="103.25" height="28" fill="white" transform="translate(0.25)"/>
</clipPath>
</defs>
</svg>
