<svg width="17" height="14" viewBox="0 0 17 14" fill="none" xmlns="http://www.w3.org/2000/svg">
<path d="M5.70141 13.5005C11.7377 13.5005 15.0402 8.49829 15.0402 4.16173C15.0402 4.0211 15.037 3.87735 15.0308 3.73673C15.6732 3.27213 16.2276 2.69666 16.668 2.03735C16.0697 2.30356 15.4344 2.47741 14.7839 2.55298C15.4688 2.14243 15.9817 1.49747 16.2273 0.737666C15.583 1.11953 14.8784 1.3889 14.1436 1.53423C13.6485 1.0082 12.994 0.659899 12.2811 0.543189C11.5682 0.426479 10.8368 0.547855 10.1998 0.888553C9.56283 1.22925 9.05584 1.77029 8.7572 2.42803C8.45857 3.08577 8.38492 3.82357 8.54766 4.52735C7.24296 4.46188 5.96659 4.12296 4.80129 3.53255C3.63599 2.94215 2.60776 2.11345 1.78328 1.10017C1.36424 1.82265 1.23601 2.67759 1.42466 3.49122C1.61331 4.30485 2.10468 5.01612 2.79891 5.48048C2.27772 5.46393 1.76795 5.32361 1.31172 5.0711V5.11173C1.31125 5.86992 1.57337 6.60488 2.05351 7.19167C2.53365 7.77846 3.20218 8.18086 3.94547 8.33048C3.46267 8.46257 2.95596 8.48182 2.46453 8.38673C2.67427 9.03878 3.08235 9.60908 3.63182 10.018C4.18128 10.427 4.84472 10.6542 5.52953 10.668C4.36692 11.5812 2.93075 12.0766 1.45234 12.0742C1.19016 12.0738 0.928235 12.0578 0.667969 12.0261C2.16987 12.9897 3.91699 13.5014 5.70141 13.5005Z" fill="#777E90"/>
</svg>
