<svg width="16" height="16" viewBox="0 0 16 16" fill="none" xmlns="http://www.w3.org/2000/svg">
<path d="M8.00065 1.33203C7.63246 1.33203 7.33398 1.63051 7.33398 1.9987V3.9987C7.33398 4.36689 7.63246 4.66536 8.00065 4.66536C8.36884 4.66536 8.66732 4.36689 8.66732 3.9987V1.9987C8.66732 1.63051 8.36884 1.33203 8.00065 1.33203Z" fill="#23262F"/>
<path d="M8.00065 11.332C7.63246 11.332 7.33398 11.6305 7.33398 11.9987V13.9987C7.33398 14.3669 7.63246 14.6654 8.00065 14.6654C8.36884 14.6654 8.66732 14.3669 8.66732 13.9987V11.9987C8.66732 11.6305 8.36884 11.332 8.00065 11.332Z" fill="#23262F"/>
<path d="M14.0007 7.33203C14.3688 7.33203 14.6673 7.63051 14.6673 7.9987C14.6673 8.36689 14.3688 8.66536 14.0007 8.66536H12.0007C11.6325 8.66536 11.334 8.36689 11.334 7.9987C11.334 7.63051 11.6325 7.33203 12.0007 7.33203H14.0007Z" fill="#23262F"/>
<path d="M4.66732 7.9987C4.66732 7.63051 4.36884 7.33203 4.00065 7.33203H2.00065C1.63246 7.33203 1.33398 7.63051 1.33398 7.9987C1.33398 8.36689 1.63246 8.66536 2.00065 8.66536H4.00065C4.36884 8.66536 4.66732 8.36689 4.66732 7.9987Z" fill="#23262F"/>
<path d="M11.7719 3.28472C12.0323 3.02437 12.4544 3.02437 12.7147 3.28472C12.9751 3.54507 12.9751 3.96718 12.7147 4.22753L11.3005 5.64174C11.0402 5.90209 10.6181 5.90209 10.3577 5.64174C10.0974 5.38139 10.0974 4.95928 10.3577 4.69893L11.7719 3.28472Z" fill="#23262F"/>
<path d="M5.64361 10.3557C5.38326 10.0953 4.96115 10.0953 4.7008 10.3557L3.28658 11.7699C3.02623 12.0302 3.02623 12.4524 3.28658 12.7127C3.54693 12.9731 3.96904 12.9731 4.22939 12.7127L5.64361 11.2985C5.90395 11.0381 5.90395 10.616 5.64361 10.3557Z" fill="#23262F"/>
<path d="M12.7147 11.77C12.9751 12.0303 12.9751 12.4524 12.7147 12.7128C12.4544 12.9731 12.0323 12.9731 11.7719 12.7128L10.3577 11.2986C10.0973 11.0382 10.0973 10.6161 10.3577 10.3558C10.618 10.0954 11.0401 10.0954 11.3005 10.3558L12.7147 11.77Z" fill="#23262F"/>
<path d="M5.64367 5.64165C5.90402 5.3813 5.90402 4.95919 5.64367 4.69884L4.22945 3.28463C3.9691 3.02428 3.54699 3.02428 3.28664 3.28463C3.0263 3.54498 3.0263 3.96709 3.28664 4.22744L4.70086 5.64165C4.96121 5.902 5.38332 5.902 5.64367 5.64165Z" fill="#23262F"/>
</svg>
