<svg width="21" height="20" viewBox="0 0 21 20" fill="none" xmlns="http://www.w3.org/2000/svg">
<path fill-rule="evenodd" clip-rule="evenodd" d="M10.4805 0C15.9945 0 20.4805 4.486 20.4805 10C20.4805 15.514 15.9945 20 10.4805 20C4.96647 20 0.480469 15.514 0.480469 10C0.480469 4.486 4.96647 0 10.4805 0ZM10.4805 1.5C5.79347 1.5 1.98047 5.313 1.98047 10C1.98047 14.687 5.79347 18.5 10.4805 18.5C15.1675 18.5 18.9805 14.687 18.9805 10C18.9805 5.313 15.1675 1.5 10.4805 1.5ZM10.1417 5.0954C10.5567 5.0954 10.8917 5.4314 10.8917 5.8454V10.2674L14.2967 12.2974C14.6517 12.5104 14.7687 12.9704 14.5567 13.3264C14.4157 13.5614 14.1667 13.6924 13.9117 13.6924C13.7807 13.6924 13.6487 13.6584 13.5277 13.5874L9.75767 11.3384C9.53167 11.2024 9.39167 10.9574 9.39167 10.6934V5.8454C9.39167 5.4314 9.72767 5.0954 10.1417 5.0954Z" fill="#777E90"/>
</svg>
