<svg width="11" height="18" viewBox="0 0 11 18" fill="none" xmlns="http://www.w3.org/2000/svg">
<path d="M10.9023 9.14147C10.7761 8.90748 10.536 8.7616 10.2749 8.7616L6.20948 8.7616L6.20948 0.734294C6.20948 0.328964 5.88814 -4.4621e-07 5.49221 -4.80823e-07C5.09629 -5.15436e-07 4.77495 0.328964 4.77495 0.734294L4.77495 8.7616L0.709503 8.7616C0.447463 8.7616 0.207418 8.90748 0.082136 9.14147C-0.0450585 9.37547 -0.0364516 9.66135 0.102219 9.88752L4.88493 17.6573C5.01691 17.8708 5.24547 18 5.49221 18C5.73895 18 5.96752 17.8708 6.0995 17.6573L10.8822 9.88752C10.9549 9.76807 10.9922 9.63198 10.9922 9.49589C10.9922 9.37449 10.9616 9.25211 10.9023 9.14147Z" fill="#777E90"/>
</svg>
