<svg width="363" height="140" viewBox="0 0 363 140" fill="none" xmlns="http://www.w3.org/2000/svg">
<path d="M-38.0196 -23.8679L-341.424 32.7566L-343.482 32.4808L-342.81 33.0601L-343.676 33.2498L-341.678 34.0834L-126.891 252.01L-127.648 254.355L-126.181 252.762L68.5067 517.402L68.5232 518.306L68.6964 518.268L68.8103 518.788L69.487 517.732L362.99 341.24L348.394 338.443L354.14 334.825L353.468 334.245L204.299 102.497L204.878 101.825L29.1246 96.1779L-37.7273 -25.0214L-38.0196 -23.8679ZM-70.6174 81.8782L-44.4981 165.506L-90.8055 144.774L-70.6174 81.8782ZM-92.2083 144.173L-335.85 34.9867L-71.69 80.297L-92.2083 144.173ZM34.9931 170.257L-39.7484 166.464L28.1936 98.5609L34.9931 170.257ZM-42.1417 168.804L-41.0804 167.845L35.1613 171.854L45.7052 283.046L-8.62067 272.967L-42.1417 168.804ZM-10.1588 272.577L-124.638 251.516L-43.165 169.936L-10.1588 272.577ZM45.8355 284.47L45.8519 285.374L45.9873 285.163L67.796 510.838L-8.14384 274.315L45.8355 284.47ZM47.5089 284.648L47.7961 285.13L49.0471 285.038L113.392 296.918L69.6377 512.614L47.5089 284.648ZM53.6285 284.398L117.499 275.862L113.435 295.456L53.6285 284.398ZM49.0522 283.402L47.7632 283.321L136.884 180.272L117.715 274.361L49.0522 283.402ZM-44.0807 167.413L-43.7177 168.241L-53.8321 178.446L-124.438 249.112L-91.2331 146.138L-44.0807 167.413ZM-9.81731 274.137L67.2875 513.492L-124.508 252.941L-9.81731 274.137ZM70.6723 514.022L114.681 296.999L207.026 314.008L70.6723 514.022ZM208.564 314.398L344.658 339.625L71.8044 515.045L208.564 314.398ZM114.935 295.672L119.096 275.693L244.719 258.902L208.011 312.703L114.935 295.672ZM245.802 257.213L119.313 274.193L138.736 178.777L245.802 257.213ZM137.393 177.619L47.2105 281.627L36.5856 171.724L136.51 176.904L137.393 177.619ZM36.4553 170.3L29.5799 98.2574L134.533 175.339L36.4553 170.3ZM-41.5952 166.324L-42.8841 166.243L-69.5941 80.7461L27.1969 97.3264L-41.5952 166.324ZM-71.609 79.0081L-337.27 33.4815L-38.5825 -22.2918L-70.9917 78.5097L-71.5116 78.6236L-71.609 79.0081ZM-92.5979 145.711L-126.501 250.471L-338.065 35.6533L-92.5979 145.711ZM359.215 342.248L110.321 491.902L346.889 339.862L359.215 342.248ZM209.376 313.13L246.896 258.063L351.638 335.009L346.374 338.341L209.376 313.13ZM350.299 332.215L139.51 177.337L203.276 103.629L350.299 332.215ZM138.958 175.642L136.938 175.539L30.8904 97.6072L201.7 103.066L138.958 175.642ZM27.4132 95.8262L-69.7623 79.1485L-37.3151 -21.4797L27.4132 95.8262Z" fill="#F7F7F7"/>
</svg>
