<svg width="32" height="28" viewBox="0 0 32 28" fill="none" xmlns="http://www.w3.org/2000/svg">
<path d="M16.9607 0.0914108C19.1483 0.0914108 21.3359 0.0970039 23.5229 0.0869363C23.9905 0.0846991 24.3162 0.250813 24.5536 0.67365C25.7364 2.7828 26.9335 4.88355 28.1267 6.98655C29.1463 8.7836 30.1709 10.5779 31.1812 12.3799C31.2576 12.5159 31.3048 12.739 31.2455 12.8615C31.1988 12.9572 30.967 12.9941 30.8164 12.9969C30.0753 13.0092 29.3331 12.9834 28.5926 13.0075C28.0959 13.0237 27.763 12.8296 27.5185 12.3934C26.4632 10.5096 25.3963 8.63259 24.3327 6.75388C23.785 5.78628 23.2356 4.82035 22.6862 3.85387C22.4676 3.46851 22.133 3.31526 21.7029 3.31526C18.5363 3.31861 15.3691 3.30631 12.2025 3.32532C11.6301 3.32868 11.2527 3.13852 10.9873 2.61836C10.6588 1.97516 10.2742 1.3616 9.93087 0.725665C9.85946 0.593669 9.78529 0.368268 9.84517 0.280457C9.92263 0.167477 10.1336 0.102038 10.2885 0.0992411C11.1758 0.0830212 12.0641 0.0914108 12.9519 0.0914108C14.288 0.0914108 15.624 0.0914108 16.9607 0.0914108Z" fill="#3772FF"/>
<path d="M27.5947 15.4947C27.7952 15.1446 28.1105 14.9762 28.5061 14.974C29.284 14.9706 30.0625 14.9689 30.8409 14.9728C31.2903 14.9751 31.42 15.2038 31.1997 15.5948C30.7267 16.4343 30.246 17.2699 29.7812 18.1139L27.0091 22.9961C26.191 24.438 25.367 25.8765 24.5577 27.3235C24.3363 27.72 24.0408 27.913 23.5848 27.9124C19.1354 27.9063 14.686 27.9102 10.2366 27.9107C9.81416 27.9107 9.68726 27.692 9.89437 27.3263C10.2872 26.6327 10.68 25.9392 11.07 25.244C11.2843 24.8619 11.5936 24.6813 12.0358 24.6819C15.2217 24.6897 18.408 24.6807 21.5939 24.6919C22.1454 24.6936 22.5223 24.4967 22.7899 23.9883C23.2695 23.0783 23.7721 22.179 24.3138 21.3064L27.5947 15.4947Z" fill="#3772FF"/>
<path d="M2.12163 16.7706C1.69751 16.0317 1.28658 15.2845 0.856414 14.5496C0.635566 14.172 0.647652 13.8197 0.860809 13.4455C1.90737 11.611 2.94624 9.77195 3.99005 7.93518C5.18055 5.84002 6.37159 3.74541 7.56428 1.65192C7.75602 1.31466 8.01038 1.31578 8.20321 1.65304C8.61194 2.36896 9.01848 3.08599 9.42392 3.80414C9.6184 4.14923 9.61345 4.49656 9.41897 4.83998C8.49602 6.46812 7.57143 8.0957 6.64848 9.72329C5.94473 10.9644 5.24318 12.2066 4.53833 13.4466C4.31583 13.8387 4.32956 14.2084 4.55865 14.6027L8.49657 21.5308C8.78884 22.0465 9.07287 22.5678 9.37558 23.0773C9.62389 23.4962 9.62005 23.89 9.36898 24.31C8.97014 24.9784 8.59821 25.663 8.2098 26.3375C7.99939 26.7039 7.7703 26.7134 7.56428 26.3537C6.80834 25.0349 6.06065 23.7116 5.30965 22.3905L2.12163 16.7706Z" fill="#3772FF"/>
<path d="M6.63979 14.507C6.44146 14.1591 6.44366 13.8375 6.64638 13.4834C7.92478 11.2473 9.19274 9.00506 10.4634 6.76448C10.6821 6.37967 10.8579 6.37576 11.0809 6.75553L14.9419 13.5466C15.1249 13.8649 15.1051 14.1663 14.9321 14.4706C13.6564 16.7196 12.3813 18.9691 11.0974 21.2131C11.0238 21.3423 10.8749 21.5078 10.7601 21.5089C10.642 21.5101 10.5733 21.3736 10.4634 21.1761L6.63979 14.507Z" fill="#3772FF"/>
<path d="M21.5215 22.3966C21.3551 22.6841 21.0826 22.8077 20.7568 22.8077C18.1934 22.8083 15.6301 22.8094 13.0661 22.8072C12.6772 22.8066 12.5651 22.6114 12.7563 22.2747C14.0407 20.0089 15.3301 17.746 16.6129 15.4791C16.8118 15.1279 17.093 14.9701 17.488 14.9707C19.9965 14.9752 22.5055 14.9724 25.0139 14.9741C25.1046 14.9741 25.1985 14.9774 25.2858 14.9998C25.5029 15.0552 25.5902 15.228 25.4803 15.4243C25.0326 16.2241 22.0264 21.5258 21.5215 22.3966Z" fill="#3772FF"/>
<path d="M12.7093 5.6515C12.5928 5.41211 12.6851 5.25103 12.9466 5.22922C12.9922 5.2253 13.0384 5.22698 13.084 5.22698C15.6287 5.22698 18.1728 5.23369 20.7175 5.22195C21.1334 5.21971 21.3993 5.37408 21.6042 5.73875C22.8398 7.9357 24.0901 10.1237 25.3262 12.3201C25.418 12.4834 25.5196 12.715 25.4718 12.8688C25.396 13.1138 25.1246 12.9974 24.9351 12.9974C22.4091 13.003 19.8825 13.0013 17.3565 13.0058C17.0301 13.0064 16.801 12.8666 16.6401 12.5824C16.1006 11.6305 12.8571 5.9552 12.7093 5.6515Z" fill="#3772FF"/>
</svg>
