<svg width="32" height="32" viewBox="0 0 32 32" fill="none" xmlns="http://www.w3.org/2000/svg">
<path d="M16.9597 2.09141C19.1473 2.09141 21.3349 2.097 23.522 2.08694C23.9895 2.0847 24.3153 2.25081 24.5526 2.67365C25.7354 4.7828 26.9325 6.88355 28.1257 8.98655C29.1454 10.7836 30.1699 12.5779 31.1802 14.3799C31.2566 14.5159 31.3038 14.739 31.2445 14.8615C31.1978 14.9572 30.966 14.9941 30.8155 14.9969C30.0743 15.0092 29.3321 14.9834 28.5916 15.0075C28.095 15.0237 27.762 14.8296 27.5176 14.3934C26.4622 12.5096 25.3953 10.6326 24.3317 8.75388C23.784 7.78628 23.2346 6.82035 22.6853 5.85387C22.4666 5.46851 22.132 5.31526 21.7019 5.31526C18.5353 5.31861 15.3682 5.30631 12.2016 5.32532C11.6291 5.32868 11.2517 5.13852 10.9863 4.61836C10.6578 3.97516 10.2733 3.3616 9.9299 2.72567C9.85848 2.59367 9.78431 2.36827 9.8442 2.28046C9.92166 2.16748 10.1326 2.10204 10.2875 2.09924C11.1748 2.08302 12.0631 2.09141 12.9509 2.09141C14.287 2.09141 15.6231 2.09141 16.9597 2.09141Z" fill="#3772FF"/>
<path d="M27.5947 17.4948C27.7952 17.1447 28.1105 16.9763 28.5061 16.9741C29.284 16.9707 30.0625 16.9691 30.8409 16.973C31.2903 16.9752 31.42 17.204 31.1997 17.5949C30.7267 18.4344 30.246 19.27 29.7812 20.114L27.0091 24.9962C26.191 26.4381 25.367 27.8767 24.5577 29.3236C24.3363 29.7201 24.0408 29.9131 23.5848 29.9125C19.1354 29.9064 14.686 29.9103 10.2366 29.9109C9.81416 29.9109 9.68726 29.6922 9.89437 29.3264C10.2872 28.6328 10.68 27.9393 11.07 27.2441C11.2843 26.8621 11.5936 26.6814 12.0358 26.682C15.2217 26.6898 18.408 26.6809 21.5939 26.692C22.1454 26.6937 22.5223 26.4968 22.7899 25.9884C23.2695 25.0784 23.7721 24.1791 24.3138 23.3066L27.5947 17.4948Z" fill="#3772FF"/>
<path d="M2.12114 18.7704C1.69702 18.0316 1.28609 17.2844 0.855926 16.5494C0.635077 16.1719 0.647163 15.8195 0.860321 15.4454C1.90688 13.6108 2.94575 11.7718 3.98956 9.93506C5.18006 7.8399 6.3711 5.74529 7.5638 3.6518C7.75553 3.31454 8.00989 3.31566 8.20272 3.65292C8.61145 4.36883 9.01799 5.08587 9.42343 5.80402C9.61791 6.14911 9.61297 6.49644 9.41849 6.83985C8.49554 8.468 7.57094 10.0956 6.64799 11.7232C5.94424 12.9643 5.24269 14.2065 4.53784 15.4465C4.31534 15.8385 4.32908 16.2083 4.55817 16.6026L8.49609 23.5307C8.78835 24.0464 9.07238 24.5677 9.37509 25.0772C9.6234 25.4961 9.61956 25.8899 9.36849 26.3099C8.96965 26.9783 8.59772 27.6629 8.20931 28.3374C7.9989 28.7037 7.76981 28.7132 7.5638 28.3536C6.80786 27.0348 6.06016 25.7114 5.30916 24.3904L2.12114 18.7704Z" fill="#3772FF"/>
<path d="M6.6393 16.5068C6.44098 16.159 6.44317 15.8374 6.64589 15.4833C7.92429 13.2472 9.19225 11.0049 10.463 8.76435C10.6816 8.37955 10.8574 8.37564 11.0805 8.75541L14.9415 15.5465C15.1244 15.8648 15.1046 16.1662 14.9316 16.4705C13.6559 18.7195 12.3808 20.969 11.0969 23.2129C11.0233 23.3421 10.8744 23.5077 10.7596 23.5088C10.6415 23.5099 10.5728 23.3735 10.463 23.176L6.6393 16.5068Z" fill="#3772FF"/>
<path d="M21.5206 24.3966C21.3541 24.6841 21.0816 24.8077 20.7558 24.8077C18.1925 24.8083 15.6291 24.8094 13.0651 24.8072C12.6762 24.8066 12.5641 24.6114 12.7553 24.2747C14.0397 22.0089 15.3291 19.746 16.6119 17.4791C16.8108 17.1279 17.0921 16.9701 17.4871 16.9707C19.9955 16.9752 22.5045 16.9724 25.0129 16.9741C25.1036 16.9741 25.1975 16.9774 25.2849 16.9998C25.5019 17.0552 25.5892 17.228 25.4794 17.4243C25.0316 18.2241 22.0254 23.5258 21.5206 24.3966Z" fill="#3772FF"/>
<path d="M12.7078 7.65125C12.5914 7.41187 12.6837 7.25079 12.9452 7.22897C12.9908 7.22506 13.0369 7.22674 13.0825 7.22674C15.6272 7.22674 18.1714 7.23345 20.7161 7.2217C21.1319 7.21947 21.3978 7.37384 21.6028 7.7385C22.8383 9.93546 24.0887 12.1235 25.3248 14.3199C25.4165 14.4832 25.5181 14.7147 25.4704 14.8685C25.3945 15.1135 25.1231 14.9972 24.9336 14.9972C22.4076 15.0028 19.881 15.0011 17.355 15.0056C17.0287 15.0061 16.7996 14.8663 16.6386 14.5822C16.0991 13.6302 12.8556 7.95495 12.7078 7.65125Z" fill="#3772FF"/>
</svg>
