<svg width="32" height="32" viewBox="0 0 32 32" fill="none" xmlns="http://www.w3.org/2000/svg">
<path d="M16.9597 2.09043C19.1473 2.09043 21.3349 2.09603 23.522 2.08596C23.9895 2.08372 24.3153 2.24984 24.5526 2.67267C25.7354 4.78182 26.9325 6.88258 28.1257 8.98557C29.1454 10.7826 30.1699 12.5769 31.1802 14.379C31.2566 14.5149 31.3038 14.738 31.2445 14.8605C31.1978 14.9562 30.966 14.9931 30.8155 14.9959C30.0743 15.0082 29.3321 14.9825 28.5916 15.0065C28.095 15.0227 27.762 14.8287 27.5176 14.3924C26.4622 12.5086 25.3953 10.6316 24.3317 8.7529C23.784 7.7853 23.2346 6.81938 22.6853 5.85289C22.4666 5.46753 22.132 5.31428 21.7019 5.31428C18.5353 5.31764 15.3682 5.30533 12.2016 5.32435C11.6291 5.3277 11.2517 5.13754 10.9863 4.61738C10.6578 3.97418 10.2733 3.36062 9.9299 2.72469C9.85848 2.59269 9.78431 2.36729 9.8442 2.27948C9.92166 2.1665 10.1326 2.10106 10.2875 2.09826C11.1748 2.08204 12.0631 2.09043 12.9509 2.09043C14.287 2.09043 15.6231 2.09043 16.9597 2.09043Z" fill="#3772FF"/>
<path d="M27.5947 17.4928C27.7952 17.1427 28.1105 16.9744 28.5061 16.9721C29.284 16.9688 30.0625 16.9671 30.8409 16.971C31.2903 16.9733 31.42 17.202 31.1997 17.593C30.7267 18.4325 30.246 19.2681 29.7812 20.1121L27.0091 24.9943C26.191 26.4362 25.367 27.8747 24.5577 29.3216C24.3363 29.7182 24.0408 29.9111 23.5848 29.9106C19.1354 29.9044 14.686 29.9083 10.2366 29.9089C9.81416 29.9089 9.68726 29.6902 9.89437 29.3244C10.2872 28.6309 10.68 27.9373 11.07 27.2421C11.2843 26.8601 11.5936 26.6795 12.0358 26.68C15.2217 26.6878 18.408 26.6789 21.5939 26.6901C22.1454 26.6918 22.5223 26.4949 22.7899 25.9865C23.2695 25.0765 23.7721 24.1771 24.3138 23.3046L27.5947 17.4928Z" fill="#3772FF"/>
<path d="M2.12114 18.7695C1.69702 18.0306 1.28609 17.2834 0.855926 16.5485C0.635077 16.1709 0.647163 15.8186 0.860321 15.4444C1.90688 13.6099 2.94575 11.7708 3.98956 9.93408C5.18006 7.83892 6.3711 5.74431 7.5638 3.65083C7.75553 3.31356 8.00989 3.31468 8.20272 3.65194C8.61145 4.36786 9.01799 5.08489 9.42343 5.80304C9.61791 6.14813 9.61297 6.49546 9.41849 6.83888C8.49554 8.46702 7.57094 10.0946 6.64799 11.7222C5.94424 12.9633 5.24269 14.2055 4.53784 15.4455C4.31534 15.8376 4.32908 16.2073 4.55817 16.6016L8.49609 23.5297C8.78835 24.0454 9.07238 24.5667 9.37509 25.0762C9.6234 25.4951 9.61956 25.8889 9.36849 26.3089C8.96965 26.9773 8.59772 27.6619 8.20931 28.3364C7.9989 28.7028 7.76981 28.7123 7.5638 28.3526C6.80786 27.0338 6.06016 25.7105 5.30916 24.3894L2.12114 18.7695Z" fill="#3772FF"/>
<path d="M6.6393 16.5064C6.44098 16.1585 6.44317 15.8369 6.64589 15.4828C7.92429 13.2467 9.19225 11.0045 10.463 8.76387C10.6816 8.37906 10.8574 8.37515 11.0805 8.75492L14.9415 15.546C15.1244 15.8643 15.1046 16.1657 14.9316 16.47C13.6559 18.719 12.3808 20.9685 11.0969 23.2125C11.0233 23.3417 10.8744 23.5072 10.7596 23.5083C10.6415 23.5094 10.5728 23.373 10.463 23.1755L6.6393 16.5064Z" fill="#3772FF"/>
<path d="M21.5206 24.3947C21.3541 24.6822 21.0816 24.8058 20.7558 24.8058C18.1925 24.8063 15.6291 24.8074 13.0651 24.8052C12.6762 24.8046 12.5641 24.6094 12.7553 24.2727C14.0397 22.007 15.3291 19.744 16.6119 17.4772C16.8108 17.1259 17.0921 16.9682 17.4871 16.9688C19.9955 16.9732 22.5045 16.9704 25.0129 16.9721C25.1036 16.9721 25.1975 16.9755 25.2849 16.9978C25.5019 17.0532 25.5892 17.226 25.4794 17.4224C25.0316 18.2222 22.0254 23.5238 21.5206 24.3947Z" fill="#3772FF"/>
<path d="M12.7078 7.65223C12.5914 7.41284 12.6837 7.25176 12.9452 7.22995C12.9908 7.22604 13.0369 7.22771 13.0825 7.22771C15.6272 7.22771 18.1714 7.23443 20.7161 7.22268C21.1319 7.22044 21.3978 7.37481 21.6028 7.73948C22.8383 9.93644 24.0887 12.1244 25.3248 14.3208C25.4165 14.4842 25.5181 14.7157 25.4704 14.8695C25.3945 15.1145 25.1231 14.9982 24.9336 14.9982C22.4076 15.0038 19.881 15.0021 17.355 15.0066C17.0287 15.0071 16.7996 14.8673 16.6386 14.5832C16.0991 13.6312 12.8556 7.95593 12.7078 7.65223Z" fill="#3772FF"/>
</svg>
