<svg width="14" height="14" viewBox="0 0 14 14" fill="none" xmlns="http://www.w3.org/2000/svg">
<path d="M9.74975 13.25C9.74975 13.4489 9.67074 13.6397 9.53008 13.7803C9.38943 13.921 9.19867 14 8.99975 14H4.99975C4.80084 14 4.61008 13.921 4.46942 13.7803C4.32877 13.6397 4.24975 13.4489 4.24975 13.25C4.24975 13.0511 4.32877 12.8603 4.46942 12.7197C4.61008 12.579 4.80084 12.5 4.99975 12.5H8.99975C9.19867 12.5 9.38943 12.579 9.53008 12.7197C9.67074 12.8603 9.74975 13.0511 9.74975 13.25ZM13.0198 10.8745C12.9114 11.0655 12.7541 11.2241 12.564 11.3341C12.3739 11.444 12.1579 11.5013 11.9383 11.5H2.06119C1.84159 11.5013 1.6256 11.444 1.4355 11.3341C1.2454 11.2241 1.08806 11.0654 0.979692 10.8744C0.870261 10.6835 0.812943 10.4671 0.81348 10.247C0.814018 10.0269 0.872392 9.81081 0.982754 9.62037C1.33838 9.0085 1.76244 7.84037 1.76244 5.75V5.5C1.76078 4.10932 2.31162 2.77494 3.29377 1.79039C4.27592 0.80583 5.60895 0.251739 6.99963 0.25L7.03963 0.250125C9.90576 0.271438 12.2376 2.65188 12.2376 5.5565V5.75C12.2376 7.8405 12.6613 9.00875 13.0168 9.62062C13.1271 9.81104 13.1855 10.0271 13.186 10.2472C13.1865 10.4672 13.1292 10.6836 13.0198 10.8745ZM11.5227 10C10.8797 8.65312 10.7376 6.97206 10.7376 5.75V5.5565C10.7376 3.47287 9.07369 1.76525 7.02851 1.75012C7.01898 1.75005 7.00946 1.75001 6.99994 1.75C6.50831 1.75082 6.02165 1.84847 5.56775 2.03737C5.11385 2.22627 4.7016 2.50272 4.35454 2.85094C4.00748 3.19916 3.73241 3.61233 3.54503 4.06685C3.35764 4.52138 3.26162 5.00836 3.26244 5.5V5.75C3.26244 6.97206 3.12019 8.65319 2.47682 10H11.5227Z" fill="#23262F"/>
</svg>
