<svg width="16" height="16" viewBox="0 0 16 16" fill="none" xmlns="http://www.w3.org/2000/svg">
<path d="M10.7498 14.25C10.7498 14.4489 10.6707 14.6397 10.5301 14.7803C10.3894 14.921 10.1987 15 9.99975 15H5.99975C5.80084 15 5.61008 14.921 5.46942 14.7803C5.32877 14.6397 5.24975 14.4489 5.24975 14.25C5.24975 14.0511 5.32877 13.8603 5.46942 13.7197C5.61008 13.579 5.80084 13.5 5.99975 13.5H9.99975C10.1987 13.5 10.3894 13.579 10.5301 13.7197C10.6707 13.8603 10.7498 14.0511 10.7498 14.25ZM14.0198 11.8745C13.9114 12.0655 13.7541 12.2241 13.564 12.3341C13.3739 12.444 13.1579 12.5013 12.9383 12.5H3.06119C2.84159 12.5013 2.6256 12.444 2.4355 12.3341C2.2454 12.2241 2.08806 12.0654 1.97969 11.8744C1.87026 11.6835 1.81294 11.4671 1.81348 11.247C1.81402 11.0269 1.87239 10.8108 1.98275 10.6204C2.33838 10.0085 2.76244 8.84037 2.76244 6.75V6.5C2.76078 5.10932 3.31162 3.77494 4.29377 2.79039C5.27592 1.80583 6.60895 1.25174 7.99963 1.25L8.03963 1.25013C10.9058 1.27144 13.2376 3.65188 13.2376 6.5565V6.75C13.2376 8.8405 13.6613 10.0087 14.0168 10.6206C14.1271 10.811 14.1855 11.0271 14.186 11.2472C14.1865 11.4672 14.1292 11.6836 14.0198 11.8745ZM12.5227 11C11.8797 9.65312 11.7376 7.97206 11.7376 6.75V6.5565C11.7376 4.47287 10.0737 2.76525 8.02851 2.75012C8.01898 2.75005 8.00946 2.75001 7.99994 2.75C7.50831 2.75082 7.02165 2.84847 6.56775 3.03737C6.11385 3.22627 5.7016 3.50272 5.35454 3.85094C5.00748 4.19916 4.73241 4.61233 4.54503 5.06685C4.35764 5.52138 4.26162 6.00836 4.26244 6.5V6.75C4.26244 7.97206 4.12019 9.65319 3.47682 11H12.5227Z" fill="#23262F"/>
</svg>
