<svg width="32" height="32" viewBox="0 0 32 32" fill="none" xmlns="http://www.w3.org/2000/svg">
<path d="M16.9607 2.09141C19.1483 2.09141 21.3359 2.097 23.5229 2.08694C23.9905 2.0847 24.3162 2.25081 24.5536 2.67365C25.7364 4.7828 26.9335 6.88355 28.1267 8.98655C29.1463 10.7836 30.1709 12.5779 31.1812 14.3799C31.2576 14.5159 31.3048 14.739 31.2455 14.8615C31.1988 14.9572 30.967 14.9941 30.8164 14.9969C30.0753 15.0092 29.3331 14.9834 28.5926 15.0075C28.0959 15.0237 27.763 14.8296 27.5185 14.3934C26.4632 12.5096 25.3963 10.6326 24.3327 8.75388C23.785 7.78628 23.2356 6.82035 22.6862 5.85387C22.4676 5.46851 22.133 5.31526 21.7029 5.31526C18.5363 5.31861 15.3691 5.30631 12.2025 5.32532C11.6301 5.32868 11.2527 5.13852 10.9873 4.61836C10.6588 3.97516 10.2742 3.3616 9.93087 2.72567C9.85946 2.59367 9.78529 2.36827 9.84517 2.28046C9.92263 2.16748 10.1336 2.10204 10.2885 2.09924C11.1758 2.08302 12.0641 2.09141 12.9519 2.09141C14.288 2.09141 15.624 2.09141 16.9607 2.09141Z" fill="#3772FF"/>
<path d="M27.5947 17.4947C27.7952 17.1446 28.1105 16.9762 28.5061 16.974C29.284 16.9706 30.0625 16.9689 30.8409 16.9728C31.2903 16.9751 31.42 17.2038 31.1997 17.5948C30.7267 18.4343 30.246 19.2699 29.7812 20.1139L27.0091 24.9961C26.191 26.438 25.367 27.8765 24.5577 29.3235C24.3363 29.72 24.0408 29.913 23.5848 29.9124C19.1354 29.9063 14.686 29.9102 10.2366 29.9107C9.81416 29.9107 9.68726 29.692 9.89437 29.3263C10.2872 28.6327 10.68 27.9392 11.07 27.244C11.2843 26.8619 11.5936 26.6813 12.0358 26.6819C15.2217 26.6897 18.408 26.6807 21.5939 26.6919C22.1454 26.6936 22.5223 26.4967 22.7899 25.9883C23.2695 25.0783 23.7721 24.179 24.3138 23.3064L27.5947 17.4947Z" fill="#3772FF"/>
<path d="M2.12163 18.7706C1.69751 18.0317 1.28658 17.2845 0.856414 16.5496C0.635566 16.172 0.647652 15.8197 0.860809 15.4455C1.90737 13.611 2.94624 11.7719 3.99005 9.93518C5.18055 7.84002 6.37159 5.74541 7.56428 3.65192C7.75602 3.31466 8.01038 3.31578 8.20321 3.65304C8.61194 4.36896 9.01848 5.08599 9.42392 5.80414C9.6184 6.14923 9.61345 6.49656 9.41897 6.83998C8.49602 8.46812 7.57143 10.0957 6.64848 11.7233C5.94473 12.9644 5.24318 14.2066 4.53833 15.4466C4.31583 15.8387 4.32956 16.2084 4.55865 16.6027L8.49657 23.5308C8.78884 24.0465 9.07287 24.5678 9.37558 25.0773C9.62389 25.4962 9.62005 25.89 9.36898 26.31C8.97014 26.9784 8.59821 27.663 8.2098 28.3375C7.99939 28.7039 7.7703 28.7134 7.56428 28.3537C6.80834 27.0349 6.06065 25.7116 5.30965 24.3905L2.12163 18.7706Z" fill="#3772FF"/>
<path d="M6.63979 16.507C6.44146 16.1591 6.44366 15.8375 6.64638 15.4834C7.92478 13.2473 9.19274 11.0051 10.4634 8.76448C10.6821 8.37967 10.8579 8.37576 11.0809 8.75553L14.9419 15.5466C15.1249 15.8649 15.1051 16.1663 14.9321 16.4706C13.6564 18.7196 12.3813 20.9691 11.0974 23.2131C11.0238 23.3423 10.8749 23.5078 10.7601 23.5089C10.642 23.5101 10.5733 23.3736 10.4634 23.1761L6.63979 16.507Z" fill="#3772FF"/>
<path d="M21.5215 24.3966C21.3551 24.6841 21.0826 24.8077 20.7568 24.8077C18.1934 24.8083 15.6301 24.8094 13.0661 24.8072C12.6772 24.8066 12.5651 24.6114 12.7563 24.2747C14.0407 22.0089 15.3301 19.746 16.6129 17.4791C16.8118 17.1279 17.093 16.9701 17.488 16.9707C19.9965 16.9752 22.5055 16.9724 25.0139 16.9741C25.1046 16.9741 25.1985 16.9774 25.2858 16.9998C25.5029 17.0552 25.5902 17.228 25.4803 17.4243C25.0326 18.2241 22.0264 23.5258 21.5215 24.3966Z" fill="#3772FF"/>
<path d="M12.7093 7.6515C12.5928 7.41211 12.6851 7.25103 12.9466 7.22922C12.9922 7.2253 13.0384 7.22698 13.084 7.22698C15.6287 7.22698 18.1728 7.23369 20.7175 7.22195C21.1334 7.21971 21.3993 7.37408 21.6042 7.73875C22.8398 9.9357 24.0901 12.1237 25.3262 14.3201C25.418 14.4834 25.5196 14.715 25.4718 14.8688C25.396 15.1138 25.1246 14.9974 24.9351 14.9974C22.4091 15.003 19.8825 15.0013 17.3565 15.0058C17.0301 15.0064 16.801 14.8666 16.6401 14.5824C16.1006 13.6305 12.8571 7.9552 12.7093 7.6515Z" fill="#3772FF"/>
</svg>
