<svg width="17" height="16" viewBox="0 0 17 16" fill="none" xmlns="http://www.w3.org/2000/svg">
<g clip-path="url(#clip0_2709_30127)">
<path d="M5.70141 14.5005C11.7377 14.5005 15.0402 9.49829 15.0402 5.16173C15.0402 5.0211 15.037 4.87735 15.0308 4.73673C15.6732 4.27213 16.2276 3.69666 16.668 3.03735C16.0697 3.30356 15.4344 3.47741 14.7839 3.55298C15.4688 3.14243 15.9817 2.49747 16.2273 1.73767C15.583 2.11953 14.8784 2.3889 14.1436 2.53423C13.6485 2.0082 12.994 1.6599 12.2811 1.54319C11.5682 1.42648 10.8368 1.54786 10.1998 1.88855C9.56283 2.22925 9.05584 2.77029 8.7572 3.42803C8.45857 4.08577 8.38492 4.82357 8.54766 5.52735C7.24296 5.46188 5.96659 5.12296 4.80129 4.53255C3.63599 3.94215 2.60776 3.11345 1.78328 2.10017C1.36424 2.82265 1.23601 3.67759 1.42466 4.49122C1.61331 5.30485 2.10468 6.01612 2.79891 6.48048C2.27772 6.46393 1.76795 6.32361 1.31172 6.0711V6.11173C1.31125 6.86992 1.57337 7.60488 2.05351 8.19167C2.53365 8.77846 3.20218 9.18086 3.94547 9.33048C3.46267 9.46257 2.95596 9.48182 2.46453 9.38673C2.67427 10.0388 3.08235 10.6091 3.63182 11.018C4.18128 11.427 4.84472 11.6542 5.52953 11.668C4.36692 12.5812 2.93075 13.0766 1.45234 13.0742C1.19016 13.0738 0.928235 13.0578 0.667969 13.0261C2.16987 13.9897 3.91699 14.5014 5.70141 14.5005Z" fill="#777E90"/>
</g>
<defs>
<clipPath id="clip0_2709_30127">
<rect width="16" height="16" fill="white" transform="translate(0.667969)"/>
</clipPath>
</defs>
</svg>
