<svg width="1952" height="1677" viewBox="0 0 1952 1677" fill="none" xmlns="http://www.w3.org/2000/svg">
<g id="Group">
<path id="bgust" d="M1952 0H0V1677H1952V0Z" fill="#7261A5"/>
<path id="bgorta" d="M1952 1290.8V386.2H1937.91V459.354H1911.63V386.2H1869.18V434.129H1800.44V507.283H1739.79V386.2H1691.27V456.831H1624.55V386.2H1578.05V451.789H1521.44V386.2H1454.73V416.47H1361.73V386.2H1305.13V474.489H1250.54V386.2H1208.09V434.129H1129.25V492.148H1054.44V411.424H1003.9V454.307H959.419V403.86H896.751V464.399H803.749V386.2H728.951V424.036H666.278V386.2H609.672V421.517H524.76V484.577H470.177V386.2H421.655V439.176H352.917V386.2H318.549V418.994H213.423V499.719H164.903V386.2H92.1237V431.607H0V1290.8H1952Z" fill="#8F78B1"/>
<path id="bgalt" d="M1952 1677V772.401H1937.91V845.553H1911.63V772.401H1869.18V820.33H1800.44V893.483H1739.79V772.401H1691.27V843.035H1624.55V772.401H1578.05V837.988H1521.44V772.401H1454.73V802.672H1361.73V772.401H1305.13V860.691H1250.54V772.401H1208.09V820.33H1129.25V878.346H1054.44V797.626H1003.9V840.511H959.419V790.058H896.751V850.6H803.749V772.401H728.951V810.24H666.278V772.401H609.672V807.718H524.76V870.778H470.177V772.401H421.655V825.377H352.917V772.401H318.549V805.196H213.423V885.918H164.903V772.401H92.1237V817.811H0V1677H1952Z" fill="#8994C3"/>
<g id="zemin">
<g id="Group_2">
<g id="Group_3">
<path id="Vector" d="M1952 1170.21H1387.54V1405.51H1952V1170.21Z" fill="#98C261"/>
<path id="Vector_2" d="M1952 1210.47H1909.35V1258.74H1823.65V1291.92H1699.25V1376.4H1643.96V1258.74H1572.08V1300.97H1478.09V1361.3H1387.54V1405.51H1952V1210.47Z" fill="#7EA351"/>
<path id="Vector_3" d="M1952 1405.51H1387.54V1677H1952V1405.51Z" fill="#764B30"/>
<path id="Vector_4" d="M1952 1614.71V1484.99H1939.76V1530.24H1870.65V1478.96H1807.06V1436.73H1782.18V1469.91H1760.07V1518.17H1713.07V1469.91H1652.25V1530.24H1605.26V1451.81H1516.79V1484.99H1442.15V1539.29H1387.54V1593.59H1453.21V1677H1489.15V1566.44H1541.67V1620.75H1580.38V1584.54H1666.07V1632.81H1707.54V1587.56H1787.72V1641.86H1848.53V1602.64H1901.06V1614.71H1952Z" fill="#8D573A"/>
</g>
<path id="Vector_5" d="M1817.43 1521.65H1780.81V1560.86H1817.43V1521.65Z" fill="#764B30"/>
<path id="Vector_6" d="M1899.68 1552.31H1863.04V1591.53H1899.68V1552.31Z" fill="#764B30"/>
<path id="Vector_7" d="M1744.17 1560.86H1707.54V1600.08H1744.17V1560.86Z" fill="#764B30"/>
<path id="Vector_8" d="M1617.01 1563.69H1580.38V1602.91H1617.01V1563.69Z" fill="#764B30"/>
<path id="Vector_9" d="M1552.5 1482.43H1515.87V1521.65H1552.5V1482.43Z" fill="#764B30"/>
<path id="Vector_10" d="M1456.66 1538.24H1420.04V1577.46H1456.66V1538.24Z" fill="#764B30"/>
<path id="Vector_11" d="M1812.59 1369.31H1768.36V1408.53H1812.59V1369.31Z" fill="#764B30"/>
<path id="Vector_12" d="M1599.73 1385.9H1555.5V1425.12H1599.73V1385.9Z" fill="#764B30"/>
<path id="Vector_13" d="M1768.36 1388.92H1724.13V1428.13H1768.36V1388.92Z" fill="#7EA351"/>
<path id="Vector_14" d="M1899.68 1386.95H1855.45V1426.17H1899.68V1386.95Z" fill="#7EA351"/>
<path id="Vector_15" d="M1675.75 1397.21H1631.52V1436.43H1675.75V1397.21Z" fill="#7EA351"/>
<path id="Vector_16" d="M1502.97 1385.9H1458.74V1425.12H1502.97V1385.9Z" fill="#7EA351"/>
</g>
<g id="Group_4">
<g id="Group_5">
<path id="Vector_17" d="M1422.27 1170.21H0V1405.51H1422.27V1170.21Z" fill="#98C261"/>
<path id="Vector_18" d="M1381.57 1231.58V1267.79H1353.93V1303.99H1290.34V1334.16H1229.52V1282.87H1201.88V1267.79H1146.59V1249.69H1096.83V1294.94H1071.94V1361.31H1044.3V1294.94H1000.07V1234.6H969.662V1319.07H870.141V1237.62H778.912V1297.95H729.15V1328.12H665.569V1288.91H643.449V1307.01H579.869V1210.47H521.808V1258.74H436.115V1291.92H311.707V1376.4H256.418V1258.74H184.542V1300.97H90.5492V1361.31H0V1405.51H1422.27V1231.58H1381.57Z" fill="#7EA351"/>
<path id="Vector_19" d="M1422.27 1405.51H0V1677H1422.27V1405.51Z" fill="#764B30"/>
<path id="Vector_20" d="M1376.04 1545.33H1422.27V1518.17H1392.63V1433.71H1315.23V1481.98H1229.52V1405.51H1199.12V1469.91H1160.41V1494.04H1110.65V1469.91H1036.01V1506.11H964.133V1405.51H950.309V1463.87H864.611V1527.22H759.559V1478.96H690.444V1451.81H668.33V1545.33H590.923V1484.99H552.22V1530.24H483.112V1478.96H419.525V1436.73H394.644V1469.91H372.528V1518.17H325.533V1469.91H264.712V1530.24H217.716V1451.81H129.254V1484.99H54.6138V1539.29H0V1593.59H65.6702V1677H101.605V1566.44H154.13V1620.75H192.834V1584.54H278.538V1632.81H320.004V1587.56H400.173V1641.86H460.991V1602.64H513.521V1614.71H590.923V1584.54H726.385V1566.44H895.022V1632.81H919.899V1596.61H1055.36V1677H1107.89V1545.33H1163.18V1608.68H1204.64V1563.43H1301.4V1653.93H1367.75V1614.71H1376.04V1545.33Z" fill="#8D573A"/>
</g>
<path id="Vector_21" d="M1369.89 1456.78H1383.56V1456.09C1379 1456.25 1374.45 1456.48 1369.89 1456.78Z" fill="#996F58"/>
<path id="Vector_22" d="M1287.58 1369.31H1243.34V1408.53H1287.58V1369.31Z" fill="#764B30"/>
<path id="Vector_23" d="M848.023 1369.31H803.793V1408.53H848.023V1369.31Z" fill="#764B30"/>
<path id="Vector_24" d="M615.806 1369.31H571.571V1408.53H615.806V1369.31Z" fill="#764B30"/>
<path id="Vector_25" d="M429.891 1521.65H393.262V1560.86H429.891V1521.65Z" fill="#764B30"/>
<path id="Vector_26" d="M512.136 1552.31H475.507V1591.53H512.136V1552.31Z" fill="#764B30"/>
<path id="Vector_27" d="M735.598 1498.01H698.973V1537.23H735.598V1498.01Z" fill="#764B30"/>
<path id="Vector_28" d="M699.432 1555.83H662.802V1595.05H699.432V1555.83Z" fill="#764B30"/>
<path id="Vector_29" d="M836.275 1510.59H799.643V1549.8H836.275V1510.59Z" fill="#764B30"/>
<path id="Vector_30" d="M946.855 1521.65H910.226V1560.86H946.855V1521.65Z" fill="#764B30"/>
<path id="Vector_31" d="M1009.06 1541.26H972.428V1580.47H1009.06V1541.26Z" fill="#764B30"/>
<path id="Vector_32" d="M1095.44 1490.98H1058.82V1530.19H1095.44V1490.98Z" fill="#764B30"/>
<path id="Vector_33" d="M1190.48 1504.55H1153.84V1543.77H1190.48V1504.55Z" fill="#764B30"/>
<path id="Vector_34" d="M1337.92 1490.98H1301.29V1530.19H1337.92V1490.98Z" fill="#764B30"/>
<path id="Vector_35" d="M1366.02 1560.86H1329.39V1600.08H1366.02V1560.86Z" fill="#764B30"/>
<path id="Vector_36" d="M1279.98 1541.26H1243.34V1580.47H1279.98V1541.26Z" fill="#764B30"/>
<path id="Vector_37" d="M1121.43 1605.11H1084.79V1644.33H1121.43V1605.11Z" fill="#764B30"/>
<path id="Vector_38" d="M356.633 1560.86H320.004V1600.08H356.633V1560.86Z" fill="#764B30"/>
<path id="Vector_39" d="M229.468 1563.69H192.834V1602.91H229.468V1563.69Z" fill="#764B30"/>
<path id="Vector_40" d="M164.96 1482.43H128.335V1521.65H164.96V1482.43Z" fill="#764B30"/>
<path id="Vector_41" d="M69.1232 1538.24H32.4956V1577.46H69.1232V1538.24Z" fill="#764B30"/>
<path id="Vector_42" d="M425.054 1369.31H380.822V1408.53H425.054V1369.31Z" fill="#764B30"/>
<path id="Vector_43" d="M980.718 1386.95H936.488V1426.17H980.718V1386.95Z" fill="#764B30"/>
<path id="Vector_44" d="M1125.22 1385.9H1080.99V1425.12H1125.22V1385.9Z" fill="#764B30"/>
<path id="Vector_45" d="M212.19 1385.9H167.957V1425.12H212.19V1385.9Z" fill="#764B30"/>
<path id="Vector_46" d="M380.822 1388.92H336.588V1428.13H380.822V1388.92Z" fill="#7EA351"/>
<path id="Vector_47" d="M512.136 1386.95H467.906V1426.17H512.136V1386.95Z" fill="#7EA351"/>
<path id="Vector_48" d="M684.919 1397.21H640.686V1436.43H684.919V1397.21Z" fill="#7EA351"/>
<path id="Vector_49" d="M774.764 1386.95H730.533V1426.17H774.764V1386.95Z" fill="#7EA351"/>
<path id="Vector_50" d="M936.487 1397.21H892.254V1436.43H936.487V1397.21Z" fill="#7EA351"/>
<path id="Vector_51" d="M1058.82 1397.21H1014.59V1436.43H1058.82V1397.21Z" fill="#7EA351"/>
<path id="Vector_52" d="M1194.28 1397.21H1150.04V1436.43H1194.28V1397.21Z" fill="#7EA351"/>
<path id="Vector_53" d="M1357.38 1373.83H1313.15V1413.05H1357.38V1373.83Z" fill="#7EA351"/>
<path id="Vector_54" d="M288.212 1397.21H243.979V1436.43H288.212V1397.21Z" fill="#7EA351"/>
<path id="Vector_55" d="M115.433 1385.9H71.199V1425.12H115.433V1385.9Z" fill="#7EA351"/>
</g>
</g>
<g id="ortabulut">
<path id="Vector_56" d="M1114.51 329.686V322.67H1105.73V315.659H1096.95V308.647V301.631H1088.17V294.619V287.607V280.593V273.582V266.571V259.559V252.546H1079.39V259.559H1070.61V266.571H1061.84H1053.06H1044.28H1035.5H1026.72H1017.94V259.559H1009.16V252.546H1000.39V245.53H991.608V252.546H982.829V259.559V266.571H974.049V273.582H965.271V280.593H956.49V287.607H947.715H938.933V294.619H930.155H921.38H912.598H903.817H895.038H886.264H877.485H868.703V287.607H859.926H851.147V280.593H842.368V273.582H833.594V266.571H824.812H816.032V273.582H807.256V280.593H798.477H789.698H780.916H772.141H763.362H754.583V273.582H745.803V266.571H737.025V259.559V252.546H728.246V245.53V238.519V231.506V224.49H719.467V231.506V238.519V245.53H710.692V252.546V259.559V266.571V273.582V280.593V287.607H719.467V294.619V301.631V308.647H728.246V315.659V322.67H737.025V329.686H745.803V336.7H754.583H763.362V343.712H772.141H780.916H789.698H798.477H807.256H816.032H824.812H833.594H842.368H851.147H859.926H868.703H877.485H886.264H895.038H903.817H912.598H921.38H930.155H938.933H947.715H956.49H965.271H974.049H982.829H991.608H1000.39H1009.16H1017.94H1026.72H1035.5H1044.28H1053.06H1061.84H1070.61H1079.39H1088.17H1096.95H1105.73H1114.51V336.7H1123.28V329.686H1114.51Z" fill="#B2E2F1"/>
<path id="Vector_57" d="M1140.84 266.571V259.559V252.546H1132.06V245.53H1123.28V238.519H1114.51V231.506H1105.73H1096.95H1088.17V224.49V217.477V210.466H1079.39V203.454V196.443V189.431H1070.61V182.417H1061.84V175.405H1053.06V168.393H1044.28V161.378H1035.5H1026.72H1017.94H1009.16H1000.39H991.608H982.828H974.049V168.393H965.271V161.378V154.365H956.489V147.354H947.715H938.933V140.338H930.155V133.324H921.38H912.598H903.817H895.038H886.264H877.485V140.338H868.703H859.926V147.354H851.147V154.365H842.368V161.378H833.594V168.393H824.812V175.405V182.417V189.431H816.032H807.256H798.477H789.698H780.916H772.141H763.362V196.443H754.583H745.803V203.454H737.025V210.466H728.246V217.477V224.49V231.506V238.519V245.53V252.546H737.025V259.559V266.571H745.803V273.582H754.583V280.593H763.362H772.141H780.916H789.698H798.477H807.256V273.582H816.032V266.571H824.812H833.594V273.582H842.368V280.593H851.147V287.607H859.926H868.703V294.619H877.485H886.264H895.038H903.817H912.598H921.38H930.155H938.933V287.607H947.715H956.489V280.593H965.271V273.582H974.049V266.571H982.828V259.559V252.546H991.608V245.53H1000.39V252.546H1009.16V259.559H1017.94V266.571H1026.72H1035.5H1044.28H1053.06H1061.84H1070.61V259.559H1079.39V252.546H1088.17V259.559V266.571V273.582V280.593V287.607V294.619V301.631H1096.95V308.647V315.659H1105.73V322.67H1114.51V329.686H1123.28V336.7H1132.06V329.686V322.67H1140.84V315.659H1149.62V308.647V301.631V294.619V287.607V280.593V273.582V266.571H1140.84Z" fill="white"/>
</g>
<g id="sagbulut">
<path id="Vector_58" d="M1721.49 535.755V528.278H1712.14V520.805H1702.78V513.333V505.854H1693.43V498.381V490.908V483.43V475.958V468.484V461.006V453.534H1684.07V461.006H1674.71V468.484H1665.35H1655.99H1646.64H1637.28H1627.92H1618.57V461.006H1609.21V453.534H1599.85V446.06H1590.5V453.534H1581.14V461.006V468.484H1571.78V475.958H1562.42V483.43H1553.06V490.908H1543.71H1534.35V498.381H1524.99H1515.64H1506.28H1496.92H1487.57H1478.21H1468.86H1459.5V490.908H1450.14H1440.78V483.43H1431.43V475.958H1422.07V468.484H1412.71H1403.35V475.958H1394V483.43H1384.64H1375.28H1365.93H1356.57H1347.21H1337.85V475.958H1328.5V468.484H1319.14V461.006V453.534H1309.79V446.06V438.582V431.105V423.636H1300.43V431.105V438.582V446.06H1291.07V453.534V461.006V468.484V475.958V483.43V490.908H1300.43V498.381V505.854V513.333H1309.79V520.805V528.278H1319.14V535.755H1328.5V543.229H1337.85H1347.21V550.704H1356.57H1365.93H1375.28H1384.64H1394H1403.35H1412.71H1422.07H1431.43H1440.78H1450.14H1459.5H1468.86H1478.21H1487.57H1496.92H1506.28H1515.64H1524.99H1534.35H1543.71H1553.06H1562.42H1571.78H1581.14H1590.5H1599.85H1609.21H1618.57H1627.92H1637.28H1646.64H1655.99H1665.35H1674.71H1684.07H1693.43H1702.78H1712.14H1721.49V543.229H1730.85V535.755H1721.49Z" fill="#B2E2F1"/>
<path id="Vector_59" d="M1749.56 468.484V461.006V453.534H1740.21V446.06H1730.85V438.582H1721.49V431.105H1712.14H1702.78H1693.43V423.636V416.158V408.68H1684.07V401.208V393.734V386.256H1674.71V378.783H1665.35V371.31H1655.99V363.832H1646.64V356.359H1637.28H1627.92H1618.57H1609.21H1599.85H1590.5H1581.14H1571.78V363.832H1562.42V356.359V348.885H1553.06V341.409H1543.71H1534.35V333.935H1524.99V326.463H1515.64H1506.28H1496.92H1487.57H1478.21H1468.86V333.935H1459.5H1450.14V341.409H1440.78V348.885H1431.43V356.359H1422.07V363.832H1412.71V371.31V378.783V386.256H1403.35H1394H1384.64H1375.28H1365.93H1356.57H1347.21V393.734H1337.85H1328.5V401.208H1319.14V408.68H1309.79V416.158V423.636V431.105V438.582V446.06V453.534H1319.14V461.006V468.484H1328.5V475.958H1337.85V483.43H1347.21H1356.57H1365.93H1375.28H1384.64H1394V475.958H1403.35V468.484H1412.71H1422.07V475.958H1431.43V483.43H1440.78V490.908H1450.14H1459.5V498.381H1468.86H1478.21H1487.57H1496.92H1506.28H1515.64H1524.99H1534.35V490.908H1543.71H1553.06V483.43H1562.42V475.958H1571.78V468.484H1581.14V461.006V453.534H1590.5V446.06H1599.85V453.534H1609.21V461.006H1618.57V468.484H1627.92H1637.28H1646.64H1655.99H1665.35H1674.71V461.006H1684.07V453.534H1693.43V461.006V468.484V475.958V483.43V490.908V498.381V505.854H1702.78V513.333V520.805H1712.14V528.278H1721.49V535.755H1730.85V543.229H1740.21V535.755V528.278H1749.56V520.805H1758.92V513.333V505.854V498.381V490.908V483.43V475.958V468.484H1749.56Z" fill="white"/>
</g>
<g id="solbulut">
<path id="Vector_60" d="M632.428 535.755V528.278H623.074V520.805H613.718V513.333V505.854H604.36V498.381V490.908V483.43V475.958V468.484V461.006V453.534H595.004V461.006H585.646V468.484H576.288H566.93H557.574H548.219H538.86H529.503V461.006H520.145V453.534H510.787V446.06H501.431V453.534H492.074V461.006V468.484H482.717V475.958H473.36V483.43H464.001V490.908H454.644H445.288V498.381H435.932H426.574H417.215H407.858H398.502H389.149H379.792H370.435V490.908H361.076H351.718V483.43H342.363V475.958H333.006V468.484H323.649H314.291V475.958H304.932V483.43H295.574H286.219H276.863H267.505H258.146H248.789V475.958H239.437V468.484H230.079V461.006V453.534H220.723V446.06V438.582V431.105V423.636H211.366V431.105V438.582V446.06H202.007V453.534V461.006V468.484V475.958V483.43V490.908H211.366V498.381V505.854V513.333H220.723V520.805V528.278H230.079V535.755H239.437V543.229H248.789H258.146V550.704H267.505H276.863H286.219H295.574H304.932H314.291H323.649H333.006H342.363H351.718H361.076H370.435H379.792H389.149H398.502H407.858H417.215H426.574H435.932H445.288H454.644H464.001H473.36H482.717H492.074H501.431H510.787H520.145H529.503H538.86H548.219H557.574H566.93H576.288H585.646H595.004H604.36H613.718H623.074H632.428V543.229H641.786V535.755H632.428Z" fill="#B2E2F1"/>
<path id="Vector_61" d="M660.5 468.484V461.006V453.534H651.143V446.06H641.786V438.582H632.428V431.105H623.074H613.718H604.36V423.636V416.158V408.68H595.004V401.208V393.734V386.256H585.646V378.783H576.288V371.31H566.93V363.832H557.574V356.359H548.219H538.86H529.503H520.145H510.787H501.431H492.074H482.717V363.832H473.36V356.359V348.885H464.001V341.409H454.644H445.288V333.935H435.932V326.463H426.574H417.215H407.858H398.502H389.149H379.792V333.935H370.435H361.076V341.409H351.718V348.885H342.363V356.359H333.006V363.832H323.649V371.31V378.783V386.256H314.291H304.932H295.574H286.218H276.863H267.505H258.146V393.734H248.789H239.437V401.208H230.079V408.68H220.723V416.158V423.636V431.105V438.582V446.06V453.534H230.079V461.006V468.484H239.437V475.958H248.789V483.43H258.146H267.505H276.863H286.218H295.574H304.932V475.958H314.291V468.484H323.649H333.006V475.958H342.363V483.43H351.718V490.908H361.076H370.435V498.381H379.792H389.149H398.502H407.858H417.215H426.574H435.932H445.288V490.908H454.644H464.001V483.43H473.36V475.958H482.717V468.484H492.074V461.006V453.534H501.431V446.06H510.787V453.534H520.145V461.006H529.503V468.484H538.86H548.219H557.574H566.93H576.288H585.646V461.006H595.004V453.534H604.36V461.006V468.484V475.958V483.43V490.908V498.381V505.854H613.718V513.333V520.805H623.074V528.278H632.428V535.755H641.786V543.229H651.143V535.755V528.278H660.5V520.805H669.855V513.333V505.854V498.381V490.908V483.43V475.958V468.484H660.5Z" fill="white"/>
</g>
<g id="solblok">
<g id="Group_6">
<g id="Group_7">
<g id="Group_8">
<path id="Vector_62" d="M408.535 760.201H234.86V887.675H408.535V760.201Z" fill="#96582F"/>
<path id="Vector_63" d="M408.535 812.974H393.044V773.05H328.771V789.94H274.538V817.578H234.86V845.223H282.574V887.675H308.683V831.401H346.848V859.043H374.967V840.612H408.535V812.974Z" fill="#A56033"/>
</g>
<path id="Vector_64" d="M401.579 829.998H374.967V849.96H401.579V829.998Z" fill="#7F4C2A"/>
<path id="Vector_65" d="M354.712 788.639H328.104V808.6H354.712V788.639Z" fill="#7F4C2A"/>
<path id="Vector_66" d="M285.085 817.041H258.471V837.006H285.085V817.041Z" fill="#7F4C2A"/>
</g>
<path id="Vector_67" d="M234.86 802.455H408.535" stroke="#4A2A14" stroke-width="9.9456" stroke-miterlimit="10"/>
<path id="Vector_68" d="M234.86 852.976H408.535" stroke="#4A2A14" stroke-width="9.9456" stroke-miterlimit="10"/>
<path id="Vector_69" d="M324.636 760.201V802.455" stroke="#4A2A14" stroke-width="9.9456" stroke-miterlimit="10"/>
<path id="Vector_70" d="M324.636 850.908V887.675" stroke="#4A2A14" stroke-width="9.9456" stroke-miterlimit="10"/>
<path id="Vector_71" d="M268.839 803.145V850.908" stroke="#4A2A14" stroke-width="9.9456" stroke-miterlimit="10"/>
<path id="Vector_72" d="M376.708 803.145V850.908" stroke="#4A2A14" stroke-width="9.9456" stroke-miterlimit="10"/>
<path id="Vector_73" d="M408.535 760.201H234.86V887.675H408.535V760.201Z" stroke="#4A2A14" stroke-width="9.9456" stroke-miterlimit="10"/>
</g>
<g id="Group_9">
<g id="Group_10">
<g id="Group_11">
<path id="Vector_74" d="M586.002 760.201H412.327V887.675H586.002V760.201Z" fill="#96582F"/>
<path id="Vector_75" d="M586.002 812.974H570.512V773.05H506.234V789.94H452.007V817.578H412.327V845.223H460.039V887.675H486.15V831.401H524.314V859.043H552.434V840.612H586.002V812.974Z" fill="#A56033"/>
</g>
<path id="Vector_76" d="M579.049 829.998H552.434V849.96H579.049V829.998Z" fill="#7F4C2A"/>
<path id="Vector_77" d="M532.18 788.639H505.568V808.6H532.18V788.639Z" fill="#7F4C2A"/>
<path id="Vector_78" d="M462.547 817.041H435.935V837.006H462.547V817.041Z" fill="#7F4C2A"/>
</g>
<path id="Vector_79" d="M412.327 802.455H586.002" stroke="#4A2A14" stroke-width="9.9456" stroke-miterlimit="10"/>
<path id="Vector_80" d="M412.327 852.976H586.002" stroke="#4A2A14" stroke-width="9.9456" stroke-miterlimit="10"/>
<path id="Vector_81" d="M502.102 760.201V802.455" stroke="#4A2A14" stroke-width="9.9456" stroke-miterlimit="10"/>
<path id="Vector_82" d="M502.102 850.908V887.675" stroke="#4A2A14" stroke-width="9.9456" stroke-miterlimit="10"/>
<path id="Vector_83" d="M446.305 803.145V850.908" stroke="#4A2A14" stroke-width="9.9456" stroke-miterlimit="10"/>
<path id="Vector_84" d="M554.175 803.145V850.908" stroke="#4A2A14" stroke-width="9.9456" stroke-miterlimit="10"/>
<path id="Vector_85" d="M586.002 760.201H412.327V887.675H586.002V760.201Z" stroke="#4A2A14" stroke-width="9.9456" stroke-miterlimit="10"/>
</g>
</g>
<g id="sagblok">
<g id="Group_12">
<g id="Group_13">
<g id="Group_14">
<path id="Vector_86" d="M1547.37 760.201H1373.7V887.675H1547.37V760.201Z" fill="#96582F"/>
<path id="Vector_87" d="M1547.37 812.974H1531.88V773.05H1467.6V789.94H1413.38V817.578H1373.7V845.223H1421.4V887.675H1447.52V831.401H1485.68V859.043H1513.8V840.612H1547.37V812.974Z" fill="#A56033"/>
</g>
<path id="Vector_88" d="M1540.42 829.998H1513.8V849.96H1540.42V829.998Z" fill="#7F4C2A"/>
<path id="Vector_89" d="M1493.55 788.639H1466.93V808.6H1493.55V788.639Z" fill="#7F4C2A"/>
<path id="Vector_90" d="M1423.92 817.041H1397.31V837.006H1423.92V817.041Z" fill="#7F4C2A"/>
</g>
<path id="Vector_91" d="M1373.7 802.455H1547.37" stroke="#4A2A14" stroke-width="9.9456" stroke-miterlimit="10"/>
<path id="Vector_92" d="M1373.7 852.976H1547.37" stroke="#4A2A14" stroke-width="9.9456" stroke-miterlimit="10"/>
<path id="Vector_93" d="M1463.47 760.201V802.455" stroke="#4A2A14" stroke-width="9.9456" stroke-miterlimit="10"/>
<path id="Vector_94" d="M1463.47 850.908V887.675" stroke="#4A2A14" stroke-width="9.9456" stroke-miterlimit="10"/>
<path id="Vector_95" d="M1407.67 803.145V850.908" stroke="#4A2A14" stroke-width="9.9456" stroke-miterlimit="10"/>
<path id="Vector_96" d="M1515.54 803.145V850.908" stroke="#4A2A14" stroke-width="9.9456" stroke-miterlimit="10"/>
<path id="Vector_97" d="M1547.37 760.201H1373.7V887.675H1547.37V760.201Z" stroke="#4A2A14" stroke-width="9.9456" stroke-miterlimit="10"/>
</g>
<g id="Group_15">
<g id="Group_16">
<g id="Group_17">
<path id="Vector_98" d="M1724.83 760.201H1551.16V887.675H1724.83V760.201Z" fill="#96582F"/>
<path id="Vector_99" d="M1724.83 812.974H1709.34V773.05H1645.07V789.94H1590.84V817.578H1551.16V845.223H1598.87V887.675H1624.98V831.401H1663.15V859.043H1691.27V840.612H1724.83V812.974Z" fill="#A56033"/>
</g>
<path id="Vector_100" d="M1717.88 829.998H1691.27V849.96H1717.88V829.998Z" fill="#7F4C2A"/>
<path id="Vector_101" d="M1671.01 788.639H1644.4V808.6H1671.01V788.639Z" fill="#7F4C2A"/>
<path id="Vector_102" d="M1601.38 817.041H1574.77V837.006H1601.38V817.041Z" fill="#7F4C2A"/>
</g>
<path id="Vector_103" d="M1551.16 802.455H1724.83" stroke="#4A2A14" stroke-width="9.9456" stroke-miterlimit="10"/>
<path id="Vector_104" d="M1551.16 852.976H1724.83" stroke="#4A2A14" stroke-width="9.9456" stroke-miterlimit="10"/>
<path id="Vector_105" d="M1640.93 760.201V802.455" stroke="#4A2A14" stroke-width="9.9456" stroke-miterlimit="10"/>
<path id="Vector_106" d="M1640.93 850.908V887.675" stroke="#4A2A14" stroke-width="9.9456" stroke-miterlimit="10"/>
<path id="Vector_107" d="M1585.14 803.145V850.908" stroke="#4A2A14" stroke-width="9.9456" stroke-miterlimit="10"/>
<path id="Vector_108" d="M1693.01 803.145V850.908" stroke="#4A2A14" stroke-width="9.9456" stroke-miterlimit="10"/>
<path id="Vector_109" d="M1724.83 760.201H1551.16V887.675H1724.83V760.201Z" stroke="#4A2A14" stroke-width="9.9456" stroke-miterlimit="10"/>
</g>
</g>
<g id="random">
<path id="Vector_110" d="M1114.32 550.704H916.489V740.911H1114.32V550.704Z" fill="#AD764E"/>
<path id="Vector_111" d="M1093.08 571.131H937.737V720.484H1093.08V571.131Z" fill="#FFCC23"/>
<g id="Group_18">
<path id="Vector_112" d="M958.618 705.666H943.232V720.613H958.618V705.666Z" fill="#F5AF2B"/>
<path id="Vector_113" d="M1078.96 571.131V586.08H1063.58V601.027H1048.19V615.979H1032.8V630.924H1017.41V645.871H1002.03V660.819H986.644V675.768H971.257V690.715H955.87V705.666V720.613H971.257H986.644H1002.03H1017.41H1032.8H1048.19H1063.58H1078.96H1094.35V705.666V690.715V675.768V660.819V645.871V630.924V615.979V601.027V586.08V571.131H1078.96Z" fill="#F5AF2B"/>
</g>
<path id="Vector_114" d="M944.308 574.17H929.543V588.022H944.308V574.17Z" fill="#AD764E"/>
<g id="Group_19">
<path id="Vector_115" d="M944.308 563.861H929.543V588.022H944.308V563.861Z" fill="#AD764E"/>
<path id="Vector_116" d="M958.047 562.087H943.277V575.94H958.047V562.087Z" fill="#AD764E"/>
</g>
<g id="Group_20">
<path id="Vector_117" d="M1100.92 562.975H1086.16V587.135H1100.92V562.975Z" fill="#AD764E"/>
<path id="Vector_118" d="M1087.19 561.201H1072.42V575.054H1087.19V561.201Z" fill="#AD764E"/>
</g>
<g id="Group_21">
<path id="Vector_119" d="M944.481 702.686H929.715V726.846H944.481V702.686Z" fill="#AD764E"/>
<path id="Vector_120" d="M958.216 714.763H943.454V728.62H958.216V714.763Z" fill="#AD764E"/>
</g>
<g id="Group_22">
<path id="Vector_121" d="M1101.09 703.571H1086.33V727.732H1101.09V703.571Z" fill="#AD764E"/>
<path id="Vector_122" d="M1087.36 715.654H1072.59V729.507H1087.36V715.654Z" fill="#AD764E"/>
</g>
<g id="Group_23">
<g id="Group_24">
<path id="Vector_123" d="M971.229 624.732V610.931H985.94V624.732H971.229ZM1000.67 679.992V652.37H1015.41V638.555H1030.11V610.931H985.94V597.111H1044.85V610.93H1059.58V638.554H1044.85V652.369H1030.11V679.991H1000.67V679.992ZM1000.67 707.616V693.816H1030.12V707.616H1000.67Z" fill="#946542"/>
</g>
</g>
</g>
</g>
</svg>
