<svg width="183" height="251" viewBox="0 0 183 251" fill="none" xmlns="http://www.w3.org/2000/svg">
   <g id="layer1">
      <path id="tshirt"
         d="M29.3125 110.281V121.562H12.7812V135.219H0.3125V154.406H12.7812V168.062H167.156V154.406H182.844V135.219H167.156V121.562H122.844V110.281H29.3125Z"
         fill="#FF0000" />
      <path id="yuz"
         d="M76.7812 29.2812V45.3281H44.6875H29.8125V77.9062H44.6875V104.281H76.7812H77.0625H139.156H150.438V89.8616H139.156V77.596H181.812V47.9688H139.038V29.2812H76.7812Z"
         fill="#DDAF76" />
      <path id="goz" d="M104.977 29.4149H121.977V60.5485H104.977V29.4149Z" fill="black" />
      <path id="pantolon"
         d="M46.7031 173.344V179.344H30.875V213.859H76.7812V198.75H106.75V213.859H152.297V179.344H136.578V173.344H46.7031Z"
         fill="#FF0000" />
      <path id="sapka"
         d="M44.4196 0.0485229V14.0485H2.41962V29.4149H139.038V14.0485H121.92V0.0485229H44.4196Z"
         fill="#FF0000" />
      <path id="dudak" d="M114.857 77.596H165.857V89.8616H114.857V77.596Z" fill="black" />
      <path id="boyun"
         d="M44.8438 104.281V110.281H70.6562V130.188H77.7188V139.406H84.6875V146.125H89.0625V161.188H91.3438V146.125H94.875V130.188H100.281V110.281H122.844V104.281H44.8438Z"
         fill="black" />
      <path id="kemer" d="M46.7031 164.948H136.578V173.457H46.7031V164.948Z" fill="black" />
      <path id="sagayak"
         d="M15.9062 213.859V227.625H1.5V244.062H15.9062H61V227.625V213.859H15.9062Z" fill="black" />
      <path id="solayak"
         d="M121.5 213.859V227.625V244.062H169.938H182.188V227.625H169.938V213.859H121.5Z"
         fill="black" />
      <path id="sari" d="M83.0674 177.112H100.086V161.172H83.0674V177.112Z" fill="#FFFF00" />
      <path id="rect3047"
         d="M14.8438 45.3281V90.2812H29.8438H44.8438V75.2812H29.8438V45.3281H14.8438Z" fill="black" />
      <path id="rect3043"
         d="M29.8438 29.4149V45.3281H46.8438V75.2812H60.8438V45.3281H76.8438V29.4149H29.8438Z"
         fill="black" />
      <path id="sagel"
         d="M0.3125 152.719V196.812H30.875V179.562H46.7031V166.156H30.875V152.719H0.3125Z"
         fill="#DDAF76" />
      <path id="solel"
         d="M152.297 152.969V168.062H136.578V183.406H152.297V198.031H182.844V152.969H152.297Z"
         fill="#DDAF76" />
   </g>
</svg>