<svg width="1952" height="1677" viewBox="0 0 1952 1677" fill="none"
    xmlns="http://www.w3.org/2000/svg">
    <g id="Group">
        <path id="bgust" d="M1952 0H0V1677H1952V0Z" fill="#1A472A" />
        <path id="bgorta"
            d="M1952 1290.8V386.2H1937.91V459.354H1911.63V386.2H1869.18V434.129H1800.44V507.283H1739.79V386.2H1691.27V456.831H1624.55V386.2H1578.05V451.789H1521.44V386.2H1454.73V416.47H1361.73V386.2H1305.13V474.489H1250.54V386.2H1208.09V434.129H1129.25V492.148H1054.44V411.424H1003.9V454.307H959.419V403.86H896.751V464.399H803.749V386.2H728.951V424.036H666.278V386.2H609.672V421.517H524.76V484.577H470.177V386.2H421.655V439.176H352.917V386.2H318.549V418.994H213.423V499.719H164.903V386.2H92.1237V431.607H0V1290.8H1952Z"
            fill="#2D5A3D" />
        <path id="bgalt"
            d="M1952 1677V772.401H1937.91V845.553H1911.63V772.401H1869.18V820.33H1800.44V893.483H1739.79V772.401H1691.27V843.035H1624.55V772.401H1578.05V837.988H1521.44V772.401H1454.73V802.672H1361.73V772.401H1305.13V860.691H1250.54V772.401H1208.09V820.33H1129.25V878.346H1054.44V797.626H1003.9V840.511H959.419V790.058H896.751V850.6H803.749V772.401H728.951V810.24H666.278V772.401H609.672V807.718H524.76V870.778H470.177V772.401H421.655V825.377H352.917V772.401H318.549V805.196H213.423V885.918H164.903V772.401H92.1237V817.811H0V1677H1952Z"
            fill="#3D6B4F" />
        <g id="zemin">
            <path id="Vector" d="M1952 1170H0V1406H1952V1170Z" fill="#4A3021" />
            <path id="Vector_2"
                d="M1952 1210H1804.51V1258.51H1508.14V1291.85H1077.95V1376.75H886.744V1258.51H638.171V1300.95H313.137V1361.57H0V1406H1952V1210Z"
                fill="#5B3F2E" />
            <path id="Vector_3" d="M1952 1406H0V1677H1952V1406Z" fill="#2D1810" />
        </g>
        <g id="bulutlar">
            <path id="Vector_56"
                d="M1114.51 329.686V322.67H1105.73V315.659H1096.95V308.647V301.631H1088.17V294.619V287.607V280.593V273.582V266.571V259.559V252.546H1079.39V259.559H1070.61V266.571H1061.84H1053.06H1044.28H1035.5H1026.72H1017.94V259.559H1009.16V252.546H1000.39V245.53H991.608V252.546H982.829V259.559V266.571H974.049V273.582H965.271V280.593H956.49V287.607H947.715H938.933V294.619H930.155H921.38H912.598H903.817H895.038H886.264H877.485H868.703V287.607H859.926H851.147V280.593H842.368V273.582H833.594V266.571H824.812H816.032V273.582H807.256V280.593H798.477H789.698H780.916H772.141H763.362H754.583V273.582H745.803V266.571H737.025V259.559V252.546H728.246V245.53V238.519V231.506V224.49H719.467V231.506V238.519V245.53H710.692V252.546V259.559V266.571V273.582V280.593V287.607H719.467V294.619V301.631V308.647H728.246V315.659V322.67H737.025V329.686H745.803V336.7H754.583H763.362V343.712H772.141H780.916H789.698H798.477H807.256H816.032H824.812H833.594H842.368H851.147H859.926H868.703H877.485H886.264H895.038H903.817H912.598H921.38H930.155H938.933H947.715H956.49H965.271H974.049H982.829H991.608H1000.39H1009.16H1017.94H1026.72H1035.5H1044.28H1053.06H1061.84H1070.61H1079.39H1088.17H1096.95H1105.73H1114.51V336.7H1123.28V329.686H1114.51Z"
                fill="#435A3D" />
            <path id="Vector_56_2"
                d="M109.608 249V240.997H119.226V232.999H128.845V225V216.997H138.464V208.998V200.999V192.998V185.001V177.003V169.004V161.004H148.083V169.004H157.701V177.003H167.309H176.928H186.546H196.165H205.784H215.403V169.004H225.021V161.004H234.629V153.001H244.25V161.004H253.867V169.004V177.003H263.486V185.001H273.103V192.998H282.722V200.999H292.336H301.957V208.998H311.573H321.186H330.807H340.427H350.045H359.657H369.274H378.895V200.999H388.511H398.128V192.998H407.746V185.001H417.358V177.003H426.979H436.598V185.001H446.212V192.998H455.829H465.447H475.068H484.681H494.299H503.916V185.001H513.535V177.003H523.152V169.004V161.004H532.769V153.001V145.003V137.003V129H542.387V137.003V145.003V153.001H552V161.004V169.004V177.003V185.001V192.998V200.999H542.387V208.998V216.997V225H532.769V232.999V240.997H523.152V249H513.535V257.001H503.916H494.299V265H484.681H475.068H465.447H455.829H446.212H436.598H426.979H417.358H407.746H398.128H388.511H378.895H369.274H359.657H350.045H340.427H330.807H321.186H311.573H301.957H292.336H282.722H273.103H263.486H253.867H244.25H234.629H225.021H215.403H205.784H196.165H186.546H176.928H167.309H157.701H148.083H138.464H128.845H119.226H109.608V257.001H100V249H109.608Z"
                fill="#435A3D" />
            <path id="Vector_56_3"
                d="M1774.16 147.117V156.18H1764.31V165.236H1754.45V174.294V183.356H1744.6V192.414V201.471V210.531V219.587V228.644V237.701V246.76H1734.75V237.701H1724.89V228.644H1715.05H1705.2H1695.35H1685.49H1675.64H1665.79V237.701H1655.94V246.76H1646.09V255.822H1636.24V246.76H1626.39V237.701V228.644H1616.54V219.587H1606.68V210.531H1596.83V201.471H1586.98H1577.13V192.414H1567.28H1557.43H1547.58H1537.72H1527.87H1518.02H1508.17H1498.32V201.471H1488.47H1478.62V210.531H1468.76V219.587H1458.92V228.644H1449.06H1439.21V219.587H1429.36V210.531H1419.51H1409.66H1399.8H1389.96H1380.11H1370.25V219.587H1360.4V228.644H1350.55V237.701V246.76H1340.7V255.822V264.879V273.937V283H1330.85V273.937V264.879V255.822H1321V246.76V237.701V228.644V219.587V210.531V201.471H1330.85V192.414V183.356V174.294H1340.7V165.236V156.18H1350.55V147.117H1360.4V138.057H1370.25H1380.11V129H1389.96H1399.8H1409.66H1419.51H1429.36H1439.21H1449.06H1458.92H1468.76H1478.62H1488.47H1498.32H1508.17H1518.02H1527.87H1537.72H1547.58H1557.43H1567.28H1577.13H1586.98H1596.83H1606.68H1616.54H1626.39H1636.24H1646.09H1655.94H1665.79H1675.64H1685.49H1695.35H1705.2H1715.05H1724.89H1734.75H1744.6H1754.45H1764.31H1774.16V138.057H1784V147.117H1774.16Z"
                fill="#435A3D" />
        </g>
        <g id="solblok">
            <g id="Group_6">
                <g id="Group_7">
                    <g id="Group_8">
                        <path id="Vector_62" d="M408.535 760.201H234.86V887.675H408.535V760.201Z"
                            fill="#96582F" />
                        <path id="Vector_63"
                            d="M408.535 812.974H393.044V773.05H328.771V789.94H274.538V817.578H234.86V845.223H282.574V887.675H308.683V831.401H346.848V859.043H374.967V840.612H408.535V812.974Z"
                            fill="#A56033" />
                    </g>
                    <path id="Vector_64" d="M401.579 829.998H374.967V849.96H401.579V829.998Z"
                        fill="#7F4C2A" />
                    <path id="Vector_65" d="M354.712 788.639H328.104V808.6H354.712V788.639Z"
                        fill="#7F4C2A" />
                    <path id="Vector_66" d="M285.085 817.041H258.471V837.006H285.085V817.041Z"
                        fill="#7F4C2A" />
                </g>
                <path id="Vector_67" d="M234.86 802.455H408.535" stroke="#4A2A14"
                    stroke-width="9.9456" stroke-miterlimit="10" />
                <path id="Vector_68" d="M234.86 852.976H408.535" stroke="#4A2A14"
                    stroke-width="9.9456" stroke-miterlimit="10" />
                <path id="Vector_69" d="M324.636 760.201V802.455" stroke="#4A2A14"
                    stroke-width="9.9456" stroke-miterlimit="10" />
                <path id="Vector_70" d="M324.636 850.908V887.675" stroke="#4A2A14"
                    stroke-width="9.9456" stroke-miterlimit="10" />
                <path id="Vector_71" d="M268.839 803.145V850.908" stroke="#4A2A14"
                    stroke-width="9.9456" stroke-miterlimit="10" />
                <path id="Vector_72" d="M376.708 803.145V850.908" stroke="#4A2A14"
                    stroke-width="9.9456" stroke-miterlimit="10" />
                <path id="Vector_73" d="M408.535 760.201H234.86V887.675H408.535V760.201Z"
                    stroke="#4A2A14" stroke-width="9.9456" stroke-miterlimit="10" />
            </g>
            <g id="Group_9">
                <g id="Group_10">
                    <g id="Group_11">
                        <path id="Vector_74" d="M586.002 760.201H412.327V887.675H586.002V760.201Z"
                            fill="#96582F" />
                        <path id="Vector_75"
                            d="M586.002 812.974H570.512V773.05H506.234V789.94H452.007V817.578H412.327V845.223H460.039V887.675H486.15V831.401H524.314V859.043H552.434V840.612H586.002V812.974Z"
                            fill="#A56033" />
                    </g>
                    <path id="Vector_76" d="M579.049 829.998H552.434V849.96H579.049V829.998Z"
                        fill="#7F4C2A" />
                    <path id="Vector_77" d="M532.18 788.639H505.568V808.6H532.18V788.639Z"
                        fill="#7F4C2A" />
                    <path id="Vector_78" d="M462.547 817.041H435.935V837.006H462.547V817.041Z"
                        fill="#7F4C2A" />
                </g>
                <path id="Vector_79" d="M412.327 802.455H586.002" stroke="#4A2A14"
                    stroke-width="9.9456" stroke-miterlimit="10" />
                <path id="Vector_80" d="M412.327 852.976H586.002" stroke="#4A2A14"
                    stroke-width="9.9456" stroke-miterlimit="10" />
                <path id="Vector_81" d="M502.102 760.201V802.455" stroke="#4A2A14"
                    stroke-width="9.9456" stroke-miterlimit="10" />
                <path id="Vector_82" d="M502.102 850.908V887.675" stroke="#4A2A14"
                    stroke-width="9.9456" stroke-miterlimit="10" />
                <path id="Vector_83" d="M446.305 803.145V850.908" stroke="#4A2A14"
                    stroke-width="9.9456" stroke-miterlimit="10" />
                <path id="Vector_84" d="M554.175 803.145V850.908" stroke="#4A2A14"
                    stroke-width="9.9456" stroke-miterlimit="10" />
                <path id="Vector_85" d="M586.002 760.201H412.327V887.675H586.002V760.201Z"
                    stroke="#4A2A14" stroke-width="9.9456" stroke-miterlimit="10" />
            </g>
        </g>
        <g id="sagblok">
            <g id="Group_12">
                <g id="Group_13">
                    <g id="Group_14">
                        <path id="Vector_86" d="M1547.37 760.201H1373.7V887.675H1547.37V760.201Z"
                            fill="#96582F" />
                        <path id="Vector_87"
                            d="M1547.37 812.974H1531.88V773.05H1467.6V789.94H1413.38V817.578H1373.7V845.223H1421.4V887.675H1447.52V831.401H1485.68V859.043H1513.8V840.612H1547.37V812.974Z"
                            fill="#A56033" />
                    </g>
                    <path id="Vector_88" d="M1540.42 829.998H1513.8V849.96H1540.42V829.998Z"
                        fill="#7F4C2A" />
                    <path id="Vector_89" d="M1493.55 788.639H1466.93V808.6H1493.55V788.639Z"
                        fill="#7F4C2A" />
                    <path id="Vector_90" d="M1423.92 817.041H1397.31V837.006H1423.92V817.041Z"
                        fill="#7F4C2A" />
                </g>
                <path id="Vector_91" d="M1373.7 802.455H1547.37" stroke="#4A2A14"
                    stroke-width="9.9456" stroke-miterlimit="10" />
                <path id="Vector_92" d="M1373.7 852.976H1547.37" stroke="#4A2A14"
                    stroke-width="9.9456" stroke-miterlimit="10" />
                <path id="Vector_93" d="M1463.47 760.201V802.455" stroke="#4A2A14"
                    stroke-width="9.9456" stroke-miterlimit="10" />
                <path id="Vector_94" d="M1463.47 850.908V887.675" stroke="#4A2A14"
                    stroke-width="9.9456" stroke-miterlimit="10" />
                <path id="Vector_95" d="M1407.67 803.145V850.908" stroke="#4A2A14"
                    stroke-width="9.9456" stroke-miterlimit="10" />
                <path id="Vector_96" d="M1515.54 803.145V850.908" stroke="#4A2A14"
                    stroke-width="9.9456" stroke-miterlimit="10" />
                <path id="Vector_97" d="M1547.37 760.201H1373.7V887.675H1547.37V760.201Z"
                    stroke="#4A2A14" stroke-width="9.9456" stroke-miterlimit="10" />
            </g>
            <g id="Group_15">
                <g id="Group_16">
                    <g id="Group_17">
                        <path id="Vector_98" d="M1724.83 760.201H1551.16V887.675H1724.83V760.201Z"
                            fill="#96582F" />
                        <path id="Vector_99"
                            d="M1724.83 812.974H1709.34V773.05H1645.07V789.94H1590.84V817.578H1551.16V845.223H1598.87V887.675H1624.98V831.401H1663.15V859.043H1691.27V840.612H1724.83V812.974Z"
                            fill="#A56033" />
                    </g>
                    <path id="Vector_100" d="M1717.88 829.998H1691.27V849.96H1717.88V829.998Z"
                        fill="#7F4C2A" />
                    <path id="Vector_101" d="M1671.01 788.639H1644.4V808.6H1671.01V788.639Z"
                        fill="#7F4C2A" />
                    <path id="Vector_102" d="M1601.38 817.041H1574.77V837.006H1601.38V817.041Z"
                        fill="#7F4C2A" />
                </g>
                <path id="Vector_103" d="M1551.16 802.455H1724.83" stroke="#4A2A14"
                    stroke-width="9.9456" stroke-miterlimit="10" />
                <path id="Vector_104" d="M1551.16 852.976H1724.83" stroke="#4A2A14"
                    stroke-width="9.9456" stroke-miterlimit="10" />
                <path id="Vector_105" d="M1640.93 760.201V802.455" stroke="#4A2A14"
                    stroke-width="9.9456" stroke-miterlimit="10" />
                <path id="Vector_106" d="M1640.93 850.908V887.675" stroke="#4A2A14"
                    stroke-width="9.9456" stroke-miterlimit="10" />
                <path id="Vector_107" d="M1585.14 803.145V850.908" stroke="#4A2A14"
                    stroke-width="9.9456" stroke-miterlimit="10" />
                <path id="Vector_108" d="M1693.01 803.145V850.908" stroke="#4A2A14"
                    stroke-width="9.9456" stroke-miterlimit="10" />
                <path id="Vector_109" d="M1724.83 760.201H1551.16V887.675H1724.83V760.201Z"
                    stroke="#4A2A14" stroke-width="9.9456" stroke-miterlimit="10" />
            </g>
        </g>
        <g id="random">
            <path id="Vector_110" d="M1114.32 550.704H916.489V740.911H1114.32V550.704Z"
                fill="#4D2F1E" />
            <path id="Vector_111" d="M1093.08 571.131H937.737V720.484H1093.08V571.131Z"
                fill="#9B1B30" />
            <g id="Group_18">
                <path id="Vector_112" d="M958.618 705.666H943.232V720.613H958.618V705.666Z"
                    fill="#7A1525" />
                <path id="Vector_113"
                    d="M1078.96 571.131V586.08H1063.58V601.027H1048.19V615.979H1032.8V630.924H1017.41V645.871H1002.03V660.819H986.644V675.768H971.257V690.715H955.87V705.666V720.613H971.257H986.644H1002.03H1017.41H1032.8H1048.19H1063.58H1078.96H1094.35V705.666V690.715V675.768V660.819V645.871V630.924V615.979V601.027V586.08V571.131H1078.96Z"
                    fill="#7A1525" />
            </g>
        </g>
        <path id="Vector_2_2"
            d="M-3.05176e-05 1481H147.491V1529.51H443.856V1562.85H874.053V1647.75H1065.26V1529.51H1313.83V1571.95H1638.86V1632.57H1952V1677H-3.05176e-05V1481Z"
            fill="#5B3F2E" />
    </g>
</svg>