<svg width="121" height="32" viewBox="0 0 121 32" fill="none" xmlns="http://www.w3.org/2000/svg">
<path d="M41.608 24V7.2H47.896C49.24 7.2 50.352 7.432 51.232 7.896C52.128 8.36 52.792 8.984 53.224 9.768C53.656 10.536 53.872 11.392 53.872 12.336C53.872 13.232 53.656 14.072 53.224 14.856C52.808 15.624 52.152 16.248 51.256 16.728C50.376 17.192 49.24 17.424 47.848 17.424H44.848V24H41.608ZM50.32 24L46.864 16.608H50.368L54.016 24H50.32ZM44.848 15.072H47.68C48.672 15.072 49.4 14.832 49.864 14.352C50.328 13.872 50.56 13.24 50.56 12.456C50.56 11.672 50.328 11.056 49.864 10.608C49.4 10.144 48.672 9.912 47.68 9.912H44.848V15.072ZM61.6158 24.288C60.4798 24.288 59.4478 24.024 58.5198 23.496C57.6078 22.968 56.8798 22.232 56.3358 21.288C55.7918 20.344 55.5198 19.264 55.5198 18.048C55.5198 16.816 55.7918 15.736 56.3358 14.808C56.8798 13.864 57.6158 13.128 58.5438 12.6C59.4718 12.072 60.5038 11.808 61.6398 11.808C62.7918 11.808 63.8318 12.072 64.7598 12.6C65.6878 13.128 66.4158 13.864 66.9438 14.808C67.4878 15.736 67.7598 16.816 67.7598 18.048C67.7598 19.28 67.4878 20.368 66.9438 21.312C66.3998 22.24 65.6638 22.968 64.7358 23.496C63.8238 24.024 62.7838 24.288 61.6158 24.288ZM61.6398 21.48C62.1518 21.48 62.6158 21.352 63.0318 21.096C63.4638 20.84 63.8078 20.456 64.0638 19.944C64.3358 19.432 64.4718 18.8 64.4718 18.048C64.4718 17.28 64.3438 16.648 64.0878 16.152C63.8318 15.64 63.4878 15.256 63.0558 15C62.6398 14.744 62.1758 14.616 61.6638 14.616C61.1518 14.616 60.6798 14.744 60.2478 15C59.8158 15.256 59.4718 15.64 59.2158 16.152C58.9598 16.648 58.8318 17.28 58.8318 18.048C58.8318 18.8 58.9598 19.432 59.2158 19.944C59.4718 20.456 59.8078 20.84 60.2238 21.096C60.6558 21.352 61.1278 21.48 61.6398 21.48ZM76.3853 24.288C75.1693 24.288 74.0893 24.024 73.1453 23.496C72.2013 22.952 71.4573 22.216 70.9133 21.288C70.3853 20.344 70.1213 19.264 70.1213 18.048C70.1213 16.832 70.3853 15.76 70.9133 14.832C71.4573 13.888 72.2013 13.152 73.1453 12.624C74.0893 12.08 75.1693 11.808 76.3853 11.808C77.9213 11.808 79.2173 12.208 80.2733 13.008C81.3293 13.808 81.9933 14.912 82.2653 16.32H78.8573C78.7133 15.776 78.4173 15.352 77.9693 15.048C77.5213 14.728 76.9853 14.568 76.3613 14.568C75.8173 14.568 75.3213 14.712 74.8733 15C74.4253 15.272 74.0733 15.672 73.8173 16.2C73.5613 16.712 73.4333 17.328 73.4333 18.048C73.4333 18.592 73.5053 19.08 73.6493 19.512C73.8093 19.928 74.0173 20.288 74.2733 20.592C74.5453 20.896 74.8573 21.128 75.2093 21.288C75.5613 21.448 75.9453 21.528 76.3613 21.528C76.7773 21.528 77.1533 21.464 77.4893 21.336C77.8253 21.192 78.1133 20.992 78.3533 20.736C78.5933 20.464 78.7613 20.144 78.8573 19.776H82.2653C81.9933 21.152 81.3293 22.248 80.2733 23.064C79.2173 23.88 77.9213 24.288 76.3853 24.288ZM92.9806 24L87.7966 17.448L92.3806 12.096H96.2206L90.2686 18.792V16.224L97.0126 24H92.9806ZM85.0366 24V6.72H88.2766V24H85.0366ZM103.736 24.288C102.52 24.288 101.44 24.032 100.496 23.52C99.5678 23.008 98.8398 22.288 98.3118 21.36C97.7838 20.432 97.5198 19.368 97.5198 18.168C97.5198 16.92 97.7758 15.824 98.2878 14.88C98.8158 13.92 99.5438 13.168 100.472 12.624C101.416 12.08 102.512 11.808 103.76 11.808C104.944 11.808 105.984 12.064 106.88 12.576C107.792 13.088 108.496 13.792 108.992 14.688C109.504 15.568 109.76 16.568 109.76 17.688C109.76 17.848 109.76 18.032 109.76 18.24C109.76 18.432 109.744 18.632 109.712 18.84H99.8478V16.848H106.472C106.424 16.128 106.144 15.544 105.632 15.096C105.136 14.648 104.512 14.424 103.76 14.424C103.2 14.424 102.688 14.552 102.224 14.808C101.76 15.048 101.392 15.416 101.12 15.912C100.848 16.408 100.712 17.032 100.712 17.784V18.48C100.712 19.12 100.84 19.68 101.096 20.16C101.352 20.64 101.704 21.008 102.152 21.264C102.616 21.52 103.136 21.648 103.712 21.648C104.304 21.648 104.8 21.52 105.2 21.264C105.6 20.992 105.904 20.648 106.112 20.232H109.424C109.184 20.984 108.8 21.672 108.272 22.296C107.744 22.904 107.096 23.392 106.328 23.76C105.56 24.112 104.696 24.288 103.736 24.288ZM117.577 24C116.729 24 115.985 23.872 115.345 23.616C114.721 23.344 114.233 22.904 113.881 22.296C113.529 21.672 113.353 20.824 113.353 19.752V14.808H111.313V12.096H113.353L113.713 8.856H116.593V12.096H119.761V14.808H116.593V19.8C116.593 20.344 116.713 20.72 116.953 20.928C117.193 21.136 117.601 21.24 118.177 21.24H119.689V24H117.577Z" fill="#23262F"/>
<path d="M16.9597 2.09141C19.1473 2.09141 21.3349 2.097 23.522 2.08694C23.9895 2.0847 24.3153 2.25081 24.5526 2.67365C25.7354 4.7828 26.9325 6.88355 28.1257 8.98655C29.1454 10.7836 30.1699 12.5779 31.1802 14.3799C31.2566 14.5159 31.3038 14.739 31.2445 14.8615C31.1978 14.9572 30.966 14.9941 30.8155 14.9969C30.0743 15.0092 29.3321 14.9834 28.5916 15.0075C28.095 15.0237 27.762 14.8296 27.5176 14.3934C26.4622 12.5096 25.3953 10.6326 24.3317 8.75388C23.784 7.78628 23.2346 6.82035 22.6853 5.85387C22.4666 5.46851 22.132 5.31526 21.7019 5.31526C18.5353 5.31861 15.3682 5.30631 12.2016 5.32532C11.6291 5.32868 11.2517 5.13852 10.9863 4.61836C10.6578 3.97516 10.2733 3.3616 9.9299 2.72567C9.85848 2.59367 9.78431 2.36827 9.8442 2.28046C9.92166 2.16748 10.1326 2.10204 10.2875 2.09924C11.1748 2.08302 12.0631 2.09141 12.9509 2.09141C14.287 2.09141 15.6231 2.09141 16.9597 2.09141Z" fill="#3772FF"/>
<path d="M27.5947 17.4948C27.7952 17.1447 28.1105 16.9763 28.5061 16.9741C29.284 16.9707 30.0625 16.9691 30.8409 16.973C31.2903 16.9752 31.42 17.204 31.1997 17.5949C30.7267 18.4344 30.246 19.27 29.7812 20.114L27.0091 24.9962C26.191 26.4381 25.367 27.8767 24.5577 29.3236C24.3363 29.7201 24.0408 29.9131 23.5848 29.9125C19.1354 29.9064 14.686 29.9103 10.2366 29.9109C9.81416 29.9109 9.68726 29.6922 9.89437 29.3264C10.2872 28.6328 10.68 27.9393 11.07 27.2441C11.2843 26.8621 11.5936 26.6814 12.0358 26.682C15.2217 26.6898 18.408 26.6809 21.5939 26.692C22.1454 26.6937 22.5223 26.4968 22.7899 25.9884C23.2695 25.0784 23.7721 24.1791 24.3138 23.3066L27.5947 17.4948Z" fill="#3772FF"/>
<path d="M2.12114 18.7704C1.69702 18.0316 1.28609 17.2844 0.855926 16.5494C0.635077 16.1719 0.647163 15.8195 0.860321 15.4454C1.90688 13.6108 2.94575 11.7718 3.98956 9.93506C5.18006 7.8399 6.3711 5.74529 7.5638 3.6518C7.75553 3.31454 8.00989 3.31566 8.20272 3.65292C8.61145 4.36883 9.01799 5.08587 9.42343 5.80402C9.61791 6.14911 9.61297 6.49644 9.41849 6.83985C8.49554 8.468 7.57094 10.0956 6.64799 11.7232C5.94424 12.9643 5.24269 14.2065 4.53784 15.4465C4.31534 15.8385 4.32908 16.2083 4.55817 16.6026L8.49609 23.5307C8.78835 24.0464 9.07238 24.5677 9.37509 25.0772C9.6234 25.4961 9.61956 25.8899 9.36849 26.3099C8.96965 26.9783 8.59772 27.6629 8.20931 28.3374C7.9989 28.7037 7.76981 28.7132 7.5638 28.3536C6.80786 27.0348 6.06016 25.7114 5.30916 24.3904L2.12114 18.7704Z" fill="#3772FF"/>
<path d="M6.6393 16.5068C6.44098 16.159 6.44317 15.8374 6.64589 15.4833C7.92429 13.2472 9.19225 11.0049 10.463 8.76435C10.6816 8.37955 10.8574 8.37564 11.0805 8.75541L14.9415 15.5465C15.1244 15.8648 15.1046 16.1662 14.9316 16.4705C13.6559 18.7195 12.3808 20.969 11.0969 23.2129C11.0233 23.3421 10.8744 23.5077 10.7596 23.5088C10.6415 23.5099 10.5728 23.3735 10.463 23.176L6.6393 16.5068Z" fill="#3772FF"/>
<path d="M21.5206 24.3966C21.3541 24.6841 21.0816 24.8077 20.7558 24.8077C18.1925 24.8083 15.6291 24.8094 13.0651 24.8072C12.6762 24.8066 12.5641 24.6114 12.7553 24.2747C14.0397 22.0089 15.3291 19.746 16.6119 17.4791C16.8108 17.1279 17.0921 16.9701 17.4871 16.9707C19.9955 16.9752 22.5045 16.9724 25.0129 16.9741C25.1036 16.9741 25.1975 16.9774 25.2849 16.9998C25.5019 17.0552 25.5892 17.228 25.4794 17.4243C25.0316 18.2241 22.0254 23.5258 21.5206 24.3966Z" fill="#3772FF"/>
<path d="M12.7078 7.65125C12.5914 7.41187 12.6837 7.25079 12.9452 7.22897C12.9908 7.22506 13.0369 7.22674 13.0825 7.22674C15.6272 7.22674 18.1714 7.23345 20.7161 7.2217C21.1319 7.21947 21.3978 7.37384 21.6028 7.7385C22.8383 9.93546 24.0887 12.1235 25.3248 14.3199C25.4165 14.4832 25.5181 14.7147 25.4704 14.8685C25.3945 15.1135 25.1231 14.9972 24.9336 14.9972C22.4076 15.0028 19.881 15.0011 17.355 15.0056C17.0287 15.0061 16.7996 14.8663 16.6386 14.5822C16.0991 13.6302 12.8556 7.95495 12.7078 7.65125Z" fill="#3772FF"/>
</svg>
