<svg width="5" height="12" viewBox="0 0 5 12" fill="none" xmlns="http://www.w3.org/2000/svg">
<g clip-path="url(#clip0_2680_33276)">
<path d="M2.8465 11.138L4.67178 8.47183C4.75614 8.3487 4.80078 8.22464 4.80078 8.12152C4.80078 7.92215 4.64078 7.79883 4.37295 7.79883L0.427989 7.79883C0.160474 7.79883 0.000780577 7.922 0.000780568 8.1209C0.000780564 8.22417 0.045464 8.34625 0.130051 8.46966L1.95529 11.1371C2.07287 11.3087 2.23108 11.4037 2.40099 11.4037C2.57079 11.4037 2.72897 11.3098 2.8465 11.138Z" fill="#777E90"/>
</g>
<g clip-path="url(#clip1_2680_33276)">
<path d="M2.8465 0.863908L4.67178 3.53012C4.75614 3.65325 4.80078 3.77732 4.80078 3.88044C4.80078 4.0798 4.64078 4.20313 4.37295 4.20313L0.427989 4.20313C0.160474 4.20313 0.000780577 4.07996 0.000780568 3.88106C0.000780564 3.77778 0.045464 3.6557 0.130051 3.5323L1.95529 0.86484C2.07287 0.693297 2.23108 0.598297 2.40099 0.598297C2.57079 0.598258 2.72897 0.69217 2.8465 0.863908Z" fill="#777E90"/>
</g>
<defs>
<clipPath id="clip0_2680_33276">
<rect width="4.8" height="4.8" fill="white" transform="translate(4.80078 7.20117) rotate(90)"/>
</clipPath>
<clipPath id="clip1_2680_33276">
<rect width="4.8" height="4.8" fill="white" transform="matrix(-4.37114e-08 -1 -1 4.37114e-08 4.80078 4.80078)"/>
</clipPath>
</defs>
</svg>
