<svg width="16" height="16" viewBox="0 0 16 16" fill="none" xmlns="http://www.w3.org/2000/svg">
<g filter="url(#filter0_d_2680_35205)">
<path d="M15.9586 5.82555C15.8538 5.50156 15.5665 5.27145 15.2265 5.24081L10.6084 4.82148L8.78224 0.547262C8.64759 0.234017 8.34094 0.03125 8.00022 0.03125C7.65951 0.03125 7.35286 0.234017 7.21821 0.547994L5.39208 4.82148L0.773225 5.24081C0.433855 5.27218 0.147221 5.50156 0.0418699 5.82555C-0.0634813 6.14953 0.0338129 6.50489 0.290538 6.7289L3.78129 9.7903L2.75195 14.3245C2.67663 14.6579 2.80603 15.0025 3.08265 15.2025C3.23134 15.3099 3.4053 15.3646 3.58072 15.3646C3.73197 15.3646 3.882 15.3238 4.01665 15.2433L8.00022 12.8624L11.9823 15.2433C12.2737 15.4186 12.641 15.4026 12.9171 15.2025C13.1938 15.0019 13.3231 14.6572 13.2478 14.3245L12.2184 9.7903L15.7092 6.72951C15.9659 6.50489 16.0639 6.15014 15.9586 5.82555Z" fill="#FABE3C"/>
</g>
<defs>
<filter id="filter0_d_2680_35205" x="-4" y="0.03125" width="24" height="23.333" filterUnits="userSpaceOnUse" color-interpolation-filters="sRGB">
<feFlood flood-opacity="0" result="BackgroundImageFix"/>
<feColorMatrix in="SourceAlpha" type="matrix" values="0 0 0 0 0 0 0 0 0 0 0 0 0 0 0 0 0 0 127 0" result="hardAlpha"/>
<feOffset dy="4"/>
<feGaussianBlur stdDeviation="2"/>
<feComposite in2="hardAlpha" operator="out"/>
<feColorMatrix type="matrix" values="0 0 0 0 0 0 0 0 0 0 0 0 0 0 0 0 0 0 0.25 0"/>
<feBlend mode="normal" in2="BackgroundImageFix" result="effect1_dropShadow_2680_35205"/>
<feBlend mode="normal" in="SourceGraphic" in2="effect1_dropShadow_2680_35205" result="shape"/>
</filter>
</defs>
</svg>
