<svg width="21" height="20" viewBox="0 0 21 20" fill="none" xmlns="http://www.w3.org/2000/svg">
<path d="M10.5 11.7578C10.1767 11.7578 9.91406 12.0205 9.91406 12.3438C9.91406 12.6671 10.1767 12.9298 10.5 12.9298C10.8234 12.9298 11.086 12.6671 11.086 12.3438C11.086 12.0205 10.8234 11.7578 10.5 11.7578Z" fill="white"/>
<path d="M14.0164 8.24219H6.71894C4.60035 8.24219 2.88281 9.95965 2.88281 12.0783C2.88281 15.6973 5.28437 19.0605 8.82266 19.8205C13.7511 20.8791 18.1183 17.0922 18.1183 12.344C18.1183 10.0787 16.2818 8.24219 14.0164 8.24219ZM11.0865 13.9941V17.071C11.0865 17.3949 10.8244 17.657 10.5005 17.657C10.1766 17.657 9.91457 17.3949 9.91457 17.071V13.9941C9.23398 13.7514 8.74262 13.107 8.74262 12.3441C8.74262 11.3747 9.53117 10.5861 10.5005 10.5861C11.4699 10.5861 12.2585 11.3747 12.2585 12.3441C12.2585 13.107 11.7671 13.7513 11.0865 13.9941Z" fill="white"/>
<path d="M10.5004 0C7.58223 0 5.22656 2.35562 5.22656 5.27383V7.3234C5.70102 7.17391 6.19582 7.07086 6.71898 7.07086H7.57051V5.27383C7.57051 3.65652 8.88309 2.34395 10.5004 2.34395C12.1177 2.34395 13.4303 3.65652 13.4303 5.27383V7.07082H14.0163C14.6356 7.07082 15.2216 7.19777 15.7742 7.3948V5.27383C15.7742 2.35844 13.4128 0 10.5004 0Z" fill="white"/>
</svg>
