<svg width="24" height="22" viewBox="0 0 24 22" fill="none" xmlns="http://www.w3.org/2000/svg">
<path d="M12.5703 6.42969V12.1439L17.4617 15.0468L18.2846 13.6582L14.2846 11.2868V6.42969H12.5703Z" fill="#3772FF"/>
<path d="M13.7085 0.714844C8.02285 0.714844 3.42857 5.32054 3.42857 11.0006H0L4.45141 15.452L4.53139 15.6177L9.14287 11.0006H5.7143C5.7143 6.58344 9.29716 3.00058 13.7143 3.00058C18.1314 3.00058 21.7143 6.58344 21.7143 11.0006C21.7143 15.4177 18.1314 19.0005 13.7143 19.0005C11.5029 19.0005 9.50855 18.0977 8.06287 16.652L6.44571 18.2691C8.30287 20.132 10.8686 21.2863 13.7085 21.2863C19.3943 21.2863 24 16.6806 24 11.0006C24 5.32054 19.3943 0.714844 13.7085 0.714844Z" fill="#3772FF"/>
</svg>
