<svg width="132" height="28" viewBox="0 0 132 28" fill="none" xmlns="http://www.w3.org/2000/svg">
<path d="M18.302 15.5941C18.2573 15.6472 18.2145 15.7023 18.1671 15.7522L18.1662 15.7626L13.706 20.7519L13.6986 20.7498C13.4026 21.0831 13.0504 21.3474 12.6626 21.5278C12.2748 21.7081 11.8588 21.8007 11.4387 21.8003H7.04831C6.96128 21.8001 6.87507 21.8192 6.79463 21.8563C6.71419 21.8934 6.64108 21.948 6.5795 22.0168C6.51791 22.0855 6.46906 22.1673 6.43573 22.2572C6.40239 22.347 6.38524 22.4434 6.38524 22.5408V26.9257L6.37128 26.9267C6.3475 27.0882 6.2844 27.2392 6.18892 27.3631C6.09343 27.4871 5.96925 27.5792 5.83001 27.6294C5.69077 27.6796 5.54186 27.6859 5.39963 27.6476C5.2574 27.6094 5.12734 27.528 5.02374 27.4125L5.02096 27.4145L0.975552 22.8924L0.979269 22.8851C0.669515 22.5529 0.423072 22.154 0.254778 21.7126C0.0864824 21.271 -0.000182335 20.796 2.88022e-07 20.316V9.00114C2.88022e-07 8.04217 0.339443 7.1737 0.889989 6.53198L0.88813 6.52574L5.47479 1.3961L5.47665 1.39714C6.07189 0.743861 6.87275 0.378197 7.70673 0.378907H11.4387C11.9149 0.378907 12.365 0.498516 12.7696 0.70757V0.699249C13.1155 0.879183 13.4298 1.12152 13.6939 1.41898L13.6995 1.41586L19.1436 7.50445L19.1445 14.6466H25.5149V25.7442C25.5167 25.7505 25.5167 25.7577 25.5167 25.765V26.0156C25.4888 26.4661 25.309 26.8879 25.0139 27.1959C24.7188 27.504 24.3302 27.6754 23.9265 27.6756H20.7339C20.5133 27.6754 20.2953 27.6242 20.0933 27.525C19.8914 27.4258 19.71 27.2809 19.5607 27.0995C19.4114 26.918 19.2973 26.7038 19.2257 26.4706C19.1541 26.2374 19.1264 25.99 19.1445 25.7442V14.6466L18.302 15.5941ZM12.1065 14.6549C12.1935 14.6551 12.2797 14.636 12.3601 14.5989C12.4406 14.5617 12.5137 14.5072 12.5753 14.4384C12.6369 14.3697 12.6857 14.288 12.719 14.198C12.7524 14.1082 12.7696 14.0118 12.7696 13.9144V8.26267C12.7696 8.16533 12.7524 8.06895 12.719 7.97903C12.6857 7.88912 12.6369 7.80744 12.5753 7.73866C12.5137 7.66988 12.4406 7.61536 12.3601 7.5782C12.2797 7.54105 12.1935 7.522 12.1065 7.52213V7.52109H7.04738C6.87168 7.52109 6.70317 7.59907 6.57884 7.73792C6.45452 7.87677 6.38455 8.06512 6.3843 8.26162V13.9123C6.3843 14.3222 6.68097 14.6529 7.04738 14.6529H12.1046L12.1065 14.6549Z" fill="#B1B5C3"/>
<path d="M19.1484 14.6543H25.5188L19.1484 7.51416V14.6543Z" fill="#B1B5C3"/>
<path d="M34.5469 6.32808H40.442C42.8507 6.32808 44.9877 6.32808 46.2749 8.39471C46.8356 9.32349 47.1053 10.6464 47.1053 11.7604C47.1053 12.6652 46.9388 13.5483 46.6069 14.3138C45.3412 17.2395 42.6423 17.3092 40.6494 17.3549H38.2212V22.7176H34.5469V6.32808ZM38.2231 9.34639V14.3138H40.4253C41.797 14.3138 43.4588 14.268 43.4588 11.7375C43.4588 9.34538 41.6091 9.34538 40.5499 9.34538L38.2231 9.34639ZM51.5078 11.8509C52.2137 11.1769 52.9818 10.6434 54.6419 10.4571V13.6149L53.5835 13.8C52.0481 14.1016 51.5906 14.3575 51.5906 15.8895V22.7144H48.3943V10.5736H51.5078V11.8509ZM67.1166 16.63C67.1166 19.6951 65.5393 23.0608 61.3042 23.0608C58.253 23.0608 55.4714 21.1106 55.4714 16.63C55.4714 12.9159 57.5676 9.96732 61.7199 10.2231C66.141 10.5019 67.1166 14.4251 67.1166 16.63ZM59.2285 14.241C58.8342 14.9378 58.6891 15.7751 58.6891 16.6123C58.6891 18.5417 59.5187 20.2391 61.3042 20.2391C63.0274 20.2391 63.8784 18.681 63.8784 16.7756C63.8784 15.4266 63.5873 14.3804 62.9856 13.7292C62.3216 13.0324 61.5739 13.0085 61.1173 13.0553C60.204 13.1249 59.6646 13.4734 59.2295 14.241H59.2285ZM69.7122 9.38593C69.7122 8.78266 69.7531 7.96932 70.1679 7.31927C70.5631 6.71603 71.455 6.08887 72.9503 6.08887C73.5939 6.08887 74.2375 6.20536 74.8596 6.29688V8.9678H74.0914C72.888 8.9678 72.8257 9.24653 72.8462 10.8711H74.9842V13.0532H72.8666V22.7113H69.6908V13.0532H67.9889V10.8711H69.7122V9.38593Z" fill="#B1B5C3"/>
<path d="M76.5859 9.06955H79.7397V6.30713H76.5859V9.06955ZM76.5859 22.7205H79.7397V10.5787H76.5859V22.7205Z" fill="#B1B5C3"/>
<path d="M82.9992 7.0874H86.175V10.8712H88.2719V13.0532H86.1545V18.5095C86.134 19.2521 86.134 19.8792 86.9852 19.8792L88.1263 19.8325V22.6178C87.4419 22.7343 87.0262 22.8039 86.4458 22.8039C85.3442 22.8039 84.141 22.7343 83.4559 21.6193C83.0204 20.9006 82.9999 20.0415 82.9999 18.8808V13.0304H81.4219V10.8483H82.9992V7.0874Z" fill="#B1B5C3"/>
<path d="M100.263 6.32861C100.7 8.09257 101.135 9.85755 101.612 11.6226C102.423 14.7792 102.568 15.2899 103.024 18.4704C103.46 15.2202 103.564 14.6638 104.227 11.3199C104.539 9.64856 104.871 7.97713 105.183 6.32861H108.815L105.1 22.7181H101.322C100.866 20.9084 100.429 19.0965 99.9516 17.3097C99.1626 14.2914 99.1209 14.1749 98.6847 11.8774C98.3121 13.8972 98.2704 14.0595 97.4397 17.1932L96.0278 22.7181H92.2504L88.5352 6.32861H92.1889C93.7662 14.1052 93.9331 14.9643 94.3678 18.5162C94.9072 15.267 95.0537 14.6399 95.8214 11.3896L97.0247 6.32861H100.263Z" fill="#B1B5C3"/>
<path d="M119.545 19.6331C119.171 20.2603 118.797 20.8635 118.237 21.4439C117.302 22.4195 115.89 23.1621 114.148 23.1621C110.93 23.1621 108.668 20.8635 108.668 16.8936C108.668 13.9689 109.955 10.208 114.231 10.208C114.875 10.208 116.742 10.2777 118.133 11.9491C119.545 13.6444 119.628 16.0116 119.669 17.3814H111.927C111.906 18.8895 112.674 20.3997 114.397 20.3997C116.14 20.3997 116.742 19.1224 117.137 18.2634L119.545 19.6331ZM116.368 15.1421C116.306 14.6335 116.224 13.9637 115.766 13.4322C115.372 12.9922 114.771 12.7614 114.21 12.7614C113.442 12.7614 112.903 13.1774 112.591 13.5476C112.154 14.0791 112.052 14.6335 111.948 15.1421H116.368Z" fill="#B1B5C3"/>
<path d="M121.52 22.7181H124.716V6.32861H121.52V22.7181Z" fill="#B1B5C3"/>
<path d="M127.574 22.7181H130.77V6.32861H127.574V22.7181Z" fill="#B1B5C3"/>
</svg>
